<?xml version="1.0" encoding="utf-8"?>
<!-- Generator: Adobe Illustrator 27.5.0, SVG Export Plug-In . SVG Version: 6.00 Build 0)  -->
<svg version="1.1" xmlns="http://www.w3.org/2000/svg" xmlns:xlink="http://www.w3.org/1999/xlink" x="0px" y="0px"
	 viewBox="0 0 500 500" style="enable-background:new 0 0 500 500;" xml:space="preserve">
<g id="BACKGROUND">
	<rect style="fill:#60C0C0;" width="500" height="500"/>
</g>
<g id="OBJECTS">
	<g>
		<g>
			<g>
				<path style="fill:#479AAD;" d="M456.281,149.338c0.393,14.642-11.159,26.829-25.8,27.222
					c-14.642,0.393-26.829-11.159-27.222-25.8c-0.393-14.642,11.159-26.829,25.8-27.222S455.889,134.697,456.281,149.338z"/>
			</g>
			<g>
				<path style="fill:#60C0C0;" d="M429.754,173.072c-2.776,0-5.49-0.492-8.077-1.463c-8.811-3.312-14.668-11.532-14.92-20.942
					c-0.165-6.147,2.074-11.991,6.304-16.454c4.23-4.463,9.945-7.012,16.093-7.177c8.341-0.227,16.216,4.123,20.47,11.347
					c1.964,3.335,3.058,7.157,3.161,11.05l0,0c0.139,5.151-1.395,10.065-4.433,14.212c-4.245,5.793-10.793,9.226-17.964,9.418
					C430.175,173.069,429.964,173.072,429.754,173.072z M429.772,127.969c-0.198,0-0.396,0.002-0.594,0.008
					c-12.171,0.327-21.807,10.494-21.48,22.664c0.241,9.025,5.858,16.91,14.311,20.086c2.669,1.003,5.49,1.475,8.354,1.395
					c6.878-0.185,13.157-3.478,17.229-9.034c2.914-3.977,4.384-8.69,4.251-13.63l0,0c-0.1-3.734-1.148-7.399-3.032-10.598
					C444.832,132.103,437.577,127.969,429.772,127.969z"/>
			</g>
			<g>
				<path style="fill:#60C0C0;" d="M437.701,152.783c-0.445-0.872-1.135-1.643-2.058-2.322c-0.867-0.633-2.198-1.3-3.977-2.009
					c-0.122-0.05-0.244-0.094-0.366-0.144c-1.677-0.638-2.863-1.162-3.557-1.578c-0.027-0.013-0.054-0.025-0.082-0.045
					c-0.674-0.417-1.161-0.866-1.469-1.346c-0.301-0.487-0.464-1.072-0.482-1.761c-0.027-1.004,0.32-1.816,1.026-2.451
					c0.242-0.214,0.518-0.396,0.843-0.532c0.622-0.285,1.394-0.439,2.324-0.464c0.495-0.013,1.011,0.006,1.542,0.066
					c0.96,0.101,1.984,0.315,3.071,0.647c0.979,0.295,2.023-0.201,2.372-1.162l0.006-0.02c0.361-1.007-0.171-2.138-1.19-2.445
					c-1.451-0.443-2.905-0.705-4.36-0.787l-0.043-1.592c-0.014-0.535-0.241-1.011-0.605-1.356c-0.364-0.338-0.851-0.54-1.387-0.525
					c-1.064,0.028-1.91,0.915-1.882,1.986l0.047,1.739c-1.531,0.322-2.807,0.919-3.842,1.797c-1.538,1.313-2.274,3.074-2.215,5.288
					c0.047,1.766,0.583,3.265,1.607,4.496c0.975,1.172,2.59,2.194,4.843,3.071c0.122,0.05,0.244,0.101,0.365,0.144
					c1.515,0.562,2.7,1.079,3.557,1.558c0.483,0.268,0.871,0.519,1.145,0.766c0.768,0.669,1.165,1.502,1.192,2.492
					c0.029,1.097-0.348,1.984-1.147,2.662c-0.282,0.235-0.617,0.438-1.015,0.59c-0.728,0.301-1.648,0.459-2.759,0.489
					c-0.361,0.01-0.73,0.006-1.105-0.017c-0.858-0.044-1.759-0.167-2.708-0.369c-0.471-0.101-0.93-0.209-1.382-0.338
					c-0.196-0.055-0.384-0.077-0.571-0.072c-1.024,0.028-1.891,0.888-1.862,1.978c0.022,0.809,0.537,1.532,1.3,1.78
					c1.519,0.475,3.287,0.715,5.322,0.721l0.042,1.546c0.029,1.07,0.921,1.91,1.985,1.882c1.071-0.029,1.917-0.915,1.888-1.986
					l-0.048-1.806c1.577-0.357,2.893-0.968,3.948-1.847c1.67-1.391,2.47-3.26,2.407-5.615
					C438.388,154.693,438.146,153.654,437.701,152.783z"/>
			</g>
		</g>
		<g>
			<g>
				<path style="fill:#479AAD;" d="M96.741,322.001c0.393,14.642-11.159,26.829-25.8,27.222s-26.829-11.159-27.222-25.8
					s11.159-26.829,25.8-27.222S96.348,307.359,96.741,322.001z"/>
			</g>
			<g>
				<path style="fill:#60C0C0;" d="M70.216,345.735c-2.778,0-5.493-0.491-8.079-1.464c-8.812-3.312-14.668-11.531-14.921-20.942
					c-0.165-6.147,2.074-11.99,6.304-16.454c4.23-4.463,9.945-7.012,16.093-7.177c8.376-0.242,16.214,4.124,20.469,11.347
					c1.964,3.337,3.058,7.158,3.162,11.051l0,0c0.138,5.151-1.395,10.066-4.434,14.212c-4.245,5.793-10.792,9.225-17.963,9.419
					C70.636,345.732,70.426,345.735,70.216,345.735z M70.231,300.631c-0.197,0-0.395,0.003-0.592,0.008
					c-5.896,0.158-11.377,2.602-15.435,6.884c-4.057,4.28-6.205,9.885-6.046,15.78c0.242,9.026,5.859,16.91,14.31,20.087
					c2.668,1.002,5.479,1.464,8.354,1.394c6.878-0.186,13.158-3.478,17.229-9.034c2.914-3.976,4.384-8.689,4.252-13.63l0,0
					c-0.1-3.733-1.148-7.398-3.032-10.598C85.29,304.765,78.035,300.631,70.231,300.631z"/>
			</g>
			<g>
				<path style="fill:#60C0C0;" d="M78.16,325.445c-0.445-0.872-1.135-1.643-2.058-2.322c-0.867-0.633-2.198-1.3-3.977-2.009
					c-0.122-0.05-0.244-0.094-0.366-0.144c-1.677-0.638-2.863-1.162-3.557-1.578c-0.027-0.013-0.054-0.025-0.081-0.045
					c-0.674-0.417-1.162-0.866-1.469-1.346c-0.301-0.487-0.464-1.072-0.483-1.761c-0.027-1.004,0.32-1.816,1.026-2.451
					c0.242-0.214,0.518-0.395,0.843-0.532c0.622-0.284,1.394-0.439,2.324-0.464c0.495-0.013,1.011,0.006,1.542,0.066
					c0.96,0.101,1.984,0.315,3.07,0.647c0.979,0.295,2.023-0.202,2.372-1.162l0.006-0.02c0.361-1.007-0.171-2.138-1.19-2.445
					c-1.451-0.443-2.905-0.706-4.36-0.787l-0.043-1.592c-0.014-0.535-0.241-1.011-0.606-1.356c-0.364-0.338-0.851-0.54-1.386-0.525
					c-1.064,0.029-1.911,0.915-1.882,1.986l0.047,1.739c-1.531,0.322-2.807,0.919-3.842,1.797c-1.538,1.313-2.274,3.074-2.215,5.289
					c0.047,1.766,0.583,3.265,1.607,4.496c0.975,1.172,2.59,2.194,4.843,3.071c0.122,0.05,0.244,0.101,0.365,0.144
					c1.515,0.562,2.7,1.079,3.557,1.558c0.483,0.268,0.871,0.519,1.145,0.766c0.768,0.669,1.165,1.502,1.192,2.492
					c0.029,1.097-0.349,1.984-1.147,2.662c-0.282,0.235-0.618,0.438-1.015,0.589c-0.728,0.301-1.648,0.459-2.759,0.489
					c-0.361,0.01-0.73,0.006-1.105-0.017c-0.858-0.044-1.759-0.167-2.708-0.369c-0.471-0.101-0.93-0.21-1.382-0.338
					c-0.196-0.055-0.384-0.077-0.571-0.072c-1.024,0.028-1.891,0.888-1.862,1.978c0.022,0.81,0.537,1.532,1.3,1.78
					c1.519,0.475,3.287,0.715,5.322,0.721l0.042,1.546c0.028,1.07,0.921,1.91,1.985,1.882c1.071-0.029,1.917-0.915,1.888-1.986
					l-0.048-1.806c1.577-0.357,2.893-0.968,3.948-1.846c1.67-1.391,2.47-3.26,2.407-5.615
					C78.847,327.355,78.605,326.317,78.16,325.445z"/>
			</g>
		</g>
		<g>
			
				<rect x="150.909" y="374.548" transform="matrix(0.9887 0.1499 -0.1499 0.9887 64.6672 -18.3697)" style="fill:#54B0B2;" width="6.549" height="90.434"/>
		</g>
		<g>
			
				<rect x="231.63" y="374.548" transform="matrix(-0.9887 0.1499 -0.1499 -0.9887 530.0798 799.5723)" style="fill:#54B0B2;" width="6.549" height="90.434"/>
		</g>
		<g>
			<path style="fill:#54B0B2;" d="M453.673,465.049H47.588c0,0-3.527-27.396,20.485-26.657
				c24.013,0.739,33.831-19.242,48.351-16.389c54.766,10.759,109.138,11.691,129.191,11.691c40.517,0,87.647-38.025,133.143-38.025
				c27.402,0,40.893,38.025,60.397,41.736C456.375,440.68,453.673,465.049,453.673,465.049z"/>
		</g>
		<g>
			<g>
				<path style="fill:#479AAD;" d="M343.373,131.458L258.89,96.812c-3.194-1.31-4.721-4.961-3.412-8.155l20.433-49.825
					c1.31-3.194,4.961-4.721,8.155-3.412l84.483,34.646c3.194,1.31,4.721,4.961,3.412,8.155l-20.433,49.825
					C350.218,131.24,346.567,132.768,343.373,131.458z"/>
			</g>
			<g>
				<path style="fill:#60C0C0;" d="M292.644,66.221l-11.684-4.792c-0.96-0.394-1.419-1.491-1.025-2.451l3.759-9.167
					c0.394-0.96,1.491-1.419,2.451-1.025l11.685,4.792c0.96,0.394,1.419,1.491,1.025,2.451l-3.759,9.167
					C294.701,66.156,293.604,66.615,292.644,66.221z"/>
			</g>
			<g>
				<g>
					<path style="fill:#F2F2F2;" d="M349.159,82.119l-0.096-0.253c0.96-0.365,1.733-1.119,2.123-2.068
						c0.377-0.92,0.373-1.932-0.011-2.85l0.25-0.104c0.411,0.985,0.415,2.071,0.011,3.057
						C351.018,80.919,350.188,81.728,349.159,82.119z"/>
				</g>
				<g>
					<path style="fill:#F2F2F2;" d="M353.778,88.611l-0.096-0.253c2.404-0.915,4.343-2.804,5.319-5.183
						c0.945-2.306,0.936-4.843-0.025-7.143l0.25-0.104c0.989,2.367,0.998,4.978,0.025,7.35
						C358.248,85.725,356.253,87.669,353.778,88.611z"/>
				</g>
				<g>
					<path style="fill:#F2F2F2;" d="M350.14,84.538l-0.096-0.253c1.556-0.591,2.809-1.813,3.439-3.352
						c0.612-1.492,0.606-3.132-0.017-4.619l0.25-0.104c0.65,1.554,0.657,3.268,0.017,4.826
						C353.076,82.644,351.765,83.921,350.14,84.538z"/>
				</g>
				<g>
					<path style="fill:#F2F2F2;" d="M351.937,86.575l-0.096-0.253c2.009-0.764,3.563-2.28,4.379-4.268
						c0.779-1.899,0.771-3.988-0.021-5.881l0.25-0.104c0.819,1.96,0.827,4.122,0.021,6.088
						C355.639,84.185,353.987,85.795,351.937,86.575z"/>
				</g>
			</g>
			<g>
				<path style="fill:#F2F2F2;" d="M269.778,85.336l-0.396-0.162l1.044-2.546c0.087-0.212,0.176-0.409,0.266-0.594
					c-0.049,0.021-0.102,0.04-0.159,0.061c-0.058,0.021-0.316,0.101-0.777,0.238l-0.101-0.367l1.246-0.343l0.342,0.141
					L269.778,85.336z"/>
				<path style="fill:#F2F2F2;" d="M274.486,87.268l-2.349-0.964l0.143-0.349l1.33-0.561c0.405-0.172,0.679-0.302,0.82-0.389
					c0.143-0.086,0.261-0.178,0.353-0.276c0.095-0.099,0.169-0.216,0.225-0.351c0.078-0.191,0.082-0.366,0.012-0.525
					c-0.069-0.158-0.207-0.281-0.412-0.365c-0.148-0.061-0.299-0.093-0.451-0.099c-0.153-0.006-0.338,0.022-0.553,0.084
					l-0.103-0.364c0.441-0.139,0.856-0.128,1.243,0.031c0.336,0.137,0.563,0.331,0.684,0.581c0.12,0.25,0.121,0.521,0.002,0.81
					c-0.093,0.227-0.248,0.426-0.466,0.594c-0.218,0.17-0.571,0.353-1.059,0.549l-1.096,0.443l-0.008,0.02l1.838,0.754
					L274.486,87.268z"/>
				<path style="fill:#F2F2F2;" d="M279.335,86.065c-0.094,0.228-0.234,0.388-0.422,0.48c-0.188,0.093-0.408,0.115-0.662,0.068
					l-0.008,0.02c0.271,0.153,0.446,0.331,0.525,0.535c0.078,0.203,0.068,0.424-0.029,0.661c-0.141,0.341-0.365,0.555-0.677,0.641
					c-0.311,0.087-0.685,0.04-1.119-0.138c-0.189-0.078-0.356-0.163-0.503-0.256c-0.145-0.094-0.277-0.205-0.396-0.338l0.158-0.387
					c0.123,0.141,0.265,0.266,0.423,0.378c0.159,0.111,0.316,0.2,0.473,0.264c0.618,0.254,1.025,0.138,1.225-0.346
					c0.178-0.434-0.074-0.79-0.755-1.069l-0.353-0.145l0.144-0.35l0.356,0.146c0.279,0.115,0.525,0.145,0.738,0.088
					c0.213-0.057,0.365-0.193,0.455-0.412c0.071-0.174,0.066-0.336-0.012-0.484c-0.08-0.148-0.222-0.266-0.427-0.35
					c-0.156-0.063-0.313-0.103-0.468-0.117c-0.157-0.014-0.346,0-0.57,0.04l-0.094-0.357c0.194-0.056,0.4-0.077,0.619-0.065
					c0.219,0.014,0.434,0.063,0.645,0.149c0.348,0.143,0.585,0.333,0.712,0.57C279.441,85.53,279.448,85.787,279.335,86.065z"/>
				<path style="fill:#F2F2F2;" d="M282.715,89.684l-0.53-0.218l-0.337,0.82l-0.389-0.159l0.337-0.82l-1.737-0.713l0.145-0.354
					l2.687-1.721l0.43,0.176l-0.984,2.402l0.53,0.218L282.715,89.684z M281.948,88.938l0.486-1.188
					c0.096-0.233,0.213-0.493,0.349-0.779l-0.019-0.008c-0.143,0.123-0.27,0.224-0.38,0.298l-1.768,1.13L281.948,88.938z"/>
				<path style="fill:#F2F2F2;" d="M290.339,91.219c0.377,0.154,0.635,0.369,0.773,0.645c0.14,0.275,0.142,0.574,0.01,0.898
					c-0.151,0.37-0.388,0.612-0.71,0.726c-0.321,0.114-0.69,0.085-1.104-0.084c-0.401-0.165-0.683-0.355-0.841-0.571l0.16-0.391
					c0.084,0.12,0.201,0.236,0.353,0.347c0.152,0.111,0.312,0.2,0.477,0.269c0.286,0.117,0.537,0.141,0.75,0.07
					c0.215-0.07,0.375-0.232,0.479-0.488c0.205-0.499,0.001-0.874-0.609-1.124c-0.154-0.063-0.371-0.124-0.649-0.185l-0.156-0.22
					l0.82-1.616l1.776,0.729l-0.153,0.374l-1.43-0.587l-0.529,1.036C289.959,91.085,290.153,91.143,290.339,91.219z"/>
				<path style="fill:#F2F2F2;" d="M292.856,93.017c0.288-0.702,0.64-1.171,1.055-1.407c0.416-0.236,0.891-0.244,1.426-0.024
					c0.184,0.075,0.322,0.15,0.416,0.225l-0.144,0.35c-0.108-0.093-0.244-0.172-0.405-0.238c-0.383-0.157-0.724-0.156-1.023-0.001
					c-0.301,0.155-0.564,0.485-0.795,0.988l0.03,0.013c0.294-0.207,0.636-0.231,1.022-0.072c0.321,0.132,0.534,0.333,0.64,0.603
					c0.105,0.27,0.091,0.571-0.046,0.903c-0.152,0.371-0.374,0.622-0.664,0.751c-0.29,0.129-0.607,0.123-0.952-0.019
					c-0.371-0.151-0.606-0.41-0.71-0.777C292.603,93.944,292.653,93.512,292.856,93.017z M293.551,94.741
					c0.23,0.096,0.441,0.096,0.629,0.002c0.186-0.093,0.338-0.277,0.451-0.553c0.097-0.236,0.112-0.446,0.05-0.63
					c-0.064-0.185-0.214-0.325-0.45-0.422c-0.146-0.06-0.293-0.085-0.439-0.075c-0.147,0.011-0.279,0.054-0.395,0.131
					c-0.117,0.075-0.198,0.17-0.244,0.285c-0.069,0.167-0.101,0.337-0.096,0.509c0.006,0.172,0.052,0.325,0.137,0.458
					C293.279,94.58,293.398,94.678,293.551,94.741z"/>
				<path style="fill:#F2F2F2;" d="M296.504,96.297l2.793-2.592l-1.948-0.799l0.153-0.374l2.378,0.976l-0.133,0.325l-2.794,2.647
					L296.504,96.297z"/>
				<path style="fill:#F2F2F2;" d="M302.583,94.556c0.326,0.134,0.554,0.315,0.682,0.546c0.129,0.229,0.138,0.478,0.028,0.745
					c-0.072,0.176-0.192,0.313-0.361,0.414c-0.169,0.101-0.398,0.161-0.685,0.181c0.232,0.258,0.379,0.488,0.438,0.69
					c0.061,0.202,0.049,0.403-0.034,0.604c-0.121,0.296-0.321,0.49-0.601,0.582c-0.279,0.092-0.6,0.064-0.959-0.083
					c-0.381-0.156-0.641-0.36-0.777-0.611c-0.136-0.251-0.143-0.53-0.017-0.837c0.168-0.408,0.547-0.625,1.14-0.648
					c-0.173-0.219-0.277-0.422-0.315-0.61c-0.037-0.187-0.019-0.372,0.057-0.555c0.106-0.259,0.287-0.427,0.541-0.501
					C301.974,94.397,302.262,94.425,302.583,94.556z M300.694,96.962c-0.08,0.195-0.074,0.376,0.017,0.541
					c0.091,0.165,0.261,0.298,0.507,0.399c0.242,0.099,0.455,0.12,0.637,0.062c0.182-0.059,0.314-0.188,0.395-0.387
					c0.065-0.157,0.059-0.324-0.018-0.499c-0.076-0.176-0.249-0.386-0.518-0.632c-0.285,0.006-0.509,0.049-0.67,0.131
					C300.882,96.657,300.766,96.786,300.694,96.962z M302.442,94.885c-0.203-0.084-0.383-0.101-0.538-0.051
					c-0.155,0.051-0.268,0.157-0.335,0.32c-0.061,0.149-0.065,0.298-0.014,0.444c0.053,0.147,0.186,0.328,0.4,0.542
					c0.273-0.002,0.48-0.04,0.625-0.113c0.143-0.071,0.245-0.184,0.307-0.333c0.067-0.165,0.062-0.319-0.016-0.465
					C302.792,95.084,302.649,94.969,302.442,94.885z"/>
				<path style="fill:#F2F2F2;" d="M311.567,100.082c-0.573,1.397-1.401,1.875-2.482,1.431c-0.189-0.077-0.332-0.155-0.431-0.233
					l0.144-0.349c0.113,0.095,0.252,0.177,0.419,0.245c0.391,0.16,0.735,0.16,1.034,0.001c0.3-0.161,0.561-0.487,0.783-0.979
					l-0.029-0.012c-0.145,0.098-0.307,0.152-0.484,0.162c-0.177,0.01-0.358-0.022-0.544-0.099c-0.316-0.13-0.527-0.327-0.636-0.593
					c-0.109-0.265-0.093-0.566,0.046-0.905c0.152-0.372,0.376-0.622,0.673-0.753c0.295-0.129,0.613-0.125,0.951,0.015
					c0.243,0.1,0.429,0.249,0.56,0.447c0.13,0.199,0.196,0.439,0.196,0.717C311.765,99.456,311.7,99.758,311.567,100.082z
					 M310.868,98.36c-0.232-0.096-0.443-0.095-0.632,0.003c-0.189,0.099-0.338,0.28-0.448,0.548
					c-0.096,0.234-0.112,0.443-0.05,0.626c0.063,0.183,0.212,0.322,0.452,0.421c0.148,0.061,0.297,0.087,0.446,0.077
					c0.149-0.009,0.281-0.051,0.396-0.126c0.114-0.074,0.195-0.17,0.242-0.283c0.07-0.172,0.102-0.343,0.094-0.516
					c-0.008-0.172-0.053-0.324-0.139-0.456C311.143,98.521,311.023,98.422,310.868,98.36z"/>
				<path style="fill:#F2F2F2;" d="M314.909,99.612c0.326,0.134,0.554,0.315,0.683,0.545c0.128,0.23,0.138,0.478,0.028,0.745
					c-0.072,0.176-0.193,0.314-0.361,0.415c-0.169,0.1-0.397,0.16-0.686,0.181c0.233,0.258,0.38,0.487,0.439,0.69
					c0.061,0.202,0.049,0.402-0.033,0.604c-0.122,0.297-0.322,0.491-0.602,0.583c-0.279,0.092-0.6,0.063-0.959-0.084
					c-0.381-0.156-0.641-0.36-0.777-0.611c-0.137-0.251-0.143-0.53-0.018-0.836c0.168-0.409,0.549-0.625,1.141-0.649
					c-0.173-0.219-0.277-0.422-0.315-0.609c-0.037-0.188-0.019-0.372,0.057-0.555c0.107-0.26,0.286-0.427,0.541-0.502
					C314.301,99.452,314.589,99.48,314.909,99.612z M313.021,102.018c-0.08,0.195-0.074,0.375,0.017,0.541
					c0.092,0.164,0.261,0.297,0.506,0.397c0.242,0.1,0.455,0.12,0.637,0.062c0.183-0.059,0.314-0.187,0.396-0.386
					c0.065-0.157,0.058-0.325-0.019-0.499c-0.077-0.176-0.249-0.387-0.518-0.632c-0.285,0.005-0.508,0.048-0.669,0.13
					C313.21,101.712,313.093,101.842,313.021,102.018z M314.769,99.94c-0.203-0.083-0.383-0.1-0.538-0.05
					c-0.156,0.05-0.268,0.157-0.334,0.319c-0.061,0.15-0.066,0.299-0.016,0.445c0.053,0.147,0.186,0.327,0.401,0.541
					c0.272-0.002,0.48-0.04,0.624-0.112c0.143-0.072,0.246-0.184,0.307-0.333c0.068-0.165,0.063-0.32-0.016-0.465
					C315.12,100.14,314.976,100.025,314.769,99.94z"/>
				<path style="fill:#F2F2F2;" d="M319.292,103.25c-0.572,1.397-1.4,1.875-2.482,1.431c-0.189-0.077-0.332-0.155-0.43-0.233
					l0.144-0.349c0.112,0.095,0.252,0.177,0.418,0.245c0.392,0.16,0.736,0.16,1.035,0.001c0.299-0.16,0.56-0.486,0.782-0.979
					l-0.029-0.012c-0.145,0.098-0.307,0.152-0.483,0.162c-0.177,0.011-0.358-0.022-0.544-0.099c-0.316-0.13-0.528-0.327-0.637-0.593
					c-0.108-0.265-0.093-0.566,0.047-0.905c0.152-0.372,0.376-0.622,0.672-0.752c0.295-0.13,0.613-0.126,0.952,0.014
					c0.243,0.1,0.429,0.249,0.56,0.448c0.13,0.198,0.195,0.438,0.195,0.717C319.491,102.624,319.425,102.926,319.292,103.25z
					 M318.593,101.528c-0.233-0.096-0.443-0.094-0.633,0.004c-0.188,0.098-0.337,0.279-0.446,0.547
					c-0.097,0.234-0.113,0.443-0.051,0.626c0.061,0.183,0.213,0.323,0.451,0.421c0.148,0.061,0.297,0.087,0.447,0.077
					c0.149-0.009,0.281-0.051,0.395-0.126c0.115-0.074,0.196-0.169,0.243-0.283c0.069-0.171,0.101-0.343,0.094-0.516
					c-0.008-0.172-0.054-0.324-0.139-0.456C318.868,101.689,318.748,101.591,318.593,101.528z"/>
				<path style="fill:#F2F2F2;" d="M323.068,105.098c-0.253,0.618-0.54,1.039-0.858,1.264c-0.32,0.225-0.68,0.256-1.081,0.091
					c-0.384-0.157-0.613-0.434-0.685-0.827c-0.072-0.395,0.015-0.893,0.262-1.496c0.255-0.622,0.541-1.044,0.859-1.266
					c0.316-0.223,0.674-0.252,1.071-0.088c0.389,0.159,0.618,0.436,0.69,0.833C323.399,104.006,323.313,104.502,323.068,105.098z
					 M321.116,104.297c-0.213,0.521-0.307,0.924-0.282,1.211c0.025,0.287,0.171,0.486,0.438,0.596
					c0.272,0.11,0.517,0.071,0.736-0.12c0.22-0.19,0.435-0.543,0.646-1.056c0.21-0.514,0.304-0.914,0.281-1.202
					c-0.023-0.288-0.171-0.488-0.442-0.6c-0.267-0.109-0.51-0.071-0.728,0.114C321.546,103.426,321.329,103.778,321.116,104.297z"/>
				<path style="fill:#F2F2F2;" d="M331.533,108.57c-0.253,0.617-0.54,1.038-0.859,1.264c-0.319,0.225-0.68,0.255-1.081,0.091
					c-0.384-0.158-0.613-0.434-0.684-0.828c-0.072-0.394,0.015-0.893,0.262-1.495c0.255-0.622,0.542-1.045,0.859-1.267
					c0.317-0.222,0.675-0.251,1.071-0.088c0.389,0.159,0.618,0.438,0.691,0.834C331.864,107.477,331.777,107.973,331.533,108.57z
					 M329.58,107.769c-0.213,0.521-0.307,0.924-0.282,1.211c0.025,0.286,0.172,0.485,0.439,0.595
					c0.271,0.111,0.517,0.071,0.736-0.119c0.22-0.191,0.435-0.543,0.645-1.057c0.211-0.513,0.305-0.913,0.281-1.201
					c-0.023-0.288-0.171-0.489-0.441-0.6c-0.267-0.109-0.51-0.071-0.729,0.113C330.009,106.897,329.794,107.249,329.58,107.769z"/>
				<path style="fill:#F2F2F2;" d="M335.146,111.186l-0.53-0.218l-0.336,0.82l-0.389-0.159l0.336-0.82l-1.737-0.713l0.145-0.354
					l2.688-1.721l0.43,0.176l-0.985,2.402l0.53,0.218L335.146,111.186z M334.379,110.44l0.487-1.188
					c0.096-0.233,0.212-0.493,0.348-0.779l-0.018-0.008c-0.143,0.123-0.269,0.224-0.38,0.298l-1.768,1.13L334.379,110.44z"/>
				<path style="fill:#F2F2F2;" d="M338.167,110.833c0.376,0.154,0.635,0.369,0.773,0.645c0.139,0.274,0.143,0.574,0.01,0.898
					c-0.152,0.37-0.389,0.612-0.711,0.726c-0.32,0.113-0.689,0.085-1.103-0.084c-0.402-0.166-0.683-0.355-0.842-0.571l0.161-0.391
					c0.083,0.12,0.201,0.235,0.354,0.347c0.152,0.111,0.311,0.2,0.476,0.267c0.286,0.117,0.537,0.142,0.751,0.07
					c0.215-0.069,0.374-0.232,0.479-0.488c0.204-0.498,0.001-0.873-0.61-1.123c-0.154-0.064-0.371-0.125-0.649-0.185l-0.155-0.22
					l0.82-1.617l1.776,0.729l-0.153,0.375l-1.43-0.587l-0.53,1.036C337.786,110.7,337.981,110.757,338.167,110.833z"/>
				<path style="fill:#F2F2F2;" d="M340.684,112.631c0.289-0.702,0.641-1.171,1.056-1.407c0.415-0.235,0.891-0.244,1.426-0.024
					c0.184,0.075,0.322,0.15,0.415,0.225l-0.143,0.35c-0.109-0.092-0.244-0.172-0.405-0.238c-0.383-0.157-0.724-0.156-1.025-0.001
					c-0.3,0.155-0.564,0.485-0.794,0.989l0.03,0.012c0.293-0.207,0.635-0.23,1.022-0.072c0.321,0.132,0.534,0.333,0.64,0.602
					c0.105,0.27,0.09,0.571-0.047,0.903c-0.152,0.371-0.374,0.621-0.663,0.751c-0.291,0.129-0.607,0.123-0.953-0.019
					c-0.37-0.151-0.607-0.41-0.71-0.777C340.431,113.558,340.481,113.127,340.684,112.631z M341.379,114.356
					c0.232,0.095,0.441,0.095,0.629,0.002c0.188-0.094,0.338-0.277,0.451-0.553c0.097-0.236,0.113-0.447,0.05-0.631
					c-0.064-0.184-0.214-0.324-0.45-0.422c-0.146-0.06-0.293-0.085-0.439-0.074c-0.146,0.01-0.278,0.053-0.395,0.129
					c-0.116,0.076-0.197,0.172-0.244,0.286c-0.068,0.167-0.101,0.337-0.095,0.509c0.005,0.172,0.052,0.324,0.136,0.458
					C341.108,114.194,341.227,114.293,341.379,114.356z"/>
			</g>
			<g>
				<path style="fill:#F2F2F2;" d="M274.951,72.406l1.01,0.414c0.474,0.194,0.788,0.405,0.94,0.634
					c0.155,0.229,0.168,0.496,0.043,0.803c-0.087,0.211-0.219,0.361-0.393,0.451c-0.174,0.09-0.383,0.107-0.626,0.056l-0.011,0.024
					c0.505,0.315,0.658,0.712,0.463,1.189c-0.131,0.319-0.341,0.523-0.63,0.614c-0.289,0.091-0.628,0.058-1.016-0.103l-1.246-0.51
					L274.951,72.406z M274.594,74.457l-0.549,1.336l0.746,0.307c0.288,0.117,0.528,0.15,0.72,0.1
					c0.191-0.053,0.337-0.197,0.434-0.435c0.091-0.222,0.084-0.415-0.023-0.58c-0.105-0.166-0.311-0.312-0.617-0.437L274.594,74.457
					z M274.739,74.106l0.685,0.28c0.293,0.12,0.523,0.16,0.689,0.121c0.168-0.038,0.295-0.168,0.385-0.386
					c0.082-0.201,0.069-0.375-0.037-0.522c-0.107-0.147-0.316-0.285-0.629-0.413l-0.612-0.252L274.739,74.106z"/>
				<path style="fill:#F2F2F2;" d="M279.975,78.639l0.022-1.318l-1.433-0.587l-0.905,0.956l-0.42-0.173l2.883-3.008l0.35,0.144
					l-0.066,4.163L279.975,78.639z M280.021,76.894l0.038-1.277c0.004-0.162,0.019-0.357,0.045-0.584
					c-0.1,0.142-0.222,0.292-0.365,0.452l-0.875,0.935L280.021,76.894z"/>
				<path style="fill:#F2F2F2;" d="M284.688,80.573l-0.474-0.194l-0.723-3.8l-0.02-0.008c-0.118,0.363-0.238,0.69-0.358,0.983
					l-0.833,2.031l-0.383-0.157l1.465-3.573l0.469,0.192l0.723,3.785l0.02,0.008c0.015-0.046,0.065-0.189,0.153-0.433
					c0.086-0.244,0.152-0.416,0.197-0.517l0.84-2.051l0.389,0.159L284.688,80.573z"/>
				<path style="fill:#F2F2F2;" d="M289.252,82.444l-0.489-0.2l-0.592-2.268l-0.51,0.179l-0.574,1.4l-0.416-0.17l1.466-3.572
					l0.415,0.17l-0.727,1.772l2.347-1.107l0.491,0.202l-2.073,0.962L289.252,82.444z"/>
			</g>
		</g>
		<g>
			<g>
				<path style="fill:#54B0B2;" d="M96.294,395.816c-8.266,0-14.99-6.724-14.99-14.99V94.85c0-8.266,6.724-14.99,14.99-14.99
					h202.978c8.266,0,14.99,6.725,14.99,14.99v285.975c0,8.266-6.724,14.99-14.99,14.99H96.294z"/>
			</g>
			<g>
				<path style="fill:#F2F2F2;" d="M299.272,386.366H96.294c-3.06,0-5.541-2.481-5.541-5.541V94.85c0-3.06,2.481-5.541,5.541-5.541
					h202.978c3.06,0,5.541,2.481,5.541,5.541v285.976C304.813,383.886,302.332,386.366,299.272,386.366z"/>
			</g>
			<g>
				<g>
					<g>
						<g>
							<g>
								<path style="fill:#60C0C0;" d="M163.253,235.938c-7.305,7.438-11.902,17.531-12.228,28.7h-32.909
									c0.326-20.248,8.62-38.573,21.872-51.966L163.253,235.938z"/>
							</g>
							<g>
								<path style="fill:#479AAD;" d="M192.5,190.236v32.9c-10.525,0.309-20.089,4.42-27.377,11.002l-23.283-23.283
									C155.1,198.344,172.887,190.563,192.5,190.236z"/>
							</g>
						</g>
						<g>
							<g>
								<path style="fill:#222753;" d="M223.802,235.938c7.305,7.438,11.902,17.531,12.228,28.7h32.909
									c-0.326-20.248-8.62-38.573-21.872-51.966L223.802,235.938z"/>
							</g>
							<g>
								<path style="fill:#0076BE;" d="M194.555,190.236v32.9c10.525,0.309,20.089,4.42,27.377,11.002l23.283-23.283
									C231.955,198.344,214.168,190.563,194.555,190.236z"/>
							</g>
						</g>
					</g>
					<g>
						<path style="fill:#222753;" d="M196.116,269.013c-2.544,1.295-5.657,0.282-6.952-2.262c-1.295-2.544-0.283-5.657,2.262-6.952
							c2.544-1.295,8.274-1.542,15.541-2.11C201.889,263.759,198.66,267.718,196.116,269.013z"/>
					</g>
				</g>
				<g>
					<g>
						<g>
							<path style="fill:#60C0C0;" d="M173.263,330.701c0,16.08-13.031,29.111-29.111,29.111c-16.075,0-29.111-13.031-29.111-29.111
								c0-10.489,5.554-19.686,13.878-24.812l13.332,26.358l29.222-11.622C172.633,323.764,173.263,327.159,173.263,330.701z"/>
						</g>
						<g>
							<path style="fill:#222753;" d="M154.886,293.13l-9.753,29.582l1.435-30.652c0.154-0.005,0.312-0.005,0.466-0.005
								C149.755,292.055,152.387,292.431,154.886,293.13z"/>
						</g>
						<g>
							<path style="fill:#0076BE;" d="M177.147,315.566l-29.222,11.622l9.753-29.582
								C166.69,300.121,173.933,306.866,177.147,315.566z"/>
						</g>
						<g>
							<path style="fill:#F29B89;" d="M143.514,294.179l-1.435,30.652l-13.332-26.358
								C133.051,295.826,138.108,294.264,143.514,294.179z"/>
						</g>
					</g>
					<g>
						<g>
							<rect x="189.053" y="360.166" style="fill:#222753;" width="84.923" height="1.723"/>
						</g>
						<g>
							<g>
								<rect x="198.478" y="337.557" style="fill:#F29B89;" width="11.881" height="22.61"/>
							</g>
							<g>
								<rect x="216.542" y="323.13" style="fill:#60C0C0;" width="11.881" height="37.036"/>
							</g>
							<g>
								<rect x="234.606" y="312.37" style="fill:#222753;" width="11.881" height="47.796"/>
							</g>
							<g>
								<rect x="252.67" y="296.645" style="fill:#60C0C0;" width="11.881" height="63.522"/>
							</g>
						</g>
					</g>
				</g>
				<g>
					<g>
						<rect x="180.669" y="113.786" style="fill:#222753;" width="59.995" height="10.712"/>
					</g>
					<g>
						<g>
							<rect x="180.669" y="139.17" style="fill:#60C0C0;" width="93.531" height="4.947"/>
						</g>
						<g>
							<g>
								<rect x="180.669" y="160.929" style="fill:#60C0C0;" width="55.941" height="4.947"/>
							</g>
							<g>
								<rect x="239.648" y="160.929" style="fill:#60C0C0;" width="37.21" height="4.947"/>
							</g>
						</g>
						<g>
							<g>
								<rect x="180.669" y="150.049" style="fill:#60C0C0;" width="35.564" height="4.947"/>
							</g>
							<g>
								<rect x="218.512" y="150.049" style="fill:#60C0C0;" width="64.421" height="4.947"/>
							</g>
						</g>
					</g>
					<g>
						<defs>
							<rect id="SVGID_1_" x="112.633" y="113.786" width="52.089" height="52.089"/>
						</defs>
						<clipPath id="SVGID_00000155867413309881539360000013946641916037051558_">
							<use xlink:href="#SVGID_1_"  style="overflow:visible;"/>
						</clipPath>
						<g style="clip-path:url(#SVGID_00000155867413309881539360000013946641916037051558_);">
							<rect x="106.227" y="109.513" style="fill:#60C0C0;" width="70.134" height="60.636"/>
						</g>
						<g style="clip-path:url(#SVGID_00000155867413309881539360000013946641916037051558_);">
							<g>
								<g>
									<path style="fill:#222753;" d="M160.515,176.396l1.138,18.786h-42.201l0.345-21.771c0,0-5.683,1.33-8.269,2.461
										c-2.588,1.134-1.122-7.155-1.122-7.155s1.992-19.619,21.576-24.54c2.066-0.519,4.368-0.763,6.547-0.763
										c2.732,0,5.309,0.263,7.711,0.805c11.104,2.497,18.52,10.892,20.747,26.342
										C169.252,186.26,160.515,176.396,160.515,176.396z"/>
								</g>
								<g>
									<path style="fill:#F2F2F2;" d="M145.087,195.182h-5.346c-0.429-10.502-3.581-36.714-7.759-51.004
										c0.329-0.143,4.735-0.763,6.547-0.763c2.331,0,4.547,0.192,6.64,0.584c0.361,0.066,0.719,0.14,1.071,0.221
										c-0.573,5.294-1.518,13.978-1.85,16.615C144.062,163.472,144.666,182.962,145.087,195.182z"/>
								</g>
								<g>
									<path style="fill:#F29B89;" d="M145.17,143.999c-1.251,2.359-3.4,5.68-5.386,5.681c-2.941,0.001-5.256-3.43-7.094-5.7
										c1.655-0.604,4.028-0.565,5.84-0.565C140.861,143.415,143.077,143.607,145.17,143.999z"/>
								</g>
								<g>
									<polygon style="fill:#F2F2F2;" points="130.995,166.015 126.916,156.589 129.757,154.092 127.595,152.489 127.594,152.438 
										127.444,145.655 127.652,145.65 127.801,152.382 130.088,154.078 127.167,156.645 131.186,165.932 									"/>
								</g>
								<g>
									<polygon style="fill:#F2F2F2;" points="147.617,167.451 147.426,167.368 151.445,158.08 148.524,155.514 150.807,153.821 
										150.412,145.986 150.62,145.975 151.021,153.921 148.855,155.527 151.696,158.024 151.666,158.094 									"/>
								</g>
								<g>
									<path style="fill:#0076BE;" d="M140.386,151.139c-1.342,0-2.57-0.384-2.655-0.411l0.064-0.198
										c0.034,0.011,3.385,1.058,5.015-0.304c1.16-0.968,1.904-2.751,1.911-2.769l0.192,0.079c-0.031,0.075-0.771,1.849-1.97,2.85
										C142.25,150.964,141.292,151.139,140.386,151.139z"/>
								</g>
								<g>
									<path style="fill:#F2F2F2;" d="M112.747,167.514l-0.012-0.208c0.418-0.024,10.229-0.574,12.282,0.004l-0.057,0.2
										C122.939,166.939,112.848,167.508,112.747,167.514z"/>
								</g>
								<g>
									<path style="fill:#F2F2F2;" d="M164.808,171.575c-1.537-1.773-10.767-4.042-10.86-4.064l0.05-0.202
										c0.382,0.093,9.388,2.307,10.968,4.13L164.808,171.575z"/>
								</g>
							</g>
							<g>
								<g>
									<path style="fill:#F29B89;" d="M111.529,175.872c0,0,1.213,5.551,2.304,7.02c1.091,1.469,5.336,1.348,8.125,1.105
										c2.789-0.243,23.212-5.7,23.212-5.7l-6.411-8.999l-18.014,3.825C120.745,173.124,118.002,173.71,111.529,175.872z"/>
								</g>
								<g>
									<path style="fill:#F29B89;" d="M126.323,172.287c0,0.78,1.552-6.677,4.767-6.313c3.214,0.364,8.572,0.197,10.634,0.682
										c2.062,0.485,9.459,3.931,9.58,3.906c0.121-0.025,12.645,8.042,12.645,8.042s-3.88,3.562-5.49,4.181
										c-2.127,0.818-5.821,0.485-9.095-0.606s-14-8.265-15.672-9.216C130.827,171.334,126.323,172.287,126.323,172.287z"/>
								</g>
								<g>
									<path style="fill:#002E55;" d="M143.196,179.024c-0.034-0.021-3.414-2.099-4.218-2.605
										c-0.934-0.587-5.922-3.65-7.099-4.033c-1.157-0.376-5.114-0.382-5.359-0.382c-0.006,0-0.01,0-0.012,0v-0.208
										c0.166-0.004,4.215-0.004,5.435,0.392c1.341,0.436,7.088,4.02,7.145,4.056c0.803,0.505,4.183,2.582,4.217,2.602
										L143.196,179.024z"/>
								</g>
							</g>
							<g>
								<g>
									<path style="fill:#002E55;" d="M129.099,125.85c0,0-4.317,10.879-2.776,12.698c3.076,3.628,18.092,4.216,22.613,1.278
										c3.323-2.159-0.692-13.844-1.415-15.056C146.664,123.332,129.099,125.85,129.099,125.85z"/>
								</g>
								<g>
									<g>
										<polygon style="fill:#F29B89;" points="134.833,132.917 133.692,144.178 144.069,144.178 143.043,132.917 										"/>
									</g>
									<g>
										<path style="fill:#002E55;" d="M143.262,135.322c0,0-2.058,2.392-4.468,2.109c-2.051-0.241-4.251-1.656-4.251-1.656
											s2.152,2.876,4.49,3.156c1.893,0.227,4.49-0.74,4.49-0.74L143.262,135.322z"/>
									</g>
								</g>
								<g>
									<path style="fill:#F29B89;" d="M145.443,127.608c0,4.974-2.021,9.823-6.367,9.823c-4.576,0-7.7-4.485-7.7-9.459
										c0-4.974,4.089-8.084,7.316-8.084C141.92,119.888,145.443,122.634,145.443,127.608z"/>
								</g>
								<g>
									<path style="fill:#002E55;" d="M141.377,123.107c-0.342-0.517-1.092-0.541-1.471-0.05c-0.424,0.55-0.906,1.176-1.147,1.497
										c-0.485,0.647-1.538,1.036-3.425,1.305c-1.683,0.24-3.513,0.173-3.635,1.345c-0.121,1.172-0.323,3.436-0.323,3.436
										s-0.729-0.624-1.324-2.152c-0.403-1.035-0.997-1.559-0.98-1.95c0.04-0.97,0.09-1.364,1.011-3.052
										c1.961-3.598,5.16-5.134,7.302-5.255s3.046,0.283,3.935,1.01c2.203-0.728,5.184,0.386,5.611,2.771
										c0.207,1.153,0.943,2.487,1.384,4.726c0.209,1.06-2.09,1.271-2.375,2.588c-0.079,0.364-0.699,0.322-0.749,0.282
										c-0.05-0.04-0.167-2.612-0.84-3.13C143.084,125.502,142.021,124.081,141.377,123.107z"/>
								</g>
								<g>
									<g>
										<path style="fill:#F29B89;" d="M131.841,129.67c0,0-1.031-0.788-1.637,0c-0.606,0.788-0.624,1.784,0.103,2.269
											c0.728,0.485,2.218,0.542,2.218,0.542L131.841,129.67z"/>
									</g>
									<g>
										<path style="fill:#002E55;" d="M130.42,130.827l-0.205-0.037c0.043-0.232,0.155-0.407,0.335-0.518
											c0.395-0.246,0.972-0.084,0.997-0.076l-0.058,0.2c-0.005-0.002-0.516-0.145-0.831,0.053
											C130.53,130.529,130.452,130.652,130.42,130.827z"/>
									</g>
									<g>
										<polygon style="fill:#002E55;" points="131.286,131.301 130.714,130.33 130.894,130.225 131.466,131.196 										"/>
									</g>
								</g>
								<g>
									<path style="fill:#002E55;" d="M138.759,132.321c-0.937,0-1.416-0.347-1.424-1.033c-0.005-0.432,0.725-0.686,0.975-0.76
										l0.098-1.58l0.208,0.013l-0.108,1.729l-0.073,0.019c-0.347,0.091-0.895,0.328-0.893,0.578
										c0.004,0.354,0.135,0.827,1.216,0.827V132.321z"/>
								</g>
								<g>
									<g>
										<path style="fill:#002E55;" d="M136.062,128.955c0,0.329-0.163,0.596-0.364,0.596s-0.364-0.267-0.364-0.596
											s0.163-0.596,0.364-0.596S136.062,128.625,136.062,128.955z"/>
									</g>
									<g>
										<path style="fill:#002E55;" d="M136.669,127.77c-0.636-0.219-1.326-0.247-1.984-0.08
											c-0.158,0.039-0.326-0.013-0.375-0.132l0,0c-0.049-0.118,0.055-0.282,0.239-0.345c0.745-0.252,1.55-0.28,2.316-0.08
											c0.19,0.048,0.282,0.248,0.209,0.425l0,0C137.001,127.735,136.821,127.823,136.669,127.77z"/>
									</g>
								</g>
								<g>
									<g>
										<path style="fill:#F29B89;" d="M145.1,129.67c0,0,1.031-0.788,1.637,0c0.606,0.788,0.624,1.784-0.104,2.269
											c-0.728,0.485-2.218,0.542-2.218,0.542L145.1,129.67z"/>
									</g>
									<g>
										<path style="fill:#002E55;" d="M146.521,130.827c-0.032-0.174-0.11-0.298-0.239-0.378
											c-0.318-0.196-0.825-0.054-0.83-0.052l-0.058-0.2c0.025-0.007,0.602-0.169,0.997,0.076
											c0.179,0.111,0.292,0.285,0.334,0.518L146.521,130.827z"/>
									</g>
									<g>
										<polygon style="fill:#002E55;" points="145.654,131.301 145.475,131.196 146.046,130.225 146.226,130.33 										"/>
									</g>
								</g>
								<g>
									<g>
										<ellipse style="fill:#002E55;" cx="141.243" cy="128.955" rx="0.364" ry="0.596"/>
									</g>
									<g>
										<path style="fill:#002E55;" d="M140.272,127.77c0.636-0.219,1.326-0.247,1.984-0.08c0.158,0.039,0.326-0.013,0.376-0.132
											l0,0c0.049-0.118-0.055-0.282-0.239-0.345c-0.745-0.252-1.55-0.28-2.317-0.08c-0.19,0.048-0.282,0.248-0.209,0.425l0,0
											C139.94,127.735,140.12,127.823,140.272,127.77z"/>
									</g>
								</g>
								<g>
									<path style="fill:#FFFFFF;" d="M137.055,133.065c0,0,1.59,0.728,2.88,0.303c-0.152,0.91-0.955,1.288-1.526,1.18
										C137.025,134.286,137.055,133.065,137.055,133.065z"/>
								</g>
							</g>
						</g>
					</g>
				</g>
			</g>
		</g>
		<g>
			<g>
				<g>
					<path style="fill:#F2F2F2;" d="M345.616,440.583l-2.852,19.012c-0.299,1.99-2.008,3.462-4.02,3.462h-43.875
						c0,0,0.886-6.017,2.657-6.051c15.497-0.295,26.554-15.202,26.554-15.202L345.616,440.583z"/>
				</g>
				<g>
					<path style="fill:#F2F2F2;" d="M372.264,440.583l-0.261,18.719c-0.029,2.065,1.637,3.755,3.703,3.755h44.065
						c0,0-0.894-6.074-2.682-6.108c-15.642-0.298-26.803-15.344-26.803-15.344L372.264,440.583z"/>
				</g>
				<g>
					<polygon style="fill:#222753;" points="335.881,293.547 313.719,448.783 346.774,448.783 365.061,308.159 367.814,308.43 
						368.974,448.811 400.338,448.811 400.142,293.547 					"/>
				</g>
				<g>
					<polygon style="fill:#F2F2F2;" points="394.495,438.847 374.849,438.847 374.849,438.468 394.11,438.468 391.888,302.18 
						392.266,302.174 					"/>
				</g>
				<g>
					<path style="fill:#F2F2F2;" d="M345.617,438.847H318.81l0.027-0.214c0.046-0.352,4.652-35.689,9.368-70.627
						c9.556-70.799,10.215-71.012,10.531-71.114l0.114-0.036l0.104,0.094l-0.144,0.136l0.006-0.006v0.012l0.103,0.116
						c-1.243,1.816-13.4,93.067-19.681,141.261h26.377V438.847z M338.801,297.095l-0.121,0.113L338.801,297.095z"/>
				</g>
				<g>
					<polygon style="fill:#F2F2F2;" points="369.027,302.955 364.034,302.344 364.034,291.395 364.413,291.395 364.413,302.01 
						369.074,302.58 					"/>
				</g>
			</g>
			<g>
				<g>
					<path style="fill:#222753;" d="M285.268,224.224c0,0,0.95-12.717,20.944-15.589
						C309.154,221.646,285.268,224.224,285.268,224.224z"/>
				</g>
				<g>
					<g>
						<path style="fill:#F29B89;" d="M292.563,224.769c-0.271-0.618-7.332-9.579-8.455-10.696
							c-1.123-1.118-6.891-10.198-7.279-11.527c-0.514-1.761-0.849-3.371,0.86-3.76c-0.568-1.234-0.583-2.292-0.583-2.292
							s-0.075-2.044,2.026-1.529c-0.45-1.67,0.468-2.994,2.511-2.095c0.191-1.019,0.965-1.392,0.965-1.392s1.25-0.28,2.279,1.017
							c1.057,1.333,8.549,10.792,8.902,10.758c1.482-0.14,0.903-2.861,0.999-4.146c0.096-1.285-0.644-5.217,0.917-5.359
							c1.561-0.142,2.333,1.603,2.414,3.084c0.482,8.809,7.054,18.371,7.054,18.371L292.563,224.769z"/>
					</g>
					<g>
						<path style="fill:#222753;" d="M289.528,203.218c-1.293-1.41-7.76-9.875-8.034-10.234l0.301-0.23
							c0.067,0.088,6.73,8.811,8.013,10.208L289.528,203.218z"/>
					</g>
					<g>
						
							<rect x="283.108" y="193.584" transform="matrix(0.802 -0.5973 0.5973 0.802 -63.7036 208.9376)" style="fill:#222753;" width="0.378" height="13.944"/>
					</g>
					<g>
						
							<rect x="280.262" y="197.91" transform="matrix(0.8174 -0.576 0.576 0.8174 -65.5613 198.5603)" style="fill:#222753;" width="0.378" height="9.589"/>
					</g>
				</g>
				<g>
					<path style="fill:#0076BE;" d="M285.285,224.2c6.564,12.981,22.354,35.177,26.835,38.883
						c4.481,3.705,12.845,3.761,16.921,2.281c4.076-1.48,18.19-24.243,17.783-27.842c-0.407-3.599-0.375-43.22-11.563-43.231
						c-3.777,4.652-9.827,34.639-11.081,39.16c-1.266,4.565-3.968,0.034-3.968,0.034l-13.985-24.873
						C306.228,208.611,302.339,221.509,285.285,224.2z"/>
				</g>
			</g>
			<g>
				<g>
					<polygon style="fill:#0076BE;" points="408.074,237.29 413.721,303.261 376.188,306.682 376.102,290.758 358.836,288.584 
						357.65,305.353 324.104,303.074 335.244,194.315 356.287,186.838 356.925,186.612 370.726,181.706 385.846,187.038 
						413.997,196.963 					"/>
				</g>
				<g>
					<polygon style="fill:#F2F2F2;" points="352.154,237.355 345.565,219.572 351.16,214.405 343.358,212.364 343.376,212.202 
						345.546,191.844 345.921,191.884 343.768,212.08 351.923,214.215 346.007,219.678 352.507,237.224 					"/>
				</g>
				<g>
					<polygon style="fill:#F2F2F2;" points="380.491,234.24 380.145,234.089 387.41,217.521 380.324,212.051 388.609,209.417 
						394.505,192.682 394.863,192.808 388.902,209.72 388.813,209.748 381.127,212.192 387.875,217.402 387.815,217.537 					"/>
				</g>
				<g>
					<path style="fill:#F2F2F2;" d="M330.734,253.461l-0.375-0.053c0.034-0.237,3.375-23.809,3.913-31.006l0.377,0.028
						C334.11,229.64,330.767,253.224,330.734,253.461z"/>
				</g>
			</g>
			<g>
				<g>
					<path style="fill:#F2F2F2;" d="M377.841,208.537c-8.524,23.681-1.707,64.136-1.894,80.448c-0.026,2.283,0.38,8.094,0.38,8.094
						l-17.976-2.251c0,0,1.321-24.184,0.484-47.039c-0.636-17.381-3.451-34.058-3.615-38.365
						c-0.202-5.287,0.721-16.771,1.066-22.586l0.638-0.227l13.801-4.906l15.12,5.332c-0.639,1.614-1.409,3.601-2.333,6.055
						C382.051,196.971,380.192,202.001,377.841,208.537z"/>
				</g>
				<g>
					<path style="fill:#F29B89;" d="M385.846,187.038c-0.64,1.614-1.409,3.602-2.334,6.056c-5.22,3.168-13.687,7.874-17.513,7.619
						c-5.206-0.347-8.043-9.767-9.074-14.102l13.802-4.905L385.846,187.038z"/>
				</g>
				<g>
					<path style="fill:#0076BE;" d="M367.429,204.449c-0.886,0-1.741-0.127-2.564-0.381c-4.214-1.3-6.074-5.563-6.093-5.606
						l0.348-0.148c0.018,0.042,1.814,4.148,5.86,5.395c2.859,0.882,6.146,0.153,9.768-2.162l0.203,0.318
						C372.26,203.585,369.741,204.449,367.429,204.449z"/>
				</g>
			</g>
			<g>
				<g>
					<path style="fill:#222753;" d="M388.37,276.804l-31.535,5.251c-0.626,0.104-1.219-0.319-1.323-0.945l-7.87-47.27
						c-0.104-0.626,0.319-1.219,0.945-1.323l31.535-5.251c0.626-0.104,1.219,0.319,1.323,0.945l7.87,47.27
						C389.42,276.107,388.996,276.7,388.37,276.804z"/>
				</g>
				<g>
					<g>
						<g>
							<path style="fill:#F29B89;" d="M365.079,252.641c0,0-6.262-1.147-8.772-1.349c-5.173-0.417-8.921,2.638-6.624,3.735
								c2.297,1.097,5.239,0.696,6.39,0.725c1.336,0.034,2.846-0.052,2.304,1.89c-0.542,1.942-3.585,1.979-5.395,1.447
								c-1.811-0.532-2.209-2.28-3.835-1.741c-1.626,0.539-0.931,6.678-0.341,8.103c1.204,2.907,2.064,6.433,4.088,7.641
								c2.025,1.209,17.389-3.195,17.389-3.195L365.079,252.641z"/>
						</g>
						<g>
							<path style="fill:#222753;" d="M352.831,263.851c-0.182-0.076-0.472-0.135-0.808-0.201c-1.221-0.244-3.065-0.613-4.115-2.514
								l0.33-0.184c0.966,1.748,2.707,2.096,3.859,2.326c0.355,0.071,0.663,0.133,0.88,0.223L352.831,263.851z"/>
						</g>
						<g>
							<path style="fill:#222753;" d="M352.593,267.577c-0.112-0.021-2.772-0.511-4.083-2.436l0.313-0.213
								c1.222,1.794,3.811,2.271,3.837,2.275L352.593,267.577z"/>
						</g>
						<g>
							<path style="fill:#222753;" d="M352.393,270.258c-0.615,0-1.949-0.12-2.379-1.119l0.348-0.148
								c0.444,1.032,2.29,0.883,2.313,0.879l0.034,0.377C352.689,270.248,352.571,270.258,352.393,270.258z"/>
						</g>
					</g>
					<g>
						<g>
							<path style="fill:#0076BE;" d="M362.347,249.611c6.536,8.948,6.444,24.075,6.444,24.075l46.783-10.233
								c0,0,11.229-1.691,10.665-10.061s-7.191-47.924-12.24-56.429c-5.437-2.674-22.148,9.845-22.148,9.845l7.061,29.979
								c0.587,2.492-0.979,4.983-3.479,5.534C395.43,242.321,377.016,247.01,362.347,249.611z"/>
						</g>
						<g>
							<path style="fill:#F2F2F2;" d="M384.356,244.955l-0.082-0.369l11.115-2.449c0.052-0.01,4.63-0.922,4.236-3.907
								c-0.559-4.246-2.406-14.7-2.96-17.802c-0.041-0.234-0.198-0.429-0.421-0.522c-0.203-0.084-0.422-0.064-0.596,0.056
								c-0.29,0.201-0.367,0.596-0.231,1.176l-0.367,0.087c-0.22-0.929,0.088-1.369,0.384-1.573c0.282-0.196,0.631-0.23,0.956-0.094
								c0.342,0.142,0.584,0.443,0.648,0.804c0.553,3.105,2.401,13.565,2.962,17.819c0.441,3.339-4.485,4.318-4.535,4.327
								L384.356,244.955z"/>
						</g>
						<g>
							
								<rect x="388.807" y="267.466" transform="matrix(0.9805 -0.1963 0.1963 0.9805 -44.8189 83.1614)" style="fill:#F2F2F2;" width="16.53" height="0.378"/>
						</g>
					</g>
				</g>
			</g>
			<g>
				<g>
					<path style="fill:#F29B89;" d="M356.792,145.296c0,0-2.786,16.058-2.622,21.82c0.164,5.762,1.453,9.742,4.542,9.973
						c6.136,0.458,20.124-5.751,20.124-5.751l1.813-24.26L356.792,145.296z"/>
				</g>
				<g>
					<polygon style="fill:#F29B89;" points="362.236,173.27 360.969,190.226 380.024,191.65 378.836,171.338 					"/>
				</g>
				<g>
					<path style="fill:#222753;" d="M353.961,143.374c1.361-5.674,4.32-6.597,7.527-6.542c2.035,0.035,4.365,3.944,10.392,2.214
						c5.926-1.701,2.454,4.189,7.577,3.962c4.443-0.197,6.686,4.626,6.754,5.684c0.256,3.984-1.373,4.273-2.256,11.182
						c-0.864,6.757,1.347,9.669-1.128,12.886c-1.33,1.729-3.569,3.15-4.685,2.558c-0.571-0.303-1.224-0.982-1.02-7.577
						c0.15-4.834,1.036-4.662,0.365-6.523c-0.761-2.11-3.023-2.043-3.119-5.114c-0.13-4.17-0.973-5.597-2.367-6.739
						c-1.562-1.28-5.017-0.524-8.439-0.01c-1.16,0.174-3.555,0.798-5.667,0.453C355.591,149.431,352.903,147.788,353.961,143.374z"
						/>
				</g>
				<g>
					<g>
						<path style="fill:#F3A696;" d="M376.153,164.696c0,0,3.439-0.618,4.077-1.767s0.018-3.706-1.467-3.687
							c-1.485,0.02-3.548,0.374-3.548,0.374L376.153,164.696z"/>
					</g>
					<g>
						<path style="fill:#222753;" d="M379.275,161.622l-0.377-0.028c0.017-0.22-0.039-0.378-0.169-0.479
							c-0.434-0.34-1.569-0.076-1.971,0.054l-0.117-0.359c0.166-0.054,1.651-0.517,2.321,0.008
							C379.123,160.943,379.307,161.185,379.275,161.622z"/>
					</g>
					<g>
						<path style="fill:#222753;" d="M377.861,162.794l-0.315-0.211c0.104-0.153,0.482-1.147,0.697-1.737l0.356,0.129
							C378.504,161.237,378.02,162.557,377.861,162.794z"/>
					</g>
				</g>
				<g>
					<path style="fill:#FFFFFF;" d="M362.338,166.328c-2.979,1.066-4.117,0.004-4.117,0.004s0.237,2.128,1.59,2.229
						C361.732,168.705,362.338,166.328,362.338,166.328z"/>
				</g>
				<g>
					<path style="fill:#222753;" d="M361.028,163.726c-0.665,0-1.598-0.211-2.053-0.866c-0.138-0.198,0.029-0.423,0.363-0.872
						c0.434-0.583,1.089-1.464,1.305-2.562l0.371,0.073c-0.232,1.181-0.946,2.141-1.373,2.714c-0.133,0.18-0.282,0.38-0.324,0.473
						c0.533,0.695,1.818,0.726,2.179,0.607l0.119,0.358C361.479,163.698,361.271,163.726,361.028,163.726z"/>
				</g>
				<g>
					<path style="fill:#222753;" d="M358.429,158.829c-0.107,0.484-0.48,0.814-0.835,0.735c-0.354-0.078-0.555-0.534-0.448-1.018
						c0.107-0.484,0.48-0.814,0.835-0.736C358.335,157.888,358.536,158.344,358.429,158.829z"/>
				</g>
				<g>
					<path style="fill:#222753;" d="M365.98,159.393c-0.107,0.484-0.48,0.814-0.835,0.735c-0.354-0.078-0.555-0.534-0.448-1.018
						c0.107-0.484,0.48-0.814,0.835-0.735C365.887,158.452,366.087,158.908,365.98,159.393z"/>
				</g>
				<g>
					<path style="fill:#222753;" d="M360.02,156.477l-3.196,0.097c-0.3,0.009-0.55-0.226-0.559-0.526l0,0
						c-0.009-0.3,0.227-0.55,0.526-0.559l3.196-0.098c0.3-0.009,0.55,0.227,0.559,0.526l0,0
						C360.555,156.217,360.32,156.468,360.02,156.477z"/>
				</g>
				<g>
					<path style="fill:#222753;" d="M364.162,156.786l3.146,0.571c0.295,0.053,0.578-0.142,0.631-0.437l0,0
						c0.054-0.295-0.142-0.578-0.437-0.631l-3.146-0.571c-0.295-0.054-0.578,0.142-0.631,0.437l0,0
						C363.671,156.45,363.867,156.733,364.162,156.786z"/>
				</g>
				<g>
					<polygon style="fill:#222753;" points="361.656,181.029 372.315,174.384 361.521,177.257 					"/>
				</g>
			</g>
		</g>
	</g>
</g>
</svg>
