<?xml version="1.0" encoding="utf-8"?>
<!-- Generator: Adobe Illustrator 27.5.0, SVG Export Plug-In . SVG Version: 6.00 Build 0)  -->
<svg version="1.1" xmlns="http://www.w3.org/2000/svg" xmlns:xlink="http://www.w3.org/1999/xlink" x="0px" y="0px"
	 viewBox="0 0 500 500" style="enable-background:new 0 0 500 500;" xml:space="preserve">
<g id="BACKGROUND">
	<rect style="fill:#FFFFFF;" width="500" height="500"/>
</g>
<g id="OBJECTS">
	<g>
		<radialGradient id="SVGID_1_" cx="253.4502" cy="96.4494" r="341.3507" gradientUnits="userSpaceOnUse">
			<stop  offset="0" style="stop-color:#9BB4BF"/>
			<stop  offset="0.1299" style="stop-color:#B0C4CD"/>
			<stop  offset="0.3751" style="stop-color:#D2DDE2"/>
			<stop  offset="0.6078" style="stop-color:#EBF0F2"/>
			<stop  offset="0.8209" style="stop-color:#FAFBFC"/>
			<stop  offset="0.996" style="stop-color:#FFFFFF"/>
		</radialGradient>
		<path style="fill:url(#SVGID_1_);" d="M254.614,23.779c-103.327,0-187.09,83.763-187.09,187.091
			c0,103.327,83.763,187.09,187.09,187.09s187.09-83.763,187.09-187.09C441.704,107.542,357.941,23.779,254.614,23.779z
			 M254.614,336.338c-69.294,0-125.468-56.175-125.468-125.469c0-69.294,56.174-125.468,125.468-125.468
			c69.294,0,125.468,56.173,125.468,125.468C380.082,280.163,323.908,336.338,254.614,336.338z"/>
		<g>
			<g style="opacity:0.15;">
				<path d="M135.739,127.236c-8.941,9.853-24.178,10.592-34.031,1.65c-9.853-8.942-10.592-24.179-1.65-34.032
					c8.941-9.853,24.178-10.592,34.031-1.65C143.942,102.146,144.681,117.382,135.739,127.236z"/>
				<path d="M132.038,123.877c-7.087,7.809-19.163,8.395-26.972,1.308c-7.809-7.087-8.395-19.162-1.308-26.971
					c7.087-7.809,19.163-8.395,26.972-1.308S139.125,116.068,132.038,123.877z"/>
				<rect x="91.813" y="129.513" transform="matrix(0.672 -0.7405 0.7405 0.672 -65.894 117.0369)" width="14.737" height="6.792"/>
				<path d="M90.925,149.73c-1.522,1.677-4.115,1.803-5.793,0.281l-1.613-1.464c-1.677-1.522-1.803-4.116-0.281-5.793l9.818-10.818
					c1.522-1.677,4.115-1.803,5.792-0.281l1.613,1.464c1.677,1.522,1.803,4.115,0.281,5.793L90.925,149.73z"/>
			</g>
			<g>
				<g>
					<path style="fill:#1B3067;" d="M131.739,123.236c-8.941,9.853-24.178,10.592-34.031,1.65
						c-9.853-8.942-10.592-24.179-1.65-34.032c8.941-9.853,24.178-10.592,34.031-1.65
						C139.942,98.146,140.681,113.382,131.739,123.236z"/>
					<path style="fill:#AFD7E9;" d="M128.038,119.877c-7.087,7.809-19.163,8.395-26.972,1.308
						c-7.809-7.087-8.395-19.162-1.308-26.971c7.087-7.809,19.163-8.395,26.972-1.308
						C134.539,99.992,135.125,112.068,128.038,119.877z"/>
					
						<rect x="87.813" y="125.513" transform="matrix(0.672 -0.7405 0.7405 0.672 -64.2438 112.7629)" style="fill:#1B3067;" width="14.737" height="6.792"/>
					<path style="fill:#1B3067;" d="M86.925,145.73c-1.522,1.677-4.115,1.803-5.793,0.281l-1.613-1.464
						c-1.677-1.522-1.803-4.116-0.281-5.793l9.818-10.818c1.522-1.677,4.115-1.803,5.792-0.281l1.613,1.464
						c1.677,1.522,1.803,4.115,0.281,5.793L86.925,145.73z"/>
				</g>
			</g>
		</g>
		<g>
			<g style="opacity:0.15;">
				<path d="M238.195,71.299c0,2.265-1.836,4.101-4.101,4.101h-64.503c-2.265,0-4.101-1.836-4.101-4.101V33.944
					c0-2.265,1.836-4.101,4.101-4.101h64.503c2.265,0,4.101,1.836,4.101,4.101V71.299z"/>
				<path d="M209.993,50.328l27.934-17.805c-0.54-1.455-1.875-2.505-3.482-2.643l-33.02,21.047l-32.783-20.961
					c-1.47,0.35-2.623,1.489-3.004,2.947l27.139,17.351l-27.255,21.346c0.115,1.503,1.027,2.774,2.326,3.389l28.591-22.393
					l4.984,3.186l4.905-3.126l28.828,22.579c1.425-0.383,2.537-1.505,2.901-2.937L209.993,50.328z"/>
			</g>
			<g>
				<g>
					<path style="fill:#1B3067;" d="M234.195,67.299c0,2.265-1.836,4.101-4.101,4.101h-64.503c-2.265,0-4.101-1.836-4.101-4.101
						V29.944c0-2.265,1.836-4.101,4.101-4.101h64.503c2.265,0,4.101,1.836,4.101,4.101V67.299z"/>
					<path style="fill:#AFD7E9;" d="M205.993,46.328l27.934-17.805c-0.54-1.455-1.875-2.505-3.482-2.643l-33.02,21.047
						l-32.783-20.961c-1.47,0.35-2.623,1.489-3.004,2.947l27.139,17.351l-27.255,21.346c0.115,1.503,1.027,2.774,2.326,3.389
						l28.591-22.393l4.984,3.186l4.905-3.126l28.828,22.579c1.425-0.383,2.537-1.505,2.901-2.937L205.993,46.328z"/>
				</g>
			</g>
		</g>
		<g>
			<g style="opacity:0.15;">
				<path d="M366.043,70.638c1.892-2.87,3-6.301,3-9.996c0-10.05-8.147-18.197-18.197-18.197c-1.834,0-3.602,0.277-5.271,0.782
					c-0.612-9.496-8.487-17.014-18.138-17.014c-10.05,0-18.197,8.147-18.197,18.197c0,2.195,0.409,4.29,1.121,6.238
					c-2.64,0.601-4.836,2.355-6.035,4.708c-1.576-0.551-3.264-0.865-5.028-0.865c-8.431,0-15.266,6.834-15.266,15.266
					c0,0.298,0.027,0.588,0.044,0.881H366.043z"/>
			</g>
			<g>
				<path style="fill:#AFD7E9;" d="M362.043,66.638c1.892-2.87,3-6.301,3-9.996c0-10.05-8.147-18.197-18.197-18.197
					c-1.834,0-3.602,0.277-5.271,0.782c-0.612-9.496-8.487-17.014-18.138-17.014c-10.05,0-18.197,8.147-18.197,18.197
					c0,2.195,0.409,4.29,1.121,6.238c-2.64,0.601-4.836,2.355-6.035,4.708c-1.576-0.551-3.264-0.865-5.028-0.865
					c-8.431,0-15.266,6.834-15.266,15.266c0,0.298,0.027,0.588,0.044,0.881H362.043z"/>
			</g>
		</g>
		<g>
			<g style="opacity:0.15;">
				<polygon points="414.676,201.378 401.957,215.524 414.676,215.524 				"/>
				<polygon points="416.727,201.342 416.727,215.524 416.727,217.542 416.727,217.574 401.381,217.574 401.381,275.498 
					455.374,275.498 455.374,201.342 				"/>
				<rect x="410.351" y="222.503" width="36.822" height="3.335"/>
				<rect x="410.351" y="230.704" width="36.822" height="3.336"/>
				<rect x="410.351" y="238.906" width="36.822" height="3.336"/>
				<rect x="410.351" y="247.107" width="36.822" height="3.335"/>
				<rect x="410.351" y="255.308" width="36.822" height="3.336"/>
			</g>
			<g>
				<g>
					<g>
						<polygon style="fill:#AFD7E9;" points="410.676,197.378 397.957,211.524 410.676,211.524 						"/>
						<polygon style="fill:#AFD7E9;" points="412.727,197.342 412.727,211.524 412.727,213.542 412.727,213.574 397.381,213.574 
							397.381,271.498 451.374,271.498 451.374,197.342 						"/>
					</g>
					<g>
						<rect x="406.351" y="218.503" style="fill:#1B3067;" width="36.822" height="3.335"/>
						<rect x="406.351" y="226.704" style="fill:#1B3067;" width="36.822" height="3.336"/>
						<rect x="406.351" y="234.906" style="fill:#1B3067;" width="36.822" height="3.336"/>
						<rect x="406.351" y="243.107" style="fill:#1B3067;" width="36.822" height="3.335"/>
						<rect x="406.351" y="251.308" style="fill:#1B3067;" width="36.822" height="3.336"/>
					</g>
				</g>
			</g>
		</g>
		<g>
			<g style="opacity:0.15;">
				<path d="M405.089,93.162c-20.169,0-36.52,16.351-36.52,36.52c0,20.168,16.351,36.519,36.52,36.519
					c20.169,0,36.519-16.351,36.519-36.519C441.608,109.513,425.258,93.162,405.089,93.162z M405.089,158.576
					c-15.958,0-28.894-12.937-28.894-28.893c0-15.958,12.936-28.895,28.894-28.895c15.958,0,28.894,12.937,28.894,28.895
					C433.983,145.639,421.046,158.576,405.089,158.576z"/>
				<polygon points="405.088,100.251 408.798,114.955 412.508,129.658 405.088,129.658 397.669,129.658 401.378,114.955 				"/>
				<polygon points="405.088,159.112 401.378,144.408 397.669,129.705 405.088,129.705 412.508,129.705 408.798,144.408 				"/>
			</g>
			<g>
				<g>
					<path style="fill:#1B3067;" d="M401.089,89.162c-20.169,0-36.52,16.351-36.52,36.52c0,20.168,16.351,36.519,36.52,36.519
						c20.169,0,36.519-16.351,36.519-36.519C437.608,105.513,421.258,89.162,401.089,89.162z M401.089,154.576
						c-15.958,0-28.894-12.937-28.894-28.894c0-15.957,12.936-28.895,28.894-28.895c15.958,0,28.894,12.937,28.894,28.895
						C429.983,141.639,417.046,154.576,401.089,154.576z"/>
					<g>
						<polygon style="fill:#AFD7E9;" points="401.088,96.251 404.798,110.955 408.508,125.658 401.088,125.658 393.669,125.658 
							397.378,110.955 						"/>
						<polygon style="fill:#1B3067;" points="401.088,155.112 397.378,140.408 393.669,125.705 401.088,125.705 408.508,125.705 
							404.798,140.408 						"/>
					</g>
				</g>
			</g>
		</g>
		<g>
			<g style="opacity:0.15;">
				<path d="M379.734,356.023l23.795-23.795c-6.239-5.32-14.324-8.538-23.165-8.538c-18.587,0-33.853,14.194-35.565,32.333H379.734z
					"/>
				<path d="M378.289,361.149h-33.613c0.876,18.395,15.663,33.143,34.073,33.961L378.289,361.149z"/>
				<path d="M407.182,335.825l-23.787,23.786l0.48,35.367c18.085-1.765,32.218-17.01,32.218-35.557
					C416.094,350.375,412.725,342.119,407.182,335.825z"/>
			</g>
			<g>
				<g>
					<path style="fill:#AFD7E9;" d="M375.734,352.023l23.795-23.795c-6.239-5.32-14.324-8.538-23.165-8.538
						c-18.587,0-33.853,14.194-35.565,32.333H375.734z"/>
					<path style="fill:#1B3067;" d="M374.289,357.149h-33.613c0.876,18.395,15.663,33.143,34.073,33.961L374.289,357.149z"/>
					<path style="fill:#1B3067;" d="M403.182,331.825l-23.787,23.786l0.48,35.367c18.085-1.765,32.218-17.01,32.218-35.557
						C412.094,346.375,408.725,338.119,403.182,331.825z"/>
				</g>
			</g>
		</g>
		<g>
			<g style="opacity:0.15;">
				<path d="M96.766,284.225c-18.528,0-33.548,15.02-33.548,33.548c0,18.528,15.02,33.548,33.548,33.548s33.548-15.02,33.548-33.548
					C130.313,299.245,115.293,284.225,96.766,284.225z M99.196,345.985c-0.032,0.003-0.065,0.005-0.098,0.008v-10.322h9.028
					C105.913,339.236,102.928,342.678,99.196,345.985z M68.587,320.635h8.271c0.111,3.626,0.794,7.16,2.039,10.593h-7.058
					C70.103,328.02,68.969,324.439,68.587,320.635z M99.099,300.473v-10.316c1.369,1.367,4.859,5.081,7.993,10.316H99.099z
					 M109.446,304.915c1.573,3.393,2.813,7.202,3.275,11.278H99.099v-11.278H109.446z M94.656,300.473h-6.854
					c2.47-4.123,5.156-7.307,6.854-9.141V300.473z M94.656,304.915v11.278H82.16c0.465-4.072,1.709-7.882,3.286-11.278H94.656z
					 M76.999,316.193h-8.509c0.223-4.045,1.299-7.86,3.044-11.278h8.292C78.436,308.356,77.387,312.147,76.999,316.193z
					 M81.987,320.635h12.669v10.593H84.423C82.933,327.793,82.118,324.257,81.987,320.635z M94.656,335.671v9.397
					c-3.261-3.025-5.895-6.161-7.905-9.397H94.656z M99.099,331.228v-10.593h13.793c-0.132,3.622-0.947,7.158-2.436,10.593H99.099z
					 M118.021,320.635h6.924c-0.382,3.803-1.516,7.385-3.252,10.593h-5.711C117.227,327.796,117.91,324.261,118.021,320.635z
					 M117.88,316.193c-0.389-4.046-1.437-7.837-2.826-11.278h6.945c1.745,3.418,2.821,7.233,3.044,11.278H117.88z M119.183,300.473
					h-6.191c-1.898-3.618-4.05-6.699-5.953-9.094C111.873,293.263,116.061,296.433,119.183,300.473z M88.375,290.714
					c-2.026,2.477-4.41,5.796-6.489,9.758h-7.538C77.87,295.917,82.744,292.458,88.375,290.714z M74.817,335.671h6.028
					c1.535,2.953,3.516,5.824,5.926,8.605C82.059,342.499,77.947,339.503,74.817,335.671z M108.887,343.374
					c2.065-2.498,3.777-5.069,5.146-7.703h4.68C116.065,338.914,112.712,341.56,108.887,343.374z"/>
			</g>
			<g>
				<path style="fill:#1B3067;" d="M92.766,280.225c-18.528,0-33.548,15.02-33.548,33.548c0,18.528,15.02,33.548,33.548,33.548
					s33.548-15.02,33.548-33.548C126.313,295.245,111.293,280.225,92.766,280.225z M95.196,341.985
					c-0.032,0.003-0.065,0.005-0.098,0.008v-10.322h9.028C101.913,335.236,98.928,338.678,95.196,341.985z M64.587,316.635h8.271
					c0.111,3.626,0.794,7.16,2.039,10.593h-7.058C66.103,324.02,64.969,320.439,64.587,316.635z M95.099,296.473v-10.316
					c1.369,1.367,4.859,5.081,7.993,10.316H95.099z M105.446,300.915c1.573,3.393,2.813,7.202,3.275,11.278H95.099v-11.278H105.446z
					 M90.656,296.473h-6.854c2.47-4.123,5.156-7.307,6.854-9.141V296.473z M90.656,300.915v11.278H78.16
					c0.465-4.072,1.709-7.882,3.286-11.278H90.656z M72.999,312.193h-8.509c0.223-4.045,1.299-7.86,3.044-11.278h8.292
					C74.436,304.356,73.387,308.147,72.999,312.193z M77.987,316.635h12.669v10.593H80.423
					C78.933,323.793,78.118,320.257,77.987,316.635z M90.656,331.671v9.397c-3.261-3.025-5.895-6.161-7.905-9.397H90.656z
					 M95.099,327.228v-10.593h13.793c-0.132,3.622-0.947,7.158-2.436,10.593H95.099z M114.021,316.635h6.924
					c-0.382,3.803-1.516,7.385-3.252,10.593h-5.711C113.227,323.796,113.91,320.261,114.021,316.635z M113.88,312.193
					c-0.389-4.046-1.437-7.837-2.826-11.278h6.945c1.745,3.418,2.821,7.233,3.044,11.278H113.88z M115.183,296.473h-6.191
					c-1.898-3.618-4.05-6.699-5.953-9.094C107.873,289.263,112.061,292.433,115.183,296.473z M84.375,286.714
					c-2.026,2.477-4.41,5.796-6.489,9.758h-7.538C73.87,291.917,78.744,288.458,84.375,286.714z M70.817,331.671h6.028
					c1.535,2.953,3.516,5.824,5.926,8.605C78.059,338.499,73.947,335.503,70.817,331.671z M104.887,339.374
					c2.065-2.498,3.777-5.069,5.146-7.703h4.68C112.065,334.914,108.712,337.56,104.887,339.374z"/>
			</g>
		</g>
		
			<linearGradient id="SVGID_00000108993789899179167960000011462051347916320689_" gradientUnits="userSpaceOnUse" x1="266.461" y1="440.3186" x2="273.937" y2="465.1255" gradientTransform="matrix(1 0 0 -1.0637 0 921.6388)">
			<stop  offset="0" style="stop-color:#FFFFFF;stop-opacity:0"/>
			<stop  offset="0.9973" style="stop-color:#666C90"/>
		</linearGradient>
		<polygon style="fill:url(#SVGID_00000108993789899179167960000011462051347916320689_);" points="322.967,438.06 303.418,435.282 
			213.887,454.605 279.236,455.718 		"/>
		
			<linearGradient id="SVGID_00000084501448240506423530000018099673845494478479_" gradientUnits="userSpaceOnUse" x1="185.7008" y1="439.4878" x2="194.2806" y2="467.957" gradientTransform="matrix(1 0 0 -1.0637 0 921.6388)">
			<stop  offset="0" style="stop-color:#FFFFFF;stop-opacity:0"/>
			<stop  offset="0.9973" style="stop-color:#666C90"/>
		</linearGradient>
		<polygon style="fill:url(#SVGID_00000084501448240506423530000018099673845494478479_);" points="247.464,435.709 
			222.523,435.282 128.45,456.675 193.799,457.787 		"/>
		<g>
			
				<linearGradient id="SVGID_00000108301630484903079390000005507975035039516067_" gradientUnits="userSpaceOnUse" x1="241.0821" y1="159.8177" x2="227.1074" y2="134.0517">
				<stop  offset="0" style="stop-color:#161D43"/>
				<stop  offset="0.2905" style="stop-color:#182553"/>
				<stop  offset="0.6773" style="stop-color:#1A2D62"/>
				<stop  offset="0.996" style="stop-color:#1B3067"/>
			</linearGradient>
			<path style="opacity:0.1;fill:url(#SVGID_00000108301630484903079390000005507975035039516067_);" d="M236.401,133.816
				l-31.583-46.91l-1.48,1.021c-0.251-1.411-1.105-5.717-2.689-8.887c-1.921-3.841-2.881-8.26-2.881-8.26s-2.69,1.872-0.961,8.811
				c-4.034-0.552-14.214-4.969-17.095-8.811c-1.537-1.152-3.65,0-3.65,0s5.954,7.875,8.836,9.796
				c-3.842-1.536-9.028-5.569-10.181-6.146c-1.152-0.577-1.921,1.152-1.921,1.152s0.367,0.431,0.984,1.093l1.321,6.237
				c0,0,10.637,10.362,14.694,10.725c1.249,0.112,2.447,0.154,3.508,0.16c0.186,0.225,0.369,0.448,0.549,0.669l-4.788,3.302
				c0,0,25.248,44.799,33.075,54.918c7.826,10.118,19.346,28.456,19.346,28.456l20.727-27.107L236.401,133.816z"/>
			
				<linearGradient id="SVGID_00000099634334517691223430000018017220994786867623_" gradientUnits="userSpaceOnUse" x1="215.2389" y1="168.7566" x2="201.2641" y2="142.9903" gradientTransform="matrix(0.9641 -0.2655 0.2655 0.9641 -19.8485 64.9818)">
				<stop  offset="0" style="stop-color:#161D43"/>
				<stop  offset="0.2905" style="stop-color:#182553"/>
				<stop  offset="0.6773" style="stop-color:#1A2D62"/>
				<stop  offset="0.996" style="stop-color:#1B3067"/>
			</linearGradient>
			<path style="opacity:0.2;fill:url(#SVGID_00000099634334517691223430000018017220994786867623_);" d="M221.052,146.708
				l-42.904-36.841l-1.156,1.377c-0.617-1.294-2.583-5.219-4.952-7.854c-2.872-3.194-4.97-7.198-4.97-7.198s-2.096,2.519,1.413,8.75
				c-4.036,0.539-15.023-1.017-18.821-3.956c-1.788-0.703-3.519,0.969-3.519,0.969s7.831,6.011,11.12,7.098
				c-4.112-0.461-10.183-2.973-11.447-3.222c-1.264-0.25-1.546,1.621-1.546,1.621s0.469,0.318,1.239,0.793l2.93,5.663
				c0,0,13.006,7.166,17.014,6.438c1.234-0.224,2.4-0.501,3.425-0.777c0.239,0.168,0.475,0.334,0.707,0.499l-3.739,4.454
				c0,0,36.236,36.488,46.468,44.166c10.232,7.677,26.207,22.298,26.207,22.298l12.786-31.637L221.052,146.708z"/>
			
				<linearGradient id="SVGID_00000036253058671698947880000012217635069845813159_" gradientUnits="userSpaceOnUse" x1="196.223" y1="191.3593" x2="182.2483" y2="165.5932" gradientTransform="matrix(0.867 -0.4983 0.4983 0.867 -36.7175 116.3927)">
				<stop  offset="0" style="stop-color:#161D43"/>
				<stop  offset="0.2905" style="stop-color:#182553"/>
				<stop  offset="0.6773" style="stop-color:#1A2D62"/>
				<stop  offset="0.996" style="stop-color:#1B3067"/>
			</linearGradient>
			<path style="opacity:0.3;fill:url(#SVGID_00000036253058671698947880000012217635069845813159_);" d="M211.748,164.313
				l-50.757-24.935L160.216,141c-0.921-1.099-3.807-4.407-6.76-6.365c-3.579-2.374-6.613-5.726-6.613-5.726
				s-1.399,2.963,3.557,8.118c-3.772,1.532-14.799,2.774-19.212,0.878c-1.907-0.233-3.164,1.819-3.164,1.819
				s9.086,3.861,12.542,4.09c-4.096,0.583-10.603-0.33-11.889-0.256c-1.286,0.074-1.091,1.956-1.091,1.956s0.534,0.191,1.398,0.458
				l4.254,4.749c0,0,14.385,3.684,18.084,1.977c1.139-0.525,2.198-1.085,3.122-1.609c0.274,0.103,0.543,0.204,0.81,0.306
				l-2.506,5.248c0,0,44.213,26.262,56.04,31.135c11.827,4.873,30.952,15.032,30.952,15.032l4.464-33.83L211.748,164.313z"/>
			
				<linearGradient id="SVGID_00000093148136386974393780000007309286578247883677_" gradientUnits="userSpaceOnUse" x1="468.6991" y1="336.3653" x2="454.725" y2="310.6003" gradientTransform="matrix(-0.3899 -0.9209 -0.9209 0.3899 775.0796 514.4487)">
				<stop  offset="0" style="stop-color:#161D43"/>
				<stop  offset="0.2905" style="stop-color:#182553"/>
				<stop  offset="0.6773" style="stop-color:#1A2D62"/>
				<stop  offset="0.996" style="stop-color:#1B3067"/>
			</linearGradient>
			<path style="opacity:0.1;fill:url(#SVGID_00000093148136386974393780000007309286578247883677_);" d="M308.344,208.144
				l55.511,10.796l-0.363,1.761c1.398-0.319,5.695-1.212,9.232-0.988c4.286,0.271,8.729-0.567,8.729-0.567s-0.676,3.207-7.74,4.32
				c2.081,3.5,10.117,11.152,14.779,12.307c1.66,0.966,1.423,3.361,1.423,3.361s-9.573-2.413-12.466-4.318
				c2.912,2.939,8.648,6.142,9.628,6.979c0.98,0.836-0.312,2.218-0.312,2.218s-0.54-0.17-1.39-0.48l-6.259,1.215
				c0,0-13.689-5.756-15.604-9.35c-0.59-1.107-1.096-2.193-1.515-3.168c-0.28-0.083-0.556-0.165-0.83-0.245l-1.174,5.696
				c0,0-51.097-5.785-63.467-9.048c-12.369-3.262-33.746-6.722-33.746-6.722l16.882-29.654L308.344,208.144z"/>
			
				<linearGradient id="SVGID_00000067938927133141081530000013070712382477354890_" gradientUnits="userSpaceOnUse" x1="381.2838" y1="391.1864" x2="367.3095" y2="365.4212" gradientTransform="matrix(-0.0752 -0.9972 -0.9972 0.0752 701.9921 570.2226)">
				<stop  offset="0" style="stop-color:#161D43"/>
				<stop  offset="0.2905" style="stop-color:#182553"/>
				<stop  offset="0.6773" style="stop-color:#1A2D62"/>
				<stop  offset="0.996" style="stop-color:#1B3067"/>
			</linearGradient>
			<path style="opacity:0.2;fill:url(#SVGID_00000067938927133141081530000013070712382477354890_);" d="M309.507,222.136
				l49.153,27.964l-0.906,1.552c1.426,0.144,5.784,0.671,9.064,2.013c3.975,1.626,8.453,2.251,8.453,2.251s-1.664,2.823-8.714,1.621
				c0.854,3.981,6.025,13.799,10.072,16.383c1.265,1.446,0.275,3.639,0.275,3.639s-8.3-5.345-10.433-8.074
				c1.82,3.716,6.233,8.583,6.894,9.69c0.662,1.106-1.005,2.002-1.005,2.002s-0.458-0.334-1.164-0.899l-6.319-0.848
				c0,0-11.133-9.827-11.8-13.846c-0.205-1.237-0.338-2.428-0.424-3.486c-0.239-0.169-0.474-0.334-0.708-0.497l-2.932,5.022
				c0,0-46.572-21.806-57.251-28.849c-10.678-7.043-29.831-17.15-29.831-17.15l25.471-22.707L309.507,222.136z"/>
			
				<linearGradient id="SVGID_00000016051634372014802860000001860130905955883906_" gradientUnits="userSpaceOnUse" x1="324.5228" y1="444.8165" x2="310.5486" y2="419.0515" gradientTransform="matrix(0.3669 -0.9303 -0.9303 -0.3669 578.3617 673.0784)">
				<stop  offset="0" style="stop-color:#161D43"/>
				<stop  offset="0.2905" style="stop-color:#182553"/>
				<stop  offset="0.6773" style="stop-color:#1A2D62"/>
				<stop  offset="0.996" style="stop-color:#1B3067"/>
			</linearGradient>
			<path style="opacity:0.3;fill:url(#SVGID_00000016051634372014802860000001860130905955883906_);" d="M306.088,221.865
				l32.051,46.592l-1.492,1.002c1.221,0.751,4.913,3.125,7.28,5.762c2.869,3.196,6.627,5.71,6.627,5.71s-2.728,1.815-8.549-2.339
				c-0.967,3.955-0.592,15.046,1.925,19.135c0.508,1.852-1.339,3.395-1.339,3.395s-5.141-8.428-5.871-11.814
				c0.019,4.138,1.869,10.442,1.982,11.726c0.114,1.284-1.777,1.364-1.777,1.364s-0.267-0.5-0.656-1.316l-5.318-3.518
				c0,0-5.737-13.697-4.585-17.604c0.354-1.203,0.754-2.333,1.138-3.322c-0.141-0.256-0.281-0.508-0.421-0.756l-4.828,3.242
				c0,0-32.411-39.924-38.953-50.917c-6.541-10.993-19.373-28.437-19.373-28.437l32.821-9.336L306.088,221.865z"/>
			<g>
				<path style="fill:#14244A;" d="M311.854,428.328c0,0-0.195,9.322,0,12.835c0.079,1.408-10.408,2.297-10.642-3.103
					c-0.091-2.1-0.807-9.732-0.807-9.732H311.854z"/>
				<path style="fill:#14244A;" d="M313.866,428.328c0,0,4.382,6.454,7.72,7.324c1.304,0.34,1.223,1.967,1.38,2.409
					c0.156,0.441-1.101,2.787-5.947,2.32c-4.847-0.469-8.608-2.32-8.608-2.32L313.866,428.328z"/>
			</g>
			<path style="fill:#DBA590;" d="M277.816,140.573c-0.34-3.055,3.563-7.297,6.788-17.14c3.225-9.843-4.586-22.91-4.586-22.91
				s-9.669-2.545-10.348-2.715c-0.679-0.169-15.782,0.849-15.782,0.849s-6.279,16.461-6.11,21.042
				c0.17,4.582,2.715,15.782,2.715,15.782l6.788,8.107L277.816,140.573z"/>
			
				<linearGradient id="SVGID_00000183937356301061183320000001068987666450241680_" gradientUnits="userSpaceOnUse" x1="281.1191" y1="136.0176" x2="252.119" y2="118.2675">
				<stop  offset="0" style="stop-color:#161D43"/>
				<stop  offset="0.2905" style="stop-color:#182553"/>
				<stop  offset="0.6773" style="stop-color:#1A2D62"/>
				<stop  offset="0.996" style="stop-color:#1B3067"/>
			</linearGradient>
			<path style="fill:url(#SVGID_00000183937356301061183320000001068987666450241680_);" d="M254.651,112.317
				c-0.381,0.128-0.636,12.473-0.636,12.473l-2.036,0.891l-1.4-15.782L254.651,112.317z"/>
			
				<linearGradient id="SVGID_00000065756676575457050370000011846999086225422508_" gradientUnits="userSpaceOnUse" x1="279.6375" y1="131.5511" x2="260.5755" y2="97.4898">
				<stop  offset="0" style="stop-color:#161D43"/>
				<stop  offset="0.2905" style="stop-color:#182553"/>
				<stop  offset="0.6773" style="stop-color:#1A2D62"/>
				<stop  offset="0.996" style="stop-color:#1B3067"/>
			</linearGradient>
			<path style="fill:url(#SVGID_00000065756676575457050370000011846999086225422508_);" d="M280.018,98.572
				c-6.911-2.673-24.475-5.218-28.548-2.291c-4.073,2.927-5.473,12.091-5.473,12.091l3.643,2.648c0,0,1.454,1.911,3.527,4.674
				l3.776-4.776l2.8,4.885l-0.559,8.004c3.574,4.885,7.001,9.722,7.941,11.547c4.073,0.382,11.736,1.274,11.736,1.274
				s8.778-10.311,8.703-15.147C287.488,116.645,286.929,101.244,280.018,98.572z"/>
			<path style="fill:#B88C7B;" d="M257.69,115.014l-2.136,2.776l1.068,2.264l-1.068,2.049l1.068,0.514c0,0-0.129-1.538,0-1.538
				c0.129,0,1.068-1.965,1.068-1.965l1.281-1.794l-1.883,0.469L257.69,115.014z"/>
			<path style="fill:#FBFFFF;" d="M249.13,144.978l4.969-6.173c0,0,15.283-5.695,23.636-1.204c7.834,4.211,6.629,7.377,6.629,7.377"
				/>
			<path style="fill:#1B3067;" d="M250.734,141.811c-7.425,1.846-30.347,13.433-30.347,13.433l18.097,104.923l53.726-1.204
				l17.732-102.914c0,0-21.617-14.138-28.931-16.387C272.431,137.022,259.446,139.645,250.734,141.811z"/>
			
				<linearGradient id="SVGID_00000096769745862776200620000000325758835450181793_" gradientUnits="userSpaceOnUse" x1="249.3208" y1="272.2188" x2="254.9874" y2="408.2189">
				<stop  offset="0" style="stop-color:#161D43"/>
				<stop  offset="0.2905" style="stop-color:#182553"/>
				<stop  offset="0.6773" style="stop-color:#1A2D62"/>
				<stop  offset="0.996" style="stop-color:#1B3067"/>
			</linearGradient>
			<path style="fill:url(#SVGID_00000096769745862776200620000000325758835450181793_);" d="M278.151,249.023l-6.499,27.104
				c0,0-12.433,48.185-21.589,71.674c2.667,23.49,2.86,80.491,2.86,80.491s-12.784-0.01-21.097-1.215
				c-22.768-84.924,7.366-185.883,7.366-185.883L278.151,249.023z"/>
			
				<linearGradient id="SVGID_00000121248367496067543680000012844808797697439679_" gradientUnits="userSpaceOnUse" x1="287.5274" y1="270.6269" x2="293.194" y2="406.6268">
				<stop  offset="0" style="stop-color:#161D43"/>
				<stop  offset="0.2905" style="stop-color:#182553"/>
				<stop  offset="0.6773" style="stop-color:#1A2D62"/>
				<stop  offset="0.996" style="stop-color:#1B3067"/>
			</linearGradient>
			<path style="fill:url(#SVGID_00000121248367496067543680000012844808797697439679_);" d="M294.92,237.58
				c0,0,15.192,84.321,15.022,105.669c2.841,7.496,9.882,68.469,9.656,88.799c-0.069,6.24-24.678-3.756-24.678-3.756
				s-8.9-64.832-8.874-80.491c-5.395-10.842-24.825-96.367-24.825-96.367L294.92,237.58z"/>
			<g>
				<path style="fill:#DBA590;" d="M154.027,177.327l-8.342,6.141c0,0-11.059-14.976-15.669-16.705
					c-4.61-1.729-9.988-8.067-9.988-8.067s0.768-1.729,1.921-1.152c1.153,0.576,6.339,4.61,10.181,6.146
					c-2.882-1.921-8.836-9.796-8.836-9.796s2.113-1.152,3.65,0c2.881,3.842,13.061,8.26,17.095,8.811
					c-1.729-6.939,0.961-8.811,0.961-8.811s0.96,4.418,2.881,8.26c1.921,3.841,2.77,9.363,2.77,9.363L154.027,177.327z"/>
				<path style="fill:#DBA590;" d="M144.615,176.75c0,0-3.53,0.363-7.587,0c-4.057-0.362-14.694-10.724-14.694-10.724l-1.322-6.238
					L144.615,176.75z"/>
			</g>
			
				<linearGradient id="SVGID_00000098920406356990261430000002956544515667104697_" gradientUnits="userSpaceOnUse" x1="210.9482" y1="206.5564" x2="151.1982" y2="167.0564">
				<stop  offset="0" style="stop-color:#161D43"/>
				<stop  offset="0.2905" style="stop-color:#182553"/>
				<stop  offset="0.6773" style="stop-color:#1A2D62"/>
				<stop  offset="0.996" style="stop-color:#1B3067"/>
			</linearGradient>
			<path style="fill:url(#SVGID_00000098920406356990261430000002956544515667104697_);" d="M198.537,199.24l-48.804-28.571
				l-9.481,16.62c0,0,42.18,29.416,53.621,35.138c11.44,5.723,26.514-37.698,26.514-37.698L198.537,199.24z"/>
			
				<linearGradient id="SVGID_00000116915698447553129790000009804594297746388667_" gradientUnits="userSpaceOnUse" x1="185.2117" y1="210.0508" x2="222.9182" y2="177.2852">
				<stop  offset="0" style="stop-color:#161D43"/>
				<stop  offset="0.2905" style="stop-color:#182553"/>
				<stop  offset="0.6773" style="stop-color:#1A2D62"/>
				<stop  offset="0.996" style="stop-color:#1B3067"/>
			</linearGradient>
			<path style="fill:url(#SVGID_00000116915698447553129790000009804594297746388667_);" d="M220.387,155.244l-34.498,48.91
				c0,0,4.064,20.174,11.893,17.767c7.83-2.408,46.198-42.762,46.198-42.762L220.387,155.244"/>
			<g>
				<path style="fill:#DBA590;" d="M338.887,193.8l11.718,1.344c0,0,7.683-10.179,12.293-11.908c4.61-1.729,9.988-8.067,9.988-8.067
					s-0.768-1.729-1.921-1.152c-1.153,0.576-6.339,4.61-10.181,6.146c2.882-1.921,8.836-9.795,8.836-9.795s-2.113-1.153-3.65,0
					c-2.881,3.842-13.061,8.259-17.095,8.811c1.729-6.939-0.961-8.811-0.961-8.811s-0.96,4.418-2.881,8.259
					c-1.921,3.841-2.77,9.363-2.77,9.363L338.887,193.8z"/>
				<path style="fill:#DBA590;" d="M348.299,193.223c0,0,3.53,0.363,7.587,0c4.057-0.362,14.694-10.724,14.694-10.724l1.322-6.238
					L348.299,193.223z"/>
			</g>
			
				<linearGradient id="SVGID_00000132792688292269596330000017471292151712064943_" gradientUnits="userSpaceOnUse" x1="310.8463" y1="228.0997" x2="349.5129" y2="193.7663">
				<stop  offset="0" style="stop-color:#161D43"/>
				<stop  offset="0.2905" style="stop-color:#182553"/>
				<stop  offset="0.6773" style="stop-color:#1A2D62"/>
				<stop  offset="0.996" style="stop-color:#1B3067"/>
			</linearGradient>
			<polygon style="fill:url(#SVGID_00000132792688292269596330000017471292151712064943_);" points="326.633,230.401 
				355.886,201.443 343.99,185.181 312.822,210.026 			"/>
			
				<linearGradient id="SVGID_00000116958250839530947630000007308938525232186759_" gradientUnits="userSpaceOnUse" x1="318.561" y1="231.7465" x2="302.8943" y2="187.0797">
				<stop  offset="0" style="stop-color:#161D43"/>
				<stop  offset="0.2905" style="stop-color:#182553"/>
				<stop  offset="0.6773" style="stop-color:#1A2D62"/>
				<stop  offset="0.996" style="stop-color:#1B3067"/>
			</linearGradient>
			<path style="fill:url(#SVGID_00000116958250839530947630000007308938525232186759_);" d="M277.735,166.092l34.126,65.207
				c0,0,14.301,5.038,15.605-3.049c1.305-8.087-17.846-72.738-17.846-72.738L277.735,166.092z"/>
			
				<linearGradient id="SVGID_00000071550137350054975370000001296119157756626615_" gradientUnits="userSpaceOnUse" x1="266.7542" y1="290.8266" x2="264.421" y2="218.16">
				<stop  offset="0" style="stop-color:#161D43"/>
				<stop  offset="0.2905" style="stop-color:#182553"/>
				<stop  offset="0.6773" style="stop-color:#1A2D62"/>
				<stop  offset="0.996" style="stop-color:#1B3067"/>
			</linearGradient>
			<path style="fill:url(#SVGID_00000071550137350054975370000001296119157756626615_);" d="M229.838,192.029
				c0,0-1.559,80.183-1.599,97.951c8.392,2.108,54.468-1.506,54.468-1.506l12.347-2.409l9.938-3.013c0,0-3.313-33.427-6.625-46.979
				c-3.312-13.551-0.904-22.285-0.904-22.285l-0.345-10.661L229.838,192.029z"/>
			<path style="fill:#14244A;" d="M233.699,425.13c0,0-4.764,10.231-15.7,9.349c-0.706,0.53,0,3.705,0,3.705s9.349,1.763,12.525,0
				c3.175-1.766,5.28-2.902,5.28-2.902s-0.171,2.879,0.565,3.54c2.07,1.86,13.165-1.039,13.165-1.039l1.058-11.468L233.699,425.13z"
				/>
			<polygon style="fill:#062053;" points="273.409,150.602 271.017,188.682 273.409,223.369 275.802,188.682 			"/>
			<polygon style="fill:#062053;" points="302.633,157.559 301.027,207.791 307.241,157.559 			"/>
			<polygon style="fill:#091844;" points="322.96,203.18 326.89,218.502 326.036,206.256 334.354,210.869 325.182,203.18 			"/>
			<polygon style="fill:#062053;" points="223.317,157.559 230.778,169.854 229.539,207.791 228.239,194.181 228.239,170.67 			"/>
			<polygon style="fill:#091844;" points="191.54,195.144 185.889,205.487 187.208,196.809 177.469,198.449 			"/>
			<polygon style="fill:#091844;" points="270.111,289.354 290.412,286.972 302.633,283.769 303.805,290.769 287.122,297.327 			"/>
			<polygon style="fill:#091844;" points="268.091,289.482 261.221,313.773 254.614,297.327 237.442,292.116 228.824,289.482 
				252.051,290.548 			"/>
			<path style="fill:#091844;" d="M308.18,342.35c0,0-18.109,17.172-17.769,16.403c0.34-0.769,8.882-12.445,8.882-12.445h-11.104
				l12.046-3.959H308.18z"/>
			<path style="fill:#091844;" d="M250.734,342.35l-8.764,5.041c0,0-9.398-2.134-10.081-2.52s8.422,3.545,9.422,3.887
				c1,0.341-6.005,6.322-6.005,6.322l8.543-3.247l3.076-3.118l1.533-2.407l-2.387,9.796l3.991-8.304L250.734,342.35z"/>
		</g>
		<polygon style="fill:#B88C7B;" points="259.561,124.326 258.629,126.548 256.238,126.548 254.614,125.01 256.152,125.682 
			258.032,125.682 259.302,122.104 		"/>
		<g>
			<g style="opacity:0.15;">
				<path d="M116.385,234.15c0,2.265-1.836,4.101-4.101,4.101H56.726c-2.265,0-4.101-1.836-4.101-4.101v-35.882
					c0-2.265,1.836-4.101,4.101-4.101h55.557c2.265,0,4.101,1.836,4.101,4.101V234.15z"/>
				<path d="M95.342,229.024c0,0-5.81,15.035,0,29.048c-16.744-6.151-16.062-25.63-16.062-25.63L95.342,229.024z"/>
				<rect x="68.149" y="204.462" width="34.565" height="3.794"/>
				<rect x="68.149" y="213.92" width="34.565" height="3.794"/>
				<rect x="68.149" y="223.009" width="34.565" height="3.794"/>
			</g>
			<g>
				<g>
					<g>
						<path style="fill:#1B3067;" d="M112.385,230.15c0,2.265-1.836,4.101-4.101,4.101H52.726c-2.265,0-4.101-1.836-4.101-4.101
							v-35.882c0-2.265,1.836-4.101,4.101-4.101h55.557c2.265,0,4.101,1.836,4.101,4.101V230.15z"/>
						<path style="fill:#1B3067;" d="M91.342,225.024c0,0-5.81,15.035,0,29.048c-16.744-6.151-16.062-25.63-16.062-25.63
							L91.342,225.024z"/>
					</g>
					<g>
						<rect x="64.149" y="200.462" style="fill:#AFD7E9;" width="34.565" height="3.794"/>
						<rect x="64.149" y="209.92" style="fill:#AFD7E9;" width="34.565" height="3.794"/>
						<rect x="64.149" y="219.009" style="fill:#AFD7E9;" width="34.565" height="3.794"/>
					</g>
				</g>
			</g>
		</g>
		<g>
			<g style="opacity:0.15;">
				<rect x="176.798" y="342.181" width="8.715" height="71.898"/>
				<path d="M190.813,390.444c0-1.707-0.827-3.183-2.481-4.428c-1.654-1.244-4.721-2.348-9.203-3.308
					c-6.829-1.388-11.977-3.441-15.445-6.162c-3.468-2.72-5.202-6.428-5.202-11.124c0-4.979,2.089-9.203,6.269-12.671
					c4.179-3.468,9.771-5.202,16.778-5.202c7.363,0,13.222,1.726,17.579,5.176c4.356,3.45,6.446,7.807,6.269,13.071l-0.107,0.319
					h-15.045c0-2.312-0.738-4.196-2.214-5.656c-1.476-1.458-3.637-2.186-6.482-2.186c-2.526,0-4.508,0.613-5.948,1.84
					c-1.441,1.227-2.161,2.766-2.161,4.615c0,1.778,0.755,3.236,2.268,4.375c1.511,1.137,4.579,2.151,9.203,3.04
					c7.113,1.423,12.395,3.513,15.845,6.268c3.45,2.757,5.175,6.554,5.175,11.391c0,5.193-2.223,9.434-6.669,12.724
					c-4.446,3.291-10.315,4.935-17.606,4.935c-7.682,0-13.756-1.947-18.219-5.842c-4.464-3.895-6.589-8.331-6.375-13.31l0.107-0.32
					h14.244c0.107,3.094,1.121,5.334,3.041,6.722c1.921,1.388,4.428,2.08,7.523,2.08c2.881,0,5.076-0.569,6.589-1.707
					C190.056,393.947,190.813,392.4,190.813,390.444z"/>
			</g>
			<g>
				<g>
					<rect x="172.798" y="338.181" style="fill:#1B3067;" width="8.715" height="71.898"/>
					<g>
						<path style="fill:#1B3067;" d="M186.813,386.444c0-1.707-0.827-3.183-2.481-4.428c-1.654-1.244-4.721-2.348-9.203-3.308
							c-6.829-1.388-11.977-3.441-15.445-6.162c-3.468-2.72-5.202-6.428-5.202-11.124c0-4.979,2.089-9.203,6.269-12.671
							c4.179-3.468,9.771-5.202,16.778-5.202c7.363,0,13.222,1.726,17.579,5.176c4.356,3.45,6.446,7.807,6.269,13.071l-0.107,0.319
							h-15.045c0-2.312-0.738-4.196-2.214-5.656c-1.476-1.458-3.637-2.186-6.482-2.186c-2.526,0-4.508,0.613-5.948,1.84
							c-1.441,1.227-2.161,2.766-2.161,4.615c0,1.778,0.755,3.236,2.268,4.375c1.511,1.137,4.579,2.151,9.203,3.04
							c7.113,1.423,12.395,3.513,15.845,6.268c3.45,2.757,5.175,6.554,5.175,11.391c0,5.193-2.223,9.434-6.669,12.724
							c-4.446,3.291-10.315,4.935-17.606,4.935c-7.682,0-13.756-1.947-18.219-5.842c-4.464-3.895-6.589-8.331-6.375-13.31
							l0.107-0.32h14.244c0.107,3.094,1.121,5.334,3.041,6.722c1.921,1.388,4.428,2.08,7.523,2.08c2.881,0,5.076-0.569,6.589-1.707
							C186.056,389.947,186.813,388.4,186.813,386.444z"/>
					</g>
				</g>
			</g>
		</g>
	</g>
</g>
<g id="DESIGNED_BY_FREEPIK">
	<g id="XMLID_76_">
		<g id="XMLID_929_">
			<path id="XMLID_958_" style="fill:#1B3067;" d="M181.087,477.47c-0.246,0-0.435,0.085-0.567,0.255
				c-0.133,0.17-0.199,0.421-0.199,0.753v2.392c-0.305-0.331-0.617-0.579-0.937-0.739c-0.321-0.159-0.715-0.24-1.181-0.24
				c-0.807,0-1.458,0.283-1.953,0.848c-0.494,0.566-0.742,1.356-0.742,2.369c0,0.478,0.063,0.923,0.187,1.335
				c0.124,0.412,0.307,0.77,0.549,1.074c0.241,0.305,0.527,0.539,0.857,0.704c0.33,0.164,0.69,0.246,1.078,0.246
				c0.293,0,0.563-0.04,0.809-0.122c0.248-0.081,0.477-0.2,0.689-0.356c0.212-0.156,0.427-0.359,0.644-0.608v0.16
				c0,0.297,0.072,0.525,0.217,0.685c0.145,0.16,0.328,0.24,0.549,0.24c0.226,0,0.409-0.077,0.552-0.231
				c0.143-0.154,0.214-0.386,0.214-0.694v-7.147c0-0.305-0.066-0.534-0.199-0.691C181.521,477.548,181.332,477.47,181.087,477.47z
				 M180.021,484.311c-0.14,0.306-0.328,0.533-0.563,0.682c-0.236,0.149-0.496,0.223-0.781,0.223c-0.281,0-0.54-0.079-0.777-0.236
				c-0.237-0.155-0.424-0.388-0.561-0.696c-0.136-0.309-0.204-0.682-0.204-1.122c0-0.415,0.063-0.78,0.193-1.095
				c0.128-0.315,0.309-0.556,0.543-0.724c0.233-0.168,0.499-0.253,0.795-0.253c0.285,0,0.547,0.082,0.786,0.246
				c0.239,0.165,0.429,0.402,0.569,0.712c0.141,0.311,0.211,0.682,0.211,1.114C180.232,483.62,180.162,484.004,180.021,484.311z"/>
			<path id="XMLID_954_" style="fill:#1B3067;" d="M188.452,483.391c0.233-0.122,0.35-0.385,0.35-0.793
				c0-0.438-0.113-0.87-0.339-1.294c-0.225-0.423-0.564-0.769-1.018-1.035c-0.453-0.268-0.996-0.4-1.628-0.4
				c-0.487,0-0.93,0.078-1.33,0.234c-0.4,0.157-0.736,0.381-1.009,0.674c-0.273,0.293-0.48,0.644-0.623,1.054
				c-0.143,0.409-0.214,0.853-0.214,1.332c0,1.017,0.289,1.822,0.867,2.415c0.577,0.592,1.387,0.89,2.428,0.89
				c0.455,0,0.858-0.059,1.207-0.178c0.352-0.12,0.641-0.268,0.873-0.448c0.231-0.18,0.404-0.368,0.519-0.564
				c0.115-0.197,0.172-0.367,0.172-0.514c0-0.166-0.052-0.294-0.155-0.386c-0.102-0.09-0.237-0.137-0.403-0.137
				c-0.154,0-0.273,0.035-0.356,0.107c-0.202,0.19-0.366,0.34-0.492,0.452c-0.126,0.111-0.265,0.215-0.416,0.312
				c-0.15,0.098-0.305,0.167-0.466,0.214c-0.16,0.045-0.337,0.067-0.531,0.067c-0.289,0-0.553-0.07-0.792-0.213
				c-0.239-0.142-0.432-0.354-0.576-0.635c-0.145-0.281-0.218-0.605-0.222-0.973h3.168
				C187.89,483.571,188.219,483.511,188.452,483.391z M184.297,482.652c0.055-0.546,0.212-0.959,0.472-1.238
				c0.259-0.28,0.59-0.418,0.994-0.418c0.424,0,0.764,0.137,1.024,0.412c0.259,0.275,0.409,0.69,0.448,1.244H184.297z"/>
			<path id="XMLID_952_" style="fill:#1B3067;" d="M193.879,482.954c-0.319-0.169-0.729-0.316-1.231-0.439
				c-0.425-0.103-0.756-0.19-0.997-0.261c-0.242-0.07-0.434-0.16-0.577-0.27c-0.142-0.109-0.213-0.248-0.213-0.419
				c0-0.186,0.096-0.341,0.29-0.465c0.194-0.126,0.437-0.187,0.73-0.187c0.286,0,0.511,0.047,0.677,0.142
				c0.166,0.095,0.31,0.222,0.433,0.38c0.151,0.19,0.284,0.332,0.401,0.427c0.116,0.095,0.258,0.143,0.424,0.143
				c0.231,0,0.408-0.061,0.532-0.178c0.124-0.119,0.186-0.272,0.186-0.457c0-0.171-0.058-0.345-0.175-0.523
				c-0.116-0.178-0.286-0.34-0.51-0.486c-0.223-0.146-0.502-0.264-0.837-0.35c-0.333-0.088-0.71-0.131-1.13-0.131
				c-0.535,0-0.99,0.085-1.367,0.259c-0.378,0.172-0.665,0.403-0.859,0.691c-0.194,0.289-0.291,0.596-0.291,0.92
				c0,0.364,0.105,0.671,0.315,0.92c0.21,0.249,0.489,0.45,0.84,0.602c0.35,0.153,0.804,0.298,1.362,0.436
				c0.494,0.12,0.849,0.244,1.065,0.375c0.216,0.131,0.323,0.338,0.323,0.622c0,0.187-0.104,0.352-0.311,0.497
				c-0.208,0.144-0.474,0.216-0.798,0.216c-0.4,0-0.715-0.071-0.947-0.213c-0.231-0.143-0.431-0.358-0.597-0.647
				c-0.082-0.15-0.17-0.267-0.261-0.35c-0.091-0.082-0.221-0.124-0.391-0.124c-0.194,0-0.355,0.064-0.481,0.19
				c-0.128,0.126-0.19,0.278-0.19,0.456c0,0.27,0.099,0.537,0.297,0.805c0.198,0.266,0.505,0.489,0.92,0.667
				c0.415,0.178,0.914,0.267,1.495,0.267c0.61,0,1.127-0.082,1.552-0.246c0.425-0.164,0.747-0.406,0.964-0.724
				c0.218-0.319,0.326-0.702,0.326-1.149c0-0.297-0.082-0.56-0.246-0.792C194.438,483.325,194.197,483.124,193.879,482.954z"/>
			<path id="XMLID_950_" style="fill:#1B3067;" d="M196.486,479.879c-0.237,0-0.43,0.081-0.579,0.243
				c-0.149,0.162-0.222,0.404-0.222,0.724v4.635c0,0.317,0.073,0.56,0.222,0.73c0.148,0.17,0.341,0.255,0.579,0.255
				c0.238,0,0.433-0.083,0.588-0.249c0.154-0.166,0.231-0.412,0.231-0.737V480.8c0-0.289-0.077-0.514-0.231-0.677
				C196.919,479.961,196.724,479.879,196.486,479.879z"/>
			<path id="XMLID_949_" style="fill:#1B3067;" d="M196.504,477.541c-0.217,0-0.409,0.073-0.573,0.223
				c-0.164,0.149-0.246,0.337-0.246,0.567c0,0.254,0.08,0.45,0.24,0.588c0.16,0.138,0.353,0.208,0.579,0.208
				c0.217,0,0.405-0.071,0.563-0.211c0.158-0.14,0.238-0.335,0.238-0.585c0-0.257-0.081-0.453-0.243-0.588
				C196.9,477.608,196.714,477.541,196.504,477.541z"/>
			<path id="XMLID_945_" style="fill:#1B3067;" d="M203.626,479.879c-0.217,0-0.395,0.078-0.535,0.231
				c-0.139,0.155-0.208,0.372-0.208,0.653v0.22c-0.289-0.376-0.602-0.652-0.937-0.829c-0.337-0.175-0.735-0.264-1.194-0.264
				c-0.384,0-0.736,0.068-1.056,0.204c-0.32,0.137-0.604,0.34-0.849,0.609c-0.245,0.268-0.433,0.599-0.566,0.992
				c-0.133,0.391-0.199,0.831-0.199,1.317c0,0.653,0.109,1.228,0.327,1.727c0.217,0.499,0.529,0.886,0.934,1.163
				c0.406,0.277,0.88,0.416,1.422,0.416c0.45,0,0.84-0.091,1.166-0.273c0.327-0.182,0.615-0.447,0.864-0.796
				c-0.008,0.531-0.02,0.915-0.035,1.155c-0.016,0.24-0.07,0.464-0.164,0.673c-0.093,0.21-0.255,0.374-0.486,0.49
				c-0.231,0.117-0.557,0.175-0.977,0.175c-0.205,0-0.388-0.02-0.546-0.056c-0.159-0.038-0.294-0.095-0.406-0.171
				c-0.112-0.078-0.216-0.17-0.309-0.279c-0.093-0.109-0.183-0.217-0.27-0.324c-0.178-0.209-0.386-0.314-0.624-0.314
				c-0.189,0-0.352,0.062-0.486,0.187c-0.135,0.124-0.202,0.285-0.202,0.483c0,0.262,0.119,0.516,0.356,0.763
				c0.238,0.247,0.576,0.449,1.014,0.605c0.439,0.156,0.938,0.234,1.496,0.234c0.609,0,1.119-0.061,1.528-0.184
				c0.41-0.122,0.741-0.311,0.994-0.563c0.253-0.254,0.438-0.574,0.552-0.961c0.115-0.389,0.173-0.851,0.173-1.389v-4.706
				c0-0.384-0.051-0.678-0.155-0.882C204.146,479.982,203.938,479.879,203.626,479.879z M202.599,484.245
				c-0.151,0.291-0.345,0.508-0.586,0.653c-0.239,0.144-0.493,0.217-0.762,0.217c-0.455,0-0.826-0.168-1.113-0.505
				c-0.287-0.336-0.43-0.834-0.43-1.49c0-0.649,0.139-1.15,0.418-1.502s0.649-0.529,1.113-0.529c0.475,0,0.857,0.184,1.148,0.553
				c0.291,0.367,0.436,0.882,0.436,1.543C202.825,483.601,202.749,483.954,202.599,484.245z"/>
			<path id="XMLID_944_" style="fill:#1B3067;" d="M210.978,480.947c-0.165-0.339-0.417-0.602-0.753-0.788
				c-0.337-0.186-0.718-0.28-1.146-0.28c-0.439,0-0.828,0.088-1.166,0.264c-0.339,0.176-0.65,0.452-0.935,0.828v-0.196
				c0-0.194-0.034-0.358-0.104-0.493c-0.07-0.134-0.162-0.234-0.276-0.302c-0.115-0.068-0.244-0.101-0.387-0.101
				c-0.233,0-0.417,0.076-0.552,0.228c-0.134,0.153-0.201,0.383-0.201,0.692v4.682c0,0.317,0.076,0.56,0.226,0.73
				c0.15,0.17,0.342,0.255,0.576,0.255c0.241,0,0.438-0.082,0.59-0.246c0.152-0.164,0.228-0.411,0.228-0.74v-2.03
				c0-0.661,0.04-1.111,0.119-1.353c0.11-0.3,0.284-0.537,0.522-0.71c0.237-0.173,0.5-0.258,0.789-0.258
				c0.444,0,0.74,0.142,0.888,0.425c0.148,0.283,0.223,0.691,0.223,1.225v2.7c0,0.317,0.074,0.56,0.226,0.73
				c0.15,0.17,0.345,0.255,0.587,0.255c0.238,0,0.431-0.083,0.579-0.249c0.149-0.166,0.223-0.412,0.223-0.737v-3.015
				c0-0.356-0.017-0.648-0.048-0.878C211.155,481.36,211.085,481.146,210.978,480.947z"/>
			<path id="XMLID_939_" style="fill:#1B3067;" d="M217.821,483.391c0.234-0.122,0.35-0.385,0.35-0.793
				c0-0.438-0.114-0.87-0.338-1.294c-0.226-0.423-0.565-0.769-1.019-1.035c-0.453-0.268-0.995-0.4-1.628-0.4
				c-0.487,0-0.93,0.078-1.33,0.234c-0.4,0.157-0.736,0.381-1.009,0.674c-0.273,0.293-0.481,0.644-0.624,1.054
				c-0.142,0.409-0.214,0.853-0.214,1.332c0,1.017,0.289,1.822,0.867,2.415c0.578,0.592,1.387,0.89,2.427,0.89
				c0.455,0,0.858-0.059,1.208-0.178c0.35-0.12,0.64-0.268,0.871-0.448c0.232-0.18,0.405-0.368,0.52-0.564
				c0.115-0.197,0.172-0.367,0.172-0.514c0-0.166-0.051-0.294-0.154-0.386c-0.103-0.09-0.238-0.137-0.404-0.137
				c-0.154,0-0.273,0.035-0.356,0.107c-0.201,0.19-0.366,0.34-0.492,0.452c-0.128,0.111-0.266,0.215-0.416,0.312
				c-0.151,0.098-0.306,0.167-0.466,0.214c-0.161,0.045-0.338,0.067-0.532,0.067c-0.289,0-0.553-0.07-0.792-0.213
				c-0.239-0.142-0.431-0.354-0.576-0.635c-0.145-0.281-0.218-0.605-0.223-0.973h3.169
				C217.26,483.571,217.588,483.511,217.821,483.391z M213.667,482.652c0.056-0.546,0.212-0.959,0.471-1.238
				c0.259-0.28,0.591-0.418,0.995-0.418c0.424,0,0.765,0.137,1.024,0.412c0.259,0.275,0.409,0.69,0.448,1.244H213.667z"/>
			<path id="XMLID_936_" style="fill:#1B3067;" d="M224.207,477.47c-0.245,0-0.434,0.085-0.567,0.255
				c-0.132,0.17-0.199,0.421-0.199,0.753v2.392c-0.304-0.331-0.616-0.579-0.937-0.739c-0.32-0.159-0.714-0.24-1.181-0.24
				c-0.807,0-1.458,0.283-1.953,0.848c-0.495,0.566-0.741,1.356-0.741,2.369c0,0.478,0.062,0.923,0.187,1.335
				c0.124,0.412,0.308,0.77,0.549,1.074c0.241,0.305,0.527,0.539,0.857,0.704c0.33,0.164,0.689,0.246,1.077,0.246
				c0.293,0,0.563-0.04,0.81-0.122c0.247-0.081,0.476-0.2,0.688-0.356c0.211-0.156,0.426-0.359,0.643-0.608v0.16
				c0,0.297,0.073,0.525,0.217,0.685c0.145,0.16,0.328,0.24,0.549,0.24c0.226,0,0.41-0.077,0.552-0.231
				c0.143-0.154,0.214-0.386,0.214-0.694v-7.147c0-0.305-0.066-0.534-0.199-0.691C224.641,477.548,224.452,477.47,224.207,477.47z
				 M223.141,484.311c-0.14,0.306-0.328,0.533-0.564,0.682c-0.236,0.149-0.495,0.223-0.781,0.223c-0.281,0-0.539-0.079-0.776-0.236
				c-0.238-0.155-0.425-0.388-0.561-0.696c-0.137-0.309-0.205-0.682-0.205-1.122c0-0.415,0.064-0.78,0.193-1.095
				c0.129-0.315,0.31-0.556,0.543-0.724c0.233-0.168,0.499-0.253,0.795-0.253c0.285,0,0.547,0.082,0.787,0.246
				c0.239,0.165,0.43,0.402,0.57,0.712c0.14,0.311,0.211,0.682,0.211,1.114C223.352,483.62,223.282,484.004,223.141,484.311z"/>
			<path id="XMLID_933_" style="fill:#1B3067;" d="M233.586,480.274c-0.407-0.254-0.878-0.382-1.416-0.382
				c-0.467,0-0.859,0.084-1.175,0.252c-0.317,0.168-0.627,0.411-0.932,0.727v-2.475c0-0.297-0.068-0.524-0.202-0.685
				c-0.134-0.16-0.326-0.24-0.575-0.24c-0.237,0-0.423,0.084-0.555,0.252c-0.132,0.168-0.198,0.416-0.198,0.744v7.075
				c0,0.305,0.068,0.535,0.205,0.692c0.136,0.156,0.319,0.234,0.549,0.234c0.226,0,0.412-0.077,0.558-0.234
				c0.146-0.157,0.22-0.387,0.22-0.692v-0.16c0.178,0.205,0.322,0.361,0.43,0.463c0.109,0.103,0.241,0.203,0.395,0.3
				c0.154,0.098,0.341,0.175,0.561,0.234c0.22,0.06,0.454,0.089,0.704,0.089c0.407,0,0.781-0.082,1.119-0.246
				c0.338-0.164,0.626-0.397,0.864-0.698c0.237-0.3,0.418-0.656,0.543-1.065c0.124-0.41,0.187-0.859,0.187-1.35
				c0-0.665-0.112-1.241-0.336-1.725C234.305,480.9,233.991,480.53,233.586,480.274z M232.796,484.685
				c-0.295,0.355-0.646,0.531-1.053,0.531c-0.479,0-0.866-0.174-1.161-0.521c-0.295-0.346-0.442-0.841-0.442-1.487
				c0-0.439,0.069-0.818,0.208-1.136c0.138-0.319,0.328-0.562,0.57-0.73c0.24-0.168,0.516-0.253,0.825-0.253
				c0.3,0,0.564,0.085,0.79,0.253c0.225,0.168,0.399,0.406,0.522,0.715c0.123,0.308,0.184,0.677,0.184,1.104
				C233.238,483.823,233.09,484.33,232.796,484.685z"/>
			<path id="XMLID_931_" style="fill:#1B3067;" d="M240.529,479.978c-0.112-0.066-0.229-0.098-0.353-0.098
				c-0.171,0-0.303,0.03-0.395,0.09c-0.093,0.058-0.181,0.173-0.264,0.344c-0.083,0.17-0.176,0.406-0.279,0.706l-1.3,3.71
				l-1.371-3.988c-0.091-0.277-0.195-0.489-0.314-0.638c-0.119-0.148-0.295-0.223-0.528-0.223c-0.135,0-0.264,0.035-0.389,0.107
				c-0.124,0.071-0.222,0.166-0.294,0.285c-0.071,0.118-0.107,0.246-0.107,0.385c0,0.13,0.062,0.341,0.184,0.628l1.994,5.022
				l-0.148,0.362c-0.111,0.265-0.209,0.466-0.294,0.601c-0.085,0.138-0.181,0.234-0.287,0.289c-0.107,0.056-0.254,0.084-0.44,0.084
				c-0.074,0-0.163-0.012-0.266-0.035c-0.083-0.024-0.168-0.037-0.256-0.037c-0.221,0-0.388,0.051-0.5,0.152
				c-0.113,0.101-0.17,0.245-0.17,0.43c0,0.273,0.118,0.461,0.356,0.564c0.237,0.102,0.593,0.154,1.068,0.154
				c0.487,0,0.873-0.074,1.161-0.223c0.287-0.148,0.517-0.361,0.691-0.638c0.175-0.277,0.353-0.659,0.535-1.145l2.113-5.532
				c0.051-0.142,0.095-0.283,0.13-0.421c0.037-0.139,0.061-0.246,0.078-0.321c0-0.123-0.032-0.239-0.093-0.35
				C240.729,480.131,240.642,480.043,240.529,479.978z"/>
		</g>
		<g id="XMLID_365_">
			<g id="XMLID_380_">
				<path id="XMLID_928_" style="fill:#1B3067;" d="M262.93,477.465c-0.533,0-0.954,0.069-1.26,0.204
					c-0.307,0.137-0.527,0.354-0.654,0.652c-0.129,0.301-0.191,0.702-0.191,1.211v0.487h-0.387c-0.543,0-0.815,0.192-0.815,0.582
					c0,0.174,0.066,0.316,0.197,0.424c0.132,0.111,0.315,0.164,0.558,0.164h0.447v4.294c0,0.319,0.074,0.563,0.227,0.73
					c0.154,0.17,0.344,0.254,0.574,0.254c0.243,0,0.438-0.084,0.589-0.254c0.156-0.167,0.231-0.411,0.231-0.73v-4.294h0.395
					c0.29,0,0.517-0.035,0.68-0.107c0.166-0.071,0.245-0.24,0.245-0.502c0-0.374-0.306-0.56-0.926-0.56h-0.395v-0.386
					c0-0.322,0.043-0.568,0.122-0.74c0.087-0.172,0.273-0.259,0.566-0.259c0.107,0,0.241,0.014,0.389,0.034
					c0.156,0.026,0.267,0.038,0.329,0.038c0.134,0,0.252-0.054,0.348-0.16c0.101-0.108,0.15-0.236,0.15-0.385
					C264.35,477.695,263.879,477.465,262.93,477.465z"/>
				<path id="XMLID_926_" style="fill:#1B3067;" d="M268.089,480.132c-0.32-0.171-0.647-0.255-0.99-0.255
					c-0.342,0-0.611,0.084-0.818,0.255c-0.203,0.171-0.4,0.421-0.592,0.755c-0.014-0.334-0.08-0.584-0.198-0.755
					c-0.119-0.171-0.313-0.255-0.583-0.255c-0.525,0-0.788,0.364-0.788,1.093v4.513c0,0.323,0.078,0.569,0.225,0.733
					c0.15,0.168,0.341,0.25,0.579,0.25c0.237,0,0.432-0.081,0.586-0.247c0.151-0.163,0.234-0.41,0.234-0.737v-1.355
					c0-0.486,0.014-0.899,0.044-1.239c0.034-0.336,0.09-0.63,0.17-0.878c0.083-0.243,0.201-0.425,0.353-0.553
					c0.15-0.122,0.345-0.186,0.582-0.186c0.171,0,0.373,0.037,0.602,0.108c0.226,0.073,0.371,0.112,0.433,0.112
					c0.157,0,0.304-0.064,0.441-0.195c0.135-0.126,0.204-0.292,0.204-0.488C268.571,480.529,268.411,480.302,268.089,480.132z"/>
				<path id="XMLID_922_" style="fill:#1B3067;" d="M274.176,483.389c0.233-0.122,0.351-0.386,0.351-0.792
					c0-0.441-0.113-0.87-0.339-1.296c-0.222-0.423-0.566-0.77-1.018-1.034c-0.454-0.27-0.997-0.403-1.629-0.403
					c-0.488,0-0.931,0.078-1.33,0.233c-0.401,0.156-0.735,0.38-1.007,0.674c-0.276,0.295-0.484,0.643-0.624,1.055
					c-0.144,0.41-0.217,0.855-0.217,1.333c0,1.017,0.292,1.823,0.87,2.418c0.577,0.593,1.385,0.888,2.429,0.888
					c0.453,0,0.857-0.06,1.207-0.179c0.349-0.117,0.639-0.268,0.874-0.446c0.232-0.182,0.405-0.368,0.522-0.566
					c0.112-0.195,0.167-0.365,0.167-0.512c0-0.167-0.048-0.294-0.152-0.386c-0.105-0.092-0.238-0.139-0.406-0.139
					c-0.152,0-0.271,0.038-0.355,0.109c-0.202,0.189-0.367,0.34-0.494,0.449c-0.127,0.113-0.264,0.217-0.415,0.312
					c-0.15,0.097-0.307,0.17-0.466,0.213c-0.16,0.048-0.336,0.069-0.531,0.069c-0.29,0-0.552-0.07-0.793-0.212
					c-0.24-0.145-0.431-0.356-0.578-0.635c-0.144-0.281-0.216-0.607-0.222-0.974h3.171
					C273.615,483.57,273.943,483.51,274.176,483.389z M270.021,482.649c0.054-0.546,0.213-0.957,0.472-1.236
					c0.259-0.28,0.591-0.417,0.995-0.417c0.426,0,0.764,0.136,1.025,0.413c0.26,0.273,0.407,0.688,0.446,1.241H270.021z"/>
				<path id="XMLID_919_" style="fill:#1B3067;" d="M280.916,483.389c0.231-0.122,0.351-0.386,0.351-0.792
					c0-0.441-0.116-0.87-0.34-1.296c-0.222-0.423-0.563-0.77-1.013-1.034c-0.46-0.27-1.003-0.403-1.633-0.403
					c-0.486,0-0.932,0.078-1.33,0.233c-0.401,0.156-0.737,0.38-1.009,0.674c-0.273,0.295-0.481,0.643-0.622,1.055
					c-0.145,0.41-0.217,0.855-0.217,1.333c0,1.017,0.29,1.823,0.868,2.418c0.58,0.593,1.387,0.888,2.429,0.888
					c0.453,0,0.86-0.06,1.208-0.179c0.347-0.117,0.641-0.268,0.872-0.446c0.234-0.182,0.408-0.368,0.519-0.566
					c0.116-0.195,0.171-0.365,0.171-0.512c0-0.167-0.047-0.294-0.15-0.386c-0.104-0.092-0.239-0.139-0.406-0.139
					c-0.151,0-0.27,0.038-0.355,0.109c-0.203,0.189-0.368,0.34-0.492,0.449c-0.128,0.113-0.264,0.217-0.415,0.312
					c-0.153,0.097-0.307,0.17-0.469,0.213c-0.157,0.048-0.336,0.069-0.528,0.069c-0.291,0-0.555-0.07-0.795-0.212
					c-0.238-0.145-0.431-0.356-0.575-0.635c-0.143-0.281-0.218-0.607-0.222-0.974h3.17
					C280.354,483.57,280.682,483.51,280.916,483.389z M276.762,482.649c0.053-0.546,0.211-0.957,0.469-1.236
					c0.261-0.28,0.592-0.417,0.995-0.417c0.425,0,0.763,0.136,1.026,0.413c0.257,0.273,0.407,0.688,0.447,1.241H276.762z"/>
				<path id="XMLID_390_" style="fill:#1B3067;" d="M286.926,480.274c-0.42-0.256-0.882-0.386-1.379-0.386
					c-0.415,0-0.79,0.089-1.114,0.267c-0.331,0.176-0.649,0.452-0.953,0.828v-0.195c0-0.296-0.071-0.519-0.218-0.677
					c-0.143-0.156-0.329-0.234-0.56-0.234c-0.233,0-0.418,0.078-0.553,0.228c-0.134,0.155-0.2,0.382-0.2,0.692v6.994
					c0,0.355,0.051,0.62,0.146,0.807c0.102,0.183,0.301,0.275,0.607,0.275c0.518,0,0.777-0.359,0.777-1.068v-2.433
					c0.287,0.358,0.586,0.634,0.901,0.816c0.314,0.187,0.704,0.28,1.165,0.28c0.385,0,0.741-0.076,1.079-0.227
					c0.334-0.153,0.622-0.372,0.868-0.654c0.245-0.283,0.441-0.632,0.58-1.05c0.14-0.419,0.21-0.878,0.21-1.376
					c0-0.677-0.122-1.261-0.366-1.758C287.675,480.908,287.346,480.532,286.926,480.274z M286.451,484.277
					c-0.137,0.313-0.32,0.546-0.552,0.704c-0.229,0.154-0.48,0.232-0.748,0.232c-0.454,0-0.828-0.179-1.133-0.536
					c-0.306-0.358-0.459-0.862-0.459-1.504c0-0.686,0.154-1.204,0.462-1.558c0.306-0.35,0.684-0.527,1.13-0.527
					c0.281,0,0.541,0.084,0.77,0.248c0.229,0.163,0.411,0.397,0.541,0.705c0.13,0.306,0.196,0.674,0.196,1.101
					C286.658,483.585,286.588,483.963,286.451,484.277z"/>
				<path id="XMLID_389_" style="fill:#1B3067;" d="M289.9,479.876c-0.238,0-0.428,0.079-0.58,0.245
					c-0.146,0.162-0.222,0.403-0.222,0.721v4.641c0,0.313,0.076,0.555,0.222,0.729c0.152,0.17,0.342,0.254,0.58,0.254
					c0.238,0,0.432-0.082,0.588-0.25c0.154-0.165,0.231-0.41,0.231-0.732v-4.688c0-0.287-0.078-0.513-0.231-0.675
					C290.332,479.956,290.138,479.876,289.9,479.876z"/>
				<path id="XMLID_388_" style="fill:#1B3067;" d="M289.917,477.536c-0.217,0-0.408,0.076-0.571,0.223
					c-0.166,0.149-0.248,0.339-0.248,0.568c0,0.253,0.081,0.447,0.242,0.586c0.159,0.138,0.35,0.209,0.577,0.209
					c0.22,0,0.408-0.071,0.566-0.209c0.157-0.14,0.236-0.335,0.236-0.585c0-0.257-0.082-0.454-0.244-0.591
					C290.314,477.603,290.13,477.536,289.917,477.536z"/>
				<path id="XMLID_387_" style="fill:#1B3067;" d="M297.258,484.906l-1.662-2.614l0.86-0.789c0.438-0.395,0.659-0.714,0.659-0.951
					c0-0.192-0.068-0.355-0.2-0.483c-0.139-0.128-0.306-0.193-0.51-0.193c-0.168,0-0.313,0.043-0.431,0.13
					c-0.121,0.086-0.29,0.251-0.517,0.486l-1.822,1.914v-3.933c0-0.329-0.075-0.582-0.221-0.751
					c-0.148-0.172-0.344-0.258-0.593-0.258c-0.255,0-0.456,0.093-0.596,0.283c-0.135,0.189-0.207,0.462-0.207,0.821v6.913
					c0,0.323,0.073,0.569,0.215,0.733c0.141,0.168,0.339,0.25,0.588,0.25c0.213,0,0.406-0.084,0.566-0.254
					c0.165-0.167,0.248-0.406,0.248-0.718v-1.291l0.88-0.83l1.427,2.353c0.181,0.278,0.329,0.471,0.436,0.58
					c0.106,0.109,0.26,0.16,0.458,0.16c0.226,0,0.413-0.073,0.553-0.221c0.142-0.151,0.214-0.352,0.214-0.61
					c0-0.089-0.029-0.19-0.082-0.289C297.469,485.246,297.379,485.102,297.258,484.906z"/>
				<path id="XMLID_386_" style="fill:#1B3067;" d="M299.45,484.68c-0.25,0-0.458,0.087-0.63,0.261
					c-0.17,0.173-0.256,0.381-0.256,0.622c0,0.287,0.09,0.51,0.268,0.665c0.179,0.159,0.389,0.238,0.634,0.238
					c0.237,0,0.444-0.079,0.624-0.241c0.174-0.157,0.264-0.38,0.264-0.662c0-0.243-0.089-0.454-0.264-0.626
					C299.909,484.766,299.698,484.68,299.45,484.68z"/>
				<path id="XMLID_385_" style="fill:#1B3067;" d="M306.835,483.753c-0.167,0-0.308,0.054-0.422,0.156
					c-0.113,0.104-0.219,0.245-0.318,0.427c-0.177,0.309-0.381,0.538-0.616,0.689c-0.231,0.15-0.509,0.225-0.835,0.225
					c-0.24,0-0.463-0.045-0.665-0.141c-0.201-0.093-0.372-0.229-0.516-0.409c-0.143-0.18-0.252-0.398-0.325-0.652
					c-0.075-0.256-0.114-0.537-0.114-0.842c0-0.646,0.147-1.161,0.439-1.534c0.294-0.375,0.682-0.561,1.158-0.561
					c0.333,0,0.607,0.075,0.821,0.227c0.219,0.148,0.424,0.375,0.622,0.674c0.109,0.158,0.209,0.269,0.299,0.339
					c0.09,0.068,0.201,0.104,0.338,0.104c0.202,0,0.377-0.068,0.524-0.203c0.143-0.135,0.214-0.3,0.214-0.492
					c0-0.192-0.063-0.397-0.192-0.617c-0.128-0.218-0.314-0.424-0.556-0.62c-0.245-0.192-0.54-0.352-0.89-0.474
					c-0.353-0.123-0.737-0.184-1.157-0.184c-0.674,0-1.26,0.138-1.747,0.419c-0.486,0.279-0.859,0.674-1.113,1.183
					c-0.259,0.511-0.387,1.098-0.387,1.765c0,0.981,0.281,1.764,0.841,2.349c0.562,0.582,1.344,0.876,2.348,0.876
					c0.469,0,0.893-0.065,1.269-0.192c0.377-0.126,0.688-0.295,0.934-0.502c0.249-0.207,0.434-0.425,0.553-0.656
					c0.121-0.229,0.182-0.446,0.182-0.646c0-0.169-0.066-0.331-0.198-0.481C307.198,483.83,307.033,483.753,306.835,483.753z"/>
				<path id="XMLID_382_" style="fill:#1B3067;" d="M313.647,480.789c-0.288-0.29-0.629-0.517-1.027-0.674
					c-0.4-0.161-0.846-0.239-1.336-0.239c-0.483,0-0.924,0.078-1.326,0.234c-0.399,0.158-0.737,0.38-1.019,0.669
					c-0.281,0.288-0.498,0.637-0.649,1.045c-0.146,0.408-0.224,0.858-0.224,1.349c0,0.485,0.076,0.929,0.219,1.332
					c0.152,0.402,0.369,0.75,0.657,1.048c0.285,0.292,0.627,0.521,1.016,0.676c0.392,0.159,0.835,0.239,1.326,0.239
					c0.492,0,0.937-0.08,1.336-0.234c0.394-0.158,0.735-0.382,1.02-0.675c0.286-0.291,0.502-0.641,0.656-1.05
					c0.146-0.408,0.222-0.855,0.222-1.336c0-0.489-0.075-0.932-0.221-1.339C314.148,481.433,313.933,481.086,313.647,480.789z
					 M312.455,484.705c-0.29,0.372-0.682,0.557-1.171,0.557c-0.324,0-0.605-0.086-0.846-0.253c-0.24-0.168-0.424-0.409-0.553-0.729
					c-0.129-0.317-0.193-0.684-0.193-1.108c0-0.428,0.066-0.803,0.197-1.125c0.131-0.321,0.314-0.563,0.556-0.727
					c0.242-0.164,0.522-0.246,0.84-0.246c0.489,0,0.881,0.182,1.171,0.555c0.289,0.367,0.436,0.881,0.436,1.543
					C312.891,483.823,312.744,484.336,312.455,484.705z"/>
				<path id="XMLID_381_" style="fill:#1B3067;" d="M323.569,480.15c-0.32-0.173-0.705-0.262-1.146-0.262
					c-0.381,0-0.726,0.081-1.039,0.241c-0.313,0.161-0.606,0.408-0.881,0.738c-0.192-0.326-0.431-0.572-0.725-0.735
					c-0.292-0.162-0.641-0.243-1.048-0.243c-0.394,0-0.747,0.079-1.07,0.241c-0.319,0.156-0.619,0.403-0.902,0.738v-0.153
					c0-0.261-0.074-0.466-0.222-0.616c-0.15-0.145-0.334-0.222-0.557-0.222c-0.227,0-0.412,0.078-0.555,0.239
					c-0.14,0.157-0.21,0.389-0.21,0.694v4.636c0,0.336,0.078,0.591,0.235,0.765c0.156,0.171,0.357,0.257,0.604,0.257
					c0.248,0,0.447-0.087,0.603-0.257c0.15-0.173,0.226-0.428,0.226-0.765v-2.188c0-0.684,0.086-1.207,0.253-1.566
					c0.168-0.369,0.516-0.55,1.048-0.55c0.264,0,0.459,0.072,0.582,0.22c0.121,0.142,0.198,0.331,0.226,0.552
					c0.027,0.226,0.04,0.544,0.04,0.953v2.581c0,0.341,0.078,0.594,0.232,0.767c0.148,0.17,0.349,0.255,0.594,0.255
					c0.254,0,0.455-0.085,0.611-0.255c0.156-0.173,0.231-0.426,0.231-0.767v-2.153c0-0.694,0.062-1.178,0.178-1.452
					c0.109-0.209,0.259-0.383,0.45-0.508c0.192-0.125,0.396-0.191,0.609-0.191c0.264,0,0.463,0.072,0.596,0.215
					c0.128,0.142,0.209,0.319,0.239,0.529c0.029,0.209,0.043,0.486,0.043,0.836v2.725c0,0.336,0.079,0.591,0.235,0.765
					c0.157,0.171,0.356,0.257,0.603,0.257c0.253,0,0.458-0.085,0.612-0.255c0.154-0.173,0.229-0.426,0.229-0.767v-3.163
					c0-0.629-0.068-1.091-0.206-1.385C324.128,480.574,323.888,480.324,323.569,480.15z"/>
			</g>
			<g id="XMLID_366_">
				<path id="XMLID_379_" style="fill:#1B3067;" d="M245.273,482.781c-0.001-0.004-0.001-0.006-0.001-0.011
					C245.272,482.774,245.272,482.777,245.273,482.781z"/>
				<path id="XMLID_378_" style="fill:#1B3067;" d="M245.355,483.298c0.001,0,0.001,0,0.001,0c-0.031-0.147-0.055-0.294-0.073-0.438
					C245.301,483.006,245.326,483.153,245.355,483.298z"/>
				<path id="XMLID_377_" style="fill:#1B3067;" d="M245.891,484.802c-0.004-0.006-0.007-0.013-0.01-0.021
					C245.885,484.789,245.888,484.796,245.891,484.802z"/>
				<path id="XMLID_376_" style="fill:#1B3067;" d="M245.84,484.702c-0.014-0.027-0.027-0.056-0.041-0.084
					C245.813,484.648,245.826,484.675,245.84,484.702z"/>
				<path id="XMLID_375_" style="fill:#1B3067;" d="M245.506,483.878c0.079,0.25,0.175,0.492,0.286,0.724
					c-0.113-0.236-0.206-0.479-0.284-0.724H245.506z"/>
				<path id="XMLID_374_" style="fill:#1B3067;" d="M250.736,476.018l-0.076-0.259c0.299-0.063,0.524-0.329,0.524-0.646
					c0-0.364-0.297-0.659-0.66-0.659c-0.365,0-0.66,0.295-0.66,0.659c0,0.317,0.225,0.583,0.522,0.646l0.084,0.289
					c-1.021,0.14-1.834,0.539-1.834,0.539l0.144,0.441c0.618-0.206,1.153-0.331,1.64-0.383c0.476-0.051,0.834-0.073,1.126-0.073
					c0.314,0,0.544,0.025,0.809,0.069l0.075-0.476C252.429,476.164,251.698,475.939,250.736,476.018z"/>
				<path id="XMLID_373_" style="fill:#1B3067;" d="M245.453,478.525c-0.017,0.024-0.497,0.465-0.876,1.28
					c-0.016-0.026-0.035-0.051-0.056-0.074c-0.113-0.124-0.272-0.187-0.474-0.184c-0.002,0-0.006,0-0.01,0
					c-0.125,0-0.21-0.042-0.266-0.092c0.056-0.071,0.089-0.16,0.089-0.258c0-0.231-0.187-0.419-0.419-0.419
					c-0.23,0-0.417,0.188-0.417,0.419c0,0.231,0.187,0.417,0.417,0.417c0.037,0,0.071-0.005,0.105-0.012
					c0.103,0.113,0.266,0.214,0.504,0.209c0.123-0.001,0.214,0.03,0.273,0.097c0.07,0.076,0.093,0.185,0.1,0.267
					c-0.001,0.002-0.001,0.004-0.002,0.004c-0.272,0.743-0.195,1.668-0.195,1.668l0.661,0.026c0.013-0.336,0.062-0.926,0.232-1.393
					c0.328-0.906,0.741-1.472,0.757-1.496l0.004-0.005c0.024-0.031,0.047-0.06,0.071-0.089l-0.196-0.142L245.453,478.525z"/>
				<path id="XMLID_372_" style="fill:#1B3067;" d="M257.293,477.124c-0.23,0-0.418,0.187-0.418,0.417
					c0,0.037,0.006,0.071,0.015,0.104c-0.115,0.104-0.214,0.267-0.211,0.507c0.002,0.123-0.03,0.212-0.096,0.273
					c-0.053,0.047-0.12,0.072-0.185,0.088c-0.492-0.689-1.097-1.109-1.097-1.109l-0.474,0.508c0.358,0.326,0.724,0.734,1.08,1.244
					c0.246,0.352,0.499,0.806,0.71,1.259l0.64-0.304c0,0-0.292-0.722-0.704-1.369c0.071-0.025,0.143-0.064,0.207-0.12
					c0.125-0.113,0.187-0.273,0.183-0.473c-0.001-0.13,0.041-0.218,0.093-0.276c0.071,0.054,0.16,0.089,0.257,0.089
					c0.232,0,0.419-0.187,0.419-0.419C257.712,477.31,257.525,477.124,257.293,477.124z"/>
				<path id="XMLID_371_" style="fill:#1B3067;" d="M255.633,482.874c-0.881,0.429-2.33,0.996-4.237,1.262
					c-0.749,0.104-1.474,0.142-2.143,0.142c-0.869,0-1.637-0.065-2.226-0.139c-0.673-0.085-1.198-0.188-1.52-0.261
					c0.078,0.245,0.171,0.487,0.284,0.724c0.002,0.006,0.005,0.013,0.008,0.017c0.013,0.027,0.027,0.056,0.041,0.084
					c0.013,0.027,0.027,0.054,0.041,0.079c0.004,0.007,0.007,0.015,0.01,0.021c0.189,0.357,0.417,0.684,0.675,0.968
					c0.9,0.984,1.816,1.139,1.825,1.141l0.015,0.002l0.013,0.005c0.009,0.003,0.821,0.265,2.056,0.265
					c1.216,0,2.409-0.245,3.546-0.729c0.842-0.431,1.639-1.085,2.033-1.668c0.305-0.452,0.526-0.934,0.656-1.434
					c0.07-0.266,0.125-0.693,0.092-1.141C256.555,482.378,256.163,482.616,255.633,482.874z"/>
				<path id="XMLID_367_" style="fill:#1B3067;" d="M252.322,476.992c-0.264-0.043-0.477-0.068-0.777-0.068
					c-0.279,0-0.626,0.022-1.089,0.071c-0.465,0.049-0.982,0.171-1.583,0.373c-0.842,0.282-1.604,0.724-2.204,1.28l-0.02,0.019
					c-0.089,0.081-0.275,0.254-0.488,0.525c-0.026,0.037-0.408,0.578-0.709,1.408c-0.226,0.622-0.216,1.527-0.216,1.537v0.002
					c0,0.212,0.012,0.423,0.036,0.632c0,0.005,0,0.007,0.001,0.011c0.002,0.027,0.007,0.052,0.01,0.079
					c0.018,0.144,0.043,0.291,0.074,0.438c0.438,0.112,3.048,0.721,5.966,0.314c1.829-0.255,3.218-0.795,4.061-1.204
					c0.701-0.34,1.151-0.647,1.325-0.774c-0.173-0.642-0.651-1.65-1.089-2.279C254.367,477.565,253.016,477.106,252.322,476.992z
					 M248.679,482.25c-0.971,0-1.759-0.787-1.759-1.759c0-0.972,0.788-1.761,1.759-1.761c0.973,0,1.76,0.788,1.76,1.761
					C250.439,481.464,249.652,482.25,248.679,482.25z M253.828,480.953c-0.601,0-1.089-0.489-1.089-1.09
					c0-0.602,0.488-1.089,1.089-1.089c0.601,0,1.089,0.487,1.089,1.089C254.918,480.465,254.429,480.953,253.828,480.953z"/>
			</g>
		</g>
	</g>
</g>
</svg>
