<?xml version="1.0" encoding="utf-8"?>
<!-- Generator: Adobe Illustrator 27.5.0, SVG Export Plug-In . SVG Version: 6.00 Build 0)  -->
<svg version="1.1" xmlns="http://www.w3.org/2000/svg" xmlns:xlink="http://www.w3.org/1999/xlink" x="0px" y="0px"
	 viewBox="0 0 750 500" style="enable-background:new 0 0 750 500;" xml:space="preserve">
<g id="BACKGROUND_1_">
	<rect style="fill:#FFFFFF;" width="750" height="500"/>
</g>
<g id="OBJECTS">
	<linearGradient id="SVGID_1_" gradientUnits="userSpaceOnUse" x1="378.7122" y1="425.0564" x2="378.7122" y2="65.811">
		<stop  offset="0" style="stop-color:#A3CAE2"/>
		<stop  offset="0.5945" style="stop-color:#CBE4F7"/>
	</linearGradient>
	<path style="fill:url(#SVGID_1_);" d="M122.824,425.056c-25.055-36.791-40.615-96.386-8.176-122.896
		c32.439-26.51,70.417,5.929,70.417,5.929s-63.824-147.165,4.747-183.56s106.781,61.938,106.781,61.938
		s-3.66-105.982,57.263-119.433c60.923-13.451,86.637,88.438,86.637,88.438s3.341-70.24,78.22-60.745s38.519,136.483,38.519,136.483
		s35.964-33.231,77.503-8.308c41.538,24.923-25.319,112.515-25.319,112.515s38.374-10.449,49.451,19.222
		c11.077,29.67-22.154,70.363-22.154,70.363L122.824,425.056z"/>
	<g>
		<polygon style="fill:#4891CC;" points="357.197,124.529 491.043,124.529 468.978,206.287 335.132,206.287 		"/>
		<polygon style="fill:#4891CC;" points="252.956,164.238 304.78,164.238 330.121,206.287 278.297,206.287 		"/>
		<g>
			<g>
				<path style="fill:#FFADB7;" d="M306.903,147.522l-11.011-1.103l4.658,9.053l0,0c8.455,5.527,15.232,8.075,15.232,8.075
					l2.184-5.162C314.098,155.852,310.395,152.017,306.903,147.522z"/>
				<path style="fill:#7BC4B3;" d="M306.903,147.522c-11.565-14.887-20.795-37.108-25.869-44.039
					c-4.071-5.56-19.26,1.986-5.858,25.912c6.714,11.985,16.889,20.531,25.374,26.077L306.903,147.522z"/>
				
					<linearGradient id="SVGID_00000090265556739934179860000015787932434097076900_" gradientUnits="userSpaceOnUse" x1="266.8477" y1="113.5167" x2="293.1147" y2="128.682">
					<stop  offset="0" style="stop-color:#000000"/>
					<stop  offset="0.9" style="stop-color:#000000;stop-opacity:0"/>
				</linearGradient>
				<path style="opacity:0.5;fill:url(#SVGID_00000090265556739934179860000015787932434097076900_);" d="M291.22,121.922
					c-4.243-8.034-7.71-15.058-10.186-18.44c-4.071-5.56-19.26,1.986-5.858,25.912c2.809,5.014,6.227,9.419,9.871,13.261
					C287.17,137.589,289.746,127.833,291.22,121.922z"/>
			</g>
			<g>
				
					<rect x="304.527" y="151.807" transform="matrix(0.9671 0.2544 -0.2544 0.9671 56.1357 -77.2303)" style="fill:#F98091;" width="44.335" height="53.275"/>
				
					<rect x="347.825" y="159.83" transform="matrix(0.9671 0.2544 -0.2544 0.9671 59.181 -84.7267)" style="fill:#ED6279;" width="18.744" height="53.275"/>
			</g>
			<g>
				<path style="fill:#01004C;" d="M280.65,98.666c-1.031-3.016-2.228-11.312,2.798-13.945c0,0,2.872-8.136,9.253-6.86
					c6.381,1.276,18.666,2.313,17.389,14.358c-1.276,12.045-12.603,6.891-12.603,6.891L280.65,98.666z"/>
				<path style="fill:#FFADB7;" d="M277.544,101.472c0,0,0.389,2.238,4.218,5.109l3.919-3.434c0,0,6.94,8.136,13.082,0.346
					c0,0,0.657,0.749,1.658,1.119c0,0,0.655-5.692,3.447-8.723c0,0-5.265-5.584-8.535-3.988c-3.27,1.595-4.148,2.154-4.387,0.718
					c-0.239-1.436,2.074-3.829-0.952-5.105c-3.025-1.276-5.43,3.271-4.153,6.461L277.544,101.472z"/>
				
					<radialGradient id="SVGID_00000180335680605712877210000016001169147480393906_" cx="293.3303" cy="104.5108" r="3.4827" gradientTransform="matrix(0.9985 -0.0544 0.0544 0.9985 -6.1662 12.9998)" gradientUnits="userSpaceOnUse">
					<stop  offset="0" style="stop-color:#000000"/>
					<stop  offset="1" style="stop-color:#000000;stop-opacity:0"/>
				</radialGradient>
				<path style="opacity:0.51;fill:url(#SVGID_00000180335680605712877210000016001169147480393906_);" d="M295.887,101.207
					c-0.105-1.921-1.746-3.393-3.667-3.288c-1.921,0.105-3.393,1.746-3.288,3.667c0.105,1.921,1.746,3.393,3.667,3.288
					C294.519,104.77,295.992,103.128,295.887,101.207z"/>
				<path style="fill:none;stroke:#EF8998;stroke-width:0.5;stroke-linecap:round;stroke-miterlimit:10;" d="M297.681,97.08
					c0,0,2.027,0.168,2.027,2.196"/>
				<g>
					<path style="fill:none;stroke:#EF8998;stroke-width:0.5;stroke-linecap:round;stroke-miterlimit:10;" d="M286.727,91.488
						c0.088-0.711,0.334-1.414,0.725-1.991c0.254-0.375,0.787-1.004,1.499-1.004c0.184,0,0.377,0.042,0.576,0.126"/>
					<path style="fill:none;stroke:#EF8998;stroke-width:0.5;stroke-linecap:round;stroke-miterlimit:10;" d="M287.592,89.306
						c0,0,0.348,0.624,0.925,0.987"/>
				</g>
				
					<linearGradient id="SVGID_00000156546255792739121580000007326672559549350571_" gradientUnits="userSpaceOnUse" x1="283.1216" y1="102.4925" x2="285.5846" y2="102.2337">
					<stop  offset="0.2087" style="stop-color:#000000;stop-opacity:0"/>
					<stop  offset="1" style="stop-color:#000000"/>
				</linearGradient>
				<path style="opacity:0.75;fill:url(#SVGID_00000156546255792739121580000007326672559549350571_);" d="M283.765,104.826
					L283.765,104.826l1.916-1.679c-1.475-1.868-1.862-3.129-1.862-3.129S282.335,102.168,283.765,104.826z"/>
			</g>
			<g>
				<path style="fill:#282766;" d="M244.834,165.252c0,0-14.548,67.054-28.779,94.837l7.131,3.685c0,0,36.842-50.075,43.99-80.653
					L244.834,165.252z"/>
				<polygon style="fill:#F98091;" points="216.055,260.089 223.186,263.774 231.346,275.511 212.387,266.556 				"/>
				
					<linearGradient id="SVGID_00000070088051737009273190000006469047667526975159_" gradientUnits="userSpaceOnUse" x1="248.2276" y1="211.111" x2="255.9676" y2="167.2155">
					<stop  offset="0.0945" style="stop-color:#000000;stop-opacity:0"/>
					<stop  offset="1" style="stop-color:#000000"/>
				</linearGradient>
				<path style="opacity:0.5;fill:url(#SVGID_00000070088051737009273190000006469047667526975159_);" d="M244.834,165.252
					c0,0-3.643,16.789-9.065,37.046c2.359,3.047,7.799,7.808,19.616,10.075c5.313-10.261,9.756-20.547,11.792-29.252
					L244.834,165.252z"/>
			</g>
			<g>
				<path style="fill:#282766;" d="M267.333,217.158c6.701,15.339,7.023,53.008,7.023,53.008l7.901-0.025
					c11.516-48.399-8.173-105.983-8.173-105.983l-33.353,0.33C243.441,189.807,261.865,204.641,267.333,217.158z"/>
				<polygon style="fill:#F98091;" points="274.356,270.166 282.258,270.141 294.648,277.269 273.681,277.269 				"/>
			</g>
			<g>
				<path style="fill:#7BC4B3;" d="M240.731,164.489c13.434,2.93,26.471,1.453,33.353-0.33c0,0-2.513-26.608,5.678-39.366
					c7.454-11.611,5.396-31.324-12.586-21.782C236.363,119.363,240.731,164.489,240.731,164.489z"/>
				
					<linearGradient id="SVGID_00000160900041203621371090000016095540488221782929_" gradientUnits="userSpaceOnUse" x1="260.5848" y1="158.5123" x2="272.6098" y2="137.6845">
					<stop  offset="0.1" style="stop-color:#000000;stop-opacity:0"/>
					<stop  offset="1" style="stop-color:#000000"/>
				</linearGradient>
				<path style="opacity:0.5;fill:url(#SVGID_00000160900041203621371090000016095540488221782929_);" d="M274.913,139.014
					l-13.875-7.37c-3.313,12.401-9.454,31.516,12.864,29.887C273.659,157.126,273.423,147.862,274.913,139.014z"/>
			</g>
			<g>
				<path style="fill:#7BC4B3;" d="M279.644,149.548c-3.177-12.112,10.19-44.895-0.846-47.616
					c-17.721-4.368-24.545,42.013-9.504,58.99c3.772,4.257,8.088,7.234,12.438,9.307c0.001,0.001,0.003,0.001,0.004,0.002
					l5.409-9.754c0,0,0,0,0,0C283.627,157.566,280.781,153.884,279.644,149.548z"/>
				<path style="fill:#FFADB7;" d="M287.14,160.475l0-0.001c6.309,5.222,14.79,7.951,19.508,7.441c0,0,5.982-3.822,6.677-2.954
					c0.398,0.498-1.559,3.045-1.559,3.045s7.69-0.864,7.839-0.031c0.149,0.833-4.418,1.577-5.758,1.875c0,0,6.875-0.534,7.061,0.322
					c0.174,0.803-5.182,1.54-6.649,1.598c1.132-0.008,6.039,0.013,6.072,0.952c0.037,1.061-5.584,0.894-6.143,0.819
					c0,0,4.058,1.135,3.965,2.085c-0.093,0.949-6.739-0.093-10.127-1.098c0,0-13.299,1.891-26.294-4.3L287.14,160.475z"/>
			</g>
		</g>
		<rect x="196.1" y="277.269" style="fill:#4891CC;" width="139.032" height="147.733"/>
		<rect x="278.297" y="206.287" style="fill:#62A5E7;" width="138.857" height="218.715"/>
		<rect x="417.154" y="206.287" style="fill:#4891CC;" width="51.824" height="218.769"/>
		<polygon style="fill:#62A5E7;" points="494.319,164.238 442.494,164.238 417.154,206.287 468.978,206.287 		"/>
	</g>
	<g>
		<g>
			<g>
				<path style="fill:#01004C;" d="M245.072,299.562c-3.042-1.944-6.12-2.052-6.066-5.67c0.054-3.618-4.104-5.4,0.864-9.234
					c0,0-1.782-5.832,2.538-8.478c4.32-2.646,3.491-2.948,9.269-5.27c5.778-2.322,17.164,0.112,18.892,5.242
					c1.728,5.13-0.945,6.797,1.106,9.488c2.052,2.691-0.864,8.036-7.128,7.01c-6.264-1.026-16.254,6.912-16.254,6.912H245.072z"/>
				<path style="fill:#FFADB7;" d="M243.596,303.162l1.476-3.6c0,0,2.16-1.548,2.304-3.708s2.052-5.202,2.052-5.202
					s-3.877-4.972,0.108-7.02c3.888-1.998,2.016,4.482,4.392,4.77c2.376,0.288,3.744-5.724,12.528-2.808
					c0,0-1.415,5.786-1.236,9.566c0,0-1.36,0.188-2.398,0.039c0,0-0.471,6.419-5.906,6.342c-3.264-0.046-5.239-1.374-5.239-1.374
					l-1.961,5.082L243.596,303.162z"/>
				
					<radialGradient id="SVGID_00000145022715219992818740000003885752493653444281_" cx="248.2088" cy="296.1068" r="3.4827" gradientTransform="matrix(0.9985 -0.0544 0.0544 0.9985 -6.1662 12.9998)" gradientUnits="userSpaceOnUse">
					<stop  offset="0" style="stop-color:#000000"/>
					<stop  offset="1" style="stop-color:#000000;stop-opacity:0"/>
				</radialGradient>
				<path style="opacity:0.51;fill:url(#SVGID_00000145022715219992818740000003885752493653444281_);" d="M261.256,294.97
					c-0.105-1.921-1.746-3.393-3.667-3.288c-1.921,0.105-3.393,1.746-3.288,3.667c0.105,1.921,1.746,3.393,3.667,3.288
					C259.888,298.533,261.361,296.891,261.256,294.97z"/>
				<path style="fill:none;stroke:#EF8998;stroke-width:0.5;stroke-linecap:round;stroke-miterlimit:10;" d="M260.82,289.29
					c0,0,1.681-0.396,2.522,0.989"/>
				<g>
					<path style="fill:none;stroke:#EF8998;stroke-width:0.5;stroke-linecap:round;stroke-miterlimit:10;" d="M249.223,287.822
						c-0.233-0.63-0.365-1.296-0.238-1.864c0.075-0.336,0.27-0.832,1.1-1.259c0.45-0.231,0.667-0.249,0.722-0.249"/>
					
						<line style="fill:none;stroke:#EF8998;stroke-width:0.5;stroke-linecap:round;stroke-miterlimit:10;" x1="249.207" y1="285.426" x2="250.262" y2="286.136"/>
				</g>
				
					<linearGradient id="SVGID_00000094618364247538378040000016474119683869325188_" gradientUnits="userSpaceOnUse" x1="248.8001" y1="300.7127" x2="250.9869" y2="299.1815">
					<stop  offset="0.2087" style="stop-color:#000000;stop-opacity:0"/>
					<stop  offset="1" style="stop-color:#000000"/>
				</linearGradient>
				<path style="opacity:0.75;fill:url(#SVGID_00000094618364247538378040000016474119683869325188_);" d="M250.674,302.768
					L250.674,302.768l1.003-2.6c-2.009-0.781-3.308-2.52-3.308-2.52S247.987,301.04,250.674,302.768z"/>
			</g>
			<g>
				<path style="fill:#FFADB7;" d="M242.912,320.154c0,0,7.473,31.953,35.651,42.616l-3.251,6.56c0,0-27.072-8.064-42.624-31.968
					L242.912,320.154z"/>
				<path style="fill:#FCD98E;" d="M253.652,342.894c-8.089-11.415-10.74-22.74-10.74-22.74l-10.224,17.208
					c3.477,5.344,7.531,9.891,11.728,13.739C246.347,349.845,249.551,347.377,253.652,342.894z"/>
				
					<linearGradient id="SVGID_00000009587841223414399250000001030704679109828781_" gradientUnits="userSpaceOnUse" x1="255.5098" y1="350.2512" x2="235.4847" y2="326.3862">
					<stop  offset="0.1" style="stop-color:#000000;stop-opacity:0"/>
					<stop  offset="0.6969" style="stop-color:#000000"/>
				</linearGradient>
				<path style="opacity:0.5;fill:url(#SVGID_00000009587841223414399250000001030704679109828781_);" d="M255.74,345.667
					c-9.72-12.278-12.827-25.514-12.827-25.514l-10.224,17.208c4.852,7.458,10.826,13.374,16.75,17.984
					C250.933,353.721,253.72,350.319,255.74,345.667z"/>
			</g>
			<g>
				<path style="fill:#282766;" d="M238.449,379.121c0,0,4.793,45.144-35.383,45.144c-14.815,0-26.419-9.073-35.586-16.341
					l5.227-5.901c0,0,22.686,20.442,37.518,6.474c14.832-13.968,5.328-40.608,5.328-40.608L238.449,379.121z"/>
				<polygon style="fill:#F98091;" points="172.707,402.022 167.48,407.924 154.423,414.703 166.307,396.473 				"/>
				
					<linearGradient id="SVGID_00000089543636390075525520000008507380030970575773_" gradientUnits="userSpaceOnUse" x1="227.0889" y1="392.0047" x2="227.0889" y2="367.889">
					<stop  offset="0.0945" style="stop-color:#000000;stop-opacity:0"/>
					<stop  offset="1" style="stop-color:#000000"/>
				</linearGradient>
				<path style="opacity:0.5;fill:url(#SVGID_00000089543636390075525520000008507380030970575773_);" d="M215.553,367.889
					c0,0,3.855,10.83,2.811,22.299c6.356,1.307,13.88,2.114,19.702,1.714c0.97-7.218,0.382-12.781,0.382-12.781L215.553,367.889z"/>
			</g>
			<g>
				<path style="fill:#282766;" d="M213.249,365.441c0,0,16.416-5.616,32.616-6.696c16.2-1.08,36.288-0.864,39.96,12.744
					c3.672,13.608-11.448,46.439-11.448,46.439l-7.776-1.296c0,0,7.776-22.032,4.104-30.888
					c-3.672-8.856-10.368-10.152-21.816-5.832C237.441,384.233,216.705,389.201,213.249,365.441z"/>
				<polygon style="fill:#F98091;" points="266.6,416.633 274.376,417.928 287.053,425.394 265.295,425.002 				"/>
			</g>
			<g>
				
					<line style="fill:none;stroke:#FFFFFF;stroke-width:1.5;stroke-linecap:round;stroke-miterlimit:10;" x1="300.106" y1="331.941" x2="299.277" y2="338.198"/>
				<g>
					<path style="fill:#FFADB7;" d="M293.6,343.985c1.737,0.459,4.932,0.889,7.309-0.024c1.305-0.501,1.419-1.393,1.419-1.393
						c0.41-0.027,2.548-0.356,2.624-1.272c0.076-0.916-1.245-0.926-1.245-0.926c0.923-0.223,2-0.79,1.839-1.643
						c-0.161-0.853-2.551-0.353-2.551-0.353s-0.187-1.039-0.964-1.962c-0.777-0.923-1.837-1.793-2.12-1.023
						c-0.283,0.769,0.771,2.517,0.771,2.517c-1.704-0.131-3.131-0.932-3.131-0.932s1.815-0.796,1.472-1.906
						c-0.343-1.11-2.813-0.172-3.991,0.729c-1.178,0.901-1.863,1.347-2.439,2.139L293.6,343.985z"/>
					
						<path style="fill:none;stroke:#EF8998;stroke-width:0.5;stroke-linecap:round;stroke-linejoin:round;stroke-miterlimit:10;" d="
						M302.913,338.962c-0.22,0.509-0.806,0.894-1.467,0.999c-0.898,0.143-2.424-0.093-2.424-0.093"/>
					
						<path style="fill:none;stroke:#EF8998;stroke-width:0.5;stroke-linecap:round;stroke-linejoin:round;stroke-miterlimit:10;" d="
						M303.258,340.664c-0.941,0.492-2.562,0.769-4.277,0.626"/>
					
						<path style="fill:none;stroke:#EF8998;stroke-width:0.5;stroke-linecap:round;stroke-linejoin:round;stroke-miterlimit:10;" d="
						M301.814,342.66c-0.661,0.104-1.593,0.198-2.971,0.248"/>
				</g>
				<path style="fill:#FFADB7;" d="M261.88,325.122L261.88,325.122l-8.156,4.495l-0.28,8.192l0,0
					c16.882,9.747,40.156,6.176,40.156,6.176l-1.008-6.048C274.881,336.138,266.515,330.979,261.88,325.122z"/>
				<path style="fill:#FCD98E;" d="M246.08,302.725c-15.84-3.667-27.792,11.164-32.832,25.996
					c-5.04,14.832-2.016,39.168-2.016,39.168c9.296,2.441,23.76-0.864,34.632-9.144c-3.6-10.944-0.108-26.892-0.108-26.892
					c2.299,2.401,4.91,4.352,7.687,5.956l8.436-12.687C254.642,315.979,256.496,305.137,246.08,302.725z"/>
			</g>
		</g>
		<rect x="312.614" y="306.498" style="fill:none;" width="69.364" height="22.476"/>
		<text transform="matrix(1 0 0 1 316.5464 327.4976)" style="fill:#FFFFFF; font-family:'BebasNeueBold'; font-size:30px;">BRAND</text>
		
			<line style="fill:none;stroke:#FFFFFF;stroke-width:1.2;stroke-linecap:round;stroke-miterlimit:10;" x1="302.099" y1="331.418" x2="377.231" y2="331.418"/>
	</g>
	<g>
		<g>
			<path style="fill:#FFADB7;" d="M551.923,358.331c0,0-2.176,7.318,6.264,57.428l7.648-0.626c0,0-4.154-38.736,0.198-56.802
				H551.923z"/>
			<polygon style="fill:#01004C;" points="558.187,415.759 565.835,415.133 567.22,424.305 549.508,424.305 558.673,418.924 			"/>
			
				<linearGradient id="SVGID_00000067207888831421241060000016051926917678129325_" gradientUnits="userSpaceOnUse" x1="558.8522" y1="382.6897" x2="558.8522" y2="358.3311">
				<stop  offset="0.1" style="stop-color:#000000;stop-opacity:0"/>
				<stop  offset="1" style="stop-color:#000000"/>
			</linearGradient>
			<path style="opacity:0.5;fill:url(#SVGID_00000067207888831421241060000016051926917678129325_);" d="M553.282,382.69
				c3.726-0.165,7.384-0.507,10.766-1.095c0.011-8.587,0.505-17.121,1.985-23.264h-14.11
				C551.923,358.331,550.805,362.095,553.282,382.69z"/>
		</g>
		<g>
			<path style="fill:#FFADB7;" d="M527.923,358.331c-2.55,21.495,2.11,56.967,2.11,56.967h7.648c0,0-1.846-37.187,3.012-56.006
				L527.923,358.331z"/>
			<polygon style="fill:#01004C;" points="530.033,415.298 537.681,415.298 538.646,424.305 520.934,424.305 530.099,418.924 			"/>
			
				<linearGradient id="SVGID_00000115505278096247887390000011121781701758177431_" gradientUnits="userSpaceOnUse" x1="533.9274" y1="382.5349" x2="533.9274" y2="358.3311">
				<stop  offset="0.1" style="stop-color:#000000;stop-opacity:0"/>
				<stop  offset="1" style="stop-color:#000000"/>
			</linearGradient>
			<path style="opacity:0.5;fill:url(#SVGID_00000115505278096247887390000011121781701758177431_);" d="M527.305,381.709
				c2.981,0.306,6.557,0.613,10.43,0.826c0.44-8.416,1.315-16.879,2.957-23.243l-12.77-0.961
				C527.105,365.229,527.031,373.566,527.305,381.709z"/>
		</g>
		<path style="fill:#E95F5C;" d="M532.407,295.562c0,0-12.879,47.077-13.692,75.824c0,0,30.308,1.433,55.89-2.712
			c0,0-6.455-61.983-5.934-76.409L532.407,295.562z"/>
		<g>
			<path style="fill:#FFADB7;" d="M530.867,276.565l-9.154-4.848l-15.414,43.643c0,0-6.381,4.325-5.495,5.618
				c0.886,1.292,3.286-0.456,3.286-0.456s-3.944,8.482-2.096,8.886c1.036,0.226,3.117-6.549,3.117-6.549s-1.929,8.005-0.556,8.234
				c1.374,0.229,2.576-7.839,2.576-7.839s-0.242,7.565,0.819,7.553c1.061-0.012,1.792-7.421,1.792-7.421s-0.366,5.642,0.81,5.553
				c1.176-0.09,1.912-11.093,1.912-11.093C519.074,304.636,530.867,276.565,530.867,276.565z"/>
			<path style="fill:#FCD98E;" d="M521.713,271.717c3.344-11.87,7.672-26.287,20.799-29.201
				c13.127-2.914,27.667-0.189,27.739,21.477s-1.581,28.272-1.581,28.272l-36.264,3.297l-1.539-18.997L521.713,271.717z"/>
			<path style="fill:#FFADB7;" d="M540.306,243.15l5.51,10.411l6.492-11.967c-3.19-0.175-6.536,0.199-9.796,0.923
				C541.746,242.686,541.015,242.904,540.306,243.15z"/>
			
				<linearGradient id="SVGID_00000130648005128998958540000012012747713470106034_" gradientUnits="userSpaceOnUse" x1="562.0174" y1="284.1339" x2="549.9114" y2="263.1656">
				<stop  offset="0.1" style="stop-color:#000000;stop-opacity:0"/>
				<stop  offset="1" style="stop-color:#000000"/>
			</linearGradient>
			<path style="opacity:0.5;fill:url(#SVGID_00000130648005128998958540000012012747713470106034_);" d="M542.364,290.609
				c8.121,0.129,26.852-0.717,25.09-37.572l-12.037,10.173L542.364,290.609z"/>
		</g>
		<g>
			
				<rect x="480.753" y="244.107" transform="matrix(0.9884 0.1519 -0.1519 0.9884 45.6769 -71.9713)" style="fill:#FFFFFF;" width="26.207" height="37.682"/>
			<path style="fill:#FFADB7;" d="M507.413,261.005c0,0,3.217,2.514,3.399,4.41l-3.889-1.22L507.413,261.005z"/>
			<path style="fill:#FFADB7;" d="M559.623,276.192l-2.985-10.29l-8.992,2.692l0,0c-1.225,2.254-2.39,4.332-3.37,5.946
				c-1.206,1.988-3.448,3.565-5.589,2.66l-27.876-11.785l-3.124-2.082c0,0-7.993-3.204-8.177-1.547
				c-0.087,0.778,1.561,1.635,3.333,2.328c-1.714-0.442-3.315-0.648-3.347,0.12c-0.036,0.865,1.959,1.798,3.886,2.497
				c-1.932-0.53-3.956-0.931-4.034-0.31c-0.139,1.12,6.372,3.441,7.222,3.739c-0.719-0.25-5.68-1.933-5.87-0.872
				c-0.196,1.1,7.08,3.385,7.08,3.385s26.877,18.185,34.037,17.965s12.427-5.81,17.328-13.654
				C559.304,276.728,559.463,276.464,559.623,276.192L559.623,276.192z"/>
			<path style="fill:#FCD98E;" d="M559.623,276.192c4.757-8.111,9.606-23.661,7.239-26.809c-4.044-5.379-7.919-1.412-9.838,1.591
				c-1.107,1.732-5.535,10.548-9.378,17.621C550.442,270.66,554.709,273.582,559.623,276.192z"/>
		</g>
		<g>
			<path style="fill:#FFADB7;" d="M542.57,245.892l0.048-9.675c0,0-9.345,0.668-6.627-14.794
				c2.718-15.462,18.757,2.817,18.757,2.817l-5.352,11.727l-0.295,9.886L542.57,245.892z"/>
			<path style="fill:#01004C;" d="M546.574,226.169c1.254,0.328,2.078-2.318,3.726-2.02c1.648,0.299,2.076,2.982-0.742,4.437
				c0,0-5.513,8.068-0.407,15.63c5.105,7.561,17.886,4.16,19.692-2.384s-0.764-14.115-6.299-17.073
				c-5.535-2.958-8.065-3.983-9.554-8.659c-1.254-3.939-10.058-7.962-15.65-4.129c-4.855,3.327-4.883,8.971-1.656,11.234
				c2.146,1.504,6.72-2.77,8.871-1.511C546.704,222.953,545.331,225.844,546.574,226.169z"/>
			<path style="fill:none;stroke:#EF8998;stroke-width:0.5;stroke-linecap:round;stroke-miterlimit:10;" d="M540.946,226.714
				c0,0,1.136-1.632,2.768-0.247"/>
			<path style="fill:none;stroke:#EF8998;stroke-width:0.5;stroke-linecap:round;stroke-linejoin:round;stroke-miterlimit:10;" d="
				M536.128,226.753c0,0,0.879-1.263,2.143-0.191"/>
			
				<radialGradient id="SVGID_00000042709882767476370120000009210500112013914285_" cx="536.6281" cy="248.2978" r="2.7806" gradientTransform="matrix(0.9985 -0.0544 0.0544 0.9985 -6.1662 12.9998)" gradientUnits="userSpaceOnUse">
				<stop  offset="0" style="stop-color:#000000"/>
				<stop  offset="1" style="stop-color:#000000;stop-opacity:0"/>
			</radialGradient>
			<path style="opacity:0.51;fill:url(#SVGID_00000042709882767476370120000009210500112013914285_);" d="M545.941,231.581
				c-0.084-1.533-1.394-2.709-2.928-2.625c-1.533,0.083-2.709,1.394-2.625,2.928s1.394,2.709,2.928,2.625
				C544.849,234.426,546.024,233.115,545.941,231.581z"/>
			<path style="fill:none;stroke:#EF8998;stroke-width:0.5;stroke-linecap:round;stroke-linejoin:round;stroke-miterlimit:10;" d="
				M539.464,227.664c0,0,0.037,1.374-0.852,2.366c0,0,0.472,0.316,1.593,0.173"/>
			<g>
				<path style="fill:none;stroke:#EF8998;stroke-width:0.5;stroke-linecap:round;stroke-miterlimit:10;" d="M550.653,226.619
					c0.182-0.349,0.232-0.687,0.19-0.969c-0.062-0.411-0.314-0.696-0.676-0.762c-0.043-0.008-0.084-0.012-0.124-0.012
					c-0.256,0-0.522,0.171-0.789,0.404"/>
				<path style="fill:none;stroke:#EF8998;stroke-width:0.5;stroke-linecap:round;stroke-miterlimit:10;" d="M549.867,225.909
					c0,0,0.448-0.221,0.651-0.864"/>
			</g>
			
				<linearGradient id="SVGID_00000134955338731575600670000015761858595114773383_" gradientUnits="userSpaceOnUse" x1="542.7511" y1="236.0581" x2="544.7318" y2="237.7201">
				<stop  offset="0" style="stop-color:#000000"/>
				<stop  offset="0.7913" style="stop-color:#000000;stop-opacity:0"/>
			</linearGradient>
			<path style="opacity:0.75;fill:url(#SVGID_00000134955338731575600670000015761858595114773383_);" d="M542.605,238.843
				l0.013,0.015c2.299-0.33,3.327-3.033,3.327-3.033c-1.396,0.33-3.327,0.391-3.327,0.391L542.605,238.843z"/>
		</g>
	</g>
	
		<line style="fill:none;stroke:#91B6E0;stroke-width:2;stroke-linecap:round;stroke-linejoin:round;stroke-miterlimit:10;" x1="93.154" y1="425.394" x2="668.231" y2="425.394"/>
	<g>
		<g>
			<rect x="561.953" y="149.159" style="fill:#FFFFFF;" width="91.571" height="41.726"/>
			<path style="fill:#01004C;" d="M653.025,149.659v40.725h-90.571v-40.725H653.025 M654.025,148.659h-92.571v42.725h92.571V148.659
				L654.025,148.659z"/>
		</g>
		<polygon style="fill:#C1CCD6;" points="657.387,194.549 522.091,194.549 518.728,191.384 654.025,191.384 		"/>
		<polygon style="fill:#ED6279;" points="564.816,194.549 522.091,194.549 518.728,191.384 561.453,191.384 		"/>
		<rect x="518.728" y="148.659" style="fill:#F98091;" width="42.725" height="42.725"/>
		<polygon style="fill:#A9B8C9;" points="657.387,194.549 654.025,191.384 654.025,148.659 657.387,151.824 		"/>
		<rect x="572.135" y="157.164" style="fill:#91B6E0;" width="28.879" height="3.758"/>
		
			<line style="fill:#FFFFFF;stroke:#01004C;stroke-linecap:round;stroke-linejoin:round;stroke-miterlimit:10;" x1="572.135" y1="167.67" x2="644.332" y2="167.67"/>
		
			<line style="fill:#FFFFFF;stroke:#01004C;stroke-linecap:round;stroke-linejoin:round;stroke-miterlimit:10;" x1="572.135" y1="174.395" x2="644.332" y2="174.395"/>
		
			<line style="fill:#FFFFFF;stroke:#01004C;stroke-linecap:round;stroke-linejoin:round;stroke-miterlimit:10;" x1="572.135" y1="181.12" x2="609.85" y2="181.12"/>
		<g>
			
				<ellipse transform="matrix(0.3803 -0.9249 0.9249 0.3803 177.4501 604.8743)" style="fill:#FFFFFF;" cx="540.091" cy="170.021" rx="10.286" ry="10.286"/>
			<g>
				<path style="fill:#91B6E0;" d="M543.291,166.464c0-1.767-1.433-3.2-3.2-3.2c-1.767,0-3.2,1.433-3.2,3.2
					c0,1.767,1.433,3.2,3.2,3.2C541.858,169.664,543.291,168.231,543.291,166.464z"/>
				<path style="fill:#91B6E0;" d="M540.091,170.79c-3.684,0-6.67,2.986-6.67,6.67c0,0.136,0.013,0.268,0.021,0.402
					c1.794,1.523,4.112,2.445,6.649,2.445c2.537,0,4.856-0.923,6.649-2.445c0.008-0.133,0.021-0.266,0.021-0.402
					C546.76,173.777,543.774,170.79,540.091,170.79z"/>
			</g>
		</g>
	</g>
	<g>
		<g>
			<rect x="347.093" y="241.382" style="fill:#FFFFFF;" width="91.571" height="41.725"/>
			<path style="fill:#01004C;" d="M438.164,241.882v40.725h-90.571v-40.725H438.164 M439.164,240.882h-92.571v42.725h92.571V240.882
				L439.164,240.882z"/>
		</g>
		<polygon style="fill:#C1CCD6;" points="442.527,286.772 307.23,286.772 303.868,283.607 439.164,283.607 		"/>
		<polygon style="fill:#ED6279;" points="349.956,286.772 307.23,286.772 303.868,283.607 346.593,283.607 		"/>
		<rect x="303.868" y="240.882" style="fill:#F98091;" width="42.725" height="42.725"/>
		<polygon style="fill:#A9B8C9;" points="442.527,286.772 439.164,283.607 439.164,240.882 442.527,244.047 		"/>
		<rect x="357.274" y="249.387" style="fill:#91B6E0;" width="28.879" height="3.758"/>
		
			<line style="fill:#FFFFFF;stroke:#01004C;stroke-linecap:round;stroke-linejoin:round;stroke-miterlimit:10;" x1="357.274" y1="259.893" x2="429.472" y2="259.893"/>
		
			<line style="fill:#FFFFFF;stroke:#01004C;stroke-linecap:round;stroke-linejoin:round;stroke-miterlimit:10;" x1="357.274" y1="266.618" x2="429.472" y2="266.618"/>
		
			<line style="fill:#FFFFFF;stroke:#01004C;stroke-linecap:round;stroke-linejoin:round;stroke-miterlimit:10;" x1="357.274" y1="273.344" x2="414.373" y2="273.344"/>
		<g>
			<path style="fill:#FFFFFF;" d="M316.513,265.363l-0.462-2.1l-0.623-2.654h-0.038l-1.096,4.754h-1.762l-1.708-6.005h1.633
				l0.693,2.659c0.111,0.476,0.224,1.133,0.338,1.971h0.032c0.014-0.272,0.077-0.703,0.188-1.295l0.086-0.456l0.741-2.879h1.805
				l0.704,2.879c0.014,0.079,0.037,0.195,0.067,0.349c0.03,0.154,0.06,0.318,0.088,0.492c0.029,0.174,0.055,0.344,0.078,0.51
				c0.023,0.167,0.037,0.3,0.041,0.4h0.032c0.032-0.258,0.089-0.611,0.172-1.061c0.082-0.449,0.142-0.753,0.177-0.91l0.72-2.659
				h1.606l-1.729,6.005H316.513z"/>
			<path style="fill:#FFFFFF;" d="M327.029,265.363l-0.462-2.1l-0.623-2.654h-0.038l-1.096,4.754h-1.762l-1.708-6.005h1.633
				l0.693,2.659c0.111,0.476,0.224,1.133,0.338,1.971h0.032c0.014-0.272,0.077-0.703,0.188-1.295l0.086-0.456l0.741-2.879h1.805
				l0.704,2.879c0.014,0.079,0.037,0.195,0.067,0.349c0.03,0.154,0.06,0.318,0.088,0.492c0.029,0.174,0.055,0.344,0.078,0.51
				c0.023,0.167,0.037,0.3,0.04,0.4h0.032c0.032-0.258,0.089-0.611,0.172-1.061c0.082-0.449,0.142-0.753,0.177-0.91l0.72-2.659
				h1.606l-1.729,6.005H327.029z"/>
			<path style="fill:#FFFFFF;" d="M337.545,265.363l-0.462-2.1l-0.623-2.654h-0.038l-1.096,4.754h-1.762l-1.708-6.005h1.633
				l0.693,2.659c0.111,0.476,0.224,1.133,0.338,1.971h0.032c0.014-0.272,0.077-0.703,0.188-1.295l0.086-0.456l0.741-2.879h1.805
				l0.704,2.879c0.014,0.079,0.037,0.195,0.067,0.349c0.03,0.154,0.059,0.318,0.088,0.492c0.029,0.174,0.055,0.344,0.078,0.51
				c0.023,0.167,0.037,0.3,0.04,0.4h0.032c0.032-0.258,0.089-0.611,0.172-1.061c0.083-0.449,0.142-0.753,0.177-0.91l0.72-2.659
				h1.606l-1.729,6.005H337.545z"/>
		</g>
	</g>
	<g>
		<g>
			<rect x="116.953" y="116.814" style="fill:#FFFFFF;" width="91.571" height="41.726"/>
			<path style="fill:#01004C;" d="M208.025,117.315v40.725h-90.571v-40.725H208.025 M209.025,116.315h-92.571v42.725h92.571V116.315
				L209.025,116.315z"/>
		</g>
		<polygon style="fill:#C1CCD6;" points="212.387,162.205 77.091,162.205 73.728,159.04 209.025,159.04 		"/>
		<polygon style="fill:#ED6279;" points="119.816,162.205 77.091,162.205 73.728,159.04 116.453,159.04 		"/>
		<rect x="73.728" y="116.315" style="fill:#F98091;" width="42.725" height="42.725"/>
		<polygon style="fill:#A9B8C9;" points="212.387,162.205 209.025,159.04 209.025,116.315 212.387,119.479 		"/>
		<rect x="127.135" y="124.82" style="fill:#91B6E0;" width="28.879" height="3.758"/>
		
			<line style="fill:#FFFFFF;stroke:#01004C;stroke-linecap:round;stroke-linejoin:round;stroke-miterlimit:10;" x1="127.135" y1="135.326" x2="199.332" y2="135.326"/>
		
			<line style="fill:#FFFFFF;stroke:#01004C;stroke-linecap:round;stroke-linejoin:round;stroke-miterlimit:10;" x1="127.135" y1="142.051" x2="199.332" y2="142.051"/>
		
			<line style="fill:#FFFFFF;stroke:#01004C;stroke-linecap:round;stroke-linejoin:round;stroke-miterlimit:10;" x1="127.135" y1="148.776" x2="184.233" y2="148.776"/>
		<g>
			<path style="fill:#FFFFFF;" d="M86.196,125.443h17.79c1.844,0,3.339,1.495,3.339,3.339v17.79c0,1.844-1.495,3.339-3.339,3.339
				h-17.79c-1.844,0-3.339-1.495-3.339-3.339v-17.79C82.856,126.938,84.351,125.443,86.196,125.443z"/>
			<path style="fill:#FCD98E;" d="M102.607,133.919c0-2.076-1.683-3.758-3.758-3.758s-3.758,1.683-3.758,3.758
				c0,2.076,1.683,3.758,3.758,3.758S102.607,135.995,102.607,133.919z"/>
			<path style="fill:#7BC4B3;" d="M86.196,149.911h17.79c1.844,0,3.339-1.495,3.339-3.339v-11.246
				c-13.259-0.607-24.468,8.339-24.468,8.339v2.908C82.856,148.416,84.351,149.911,86.196,149.911z"/>
		</g>
	</g>
</g>
<g id="DESIGNED_BY_FREEPIK">
	<g>
		<g id="XMLID_319_">
			<g id="XMLID_338_">
				<path id="XMLID_346_" style="fill:#11212A;" d="M385.104,465.465c-0.432,0.443-0.803,0.931-1.108,1.453l-0.465-0.241
					c-0.067-0.298-0.349-0.503-0.659-0.466c-0.331,0.039-0.568,0.339-0.529,0.67c0.039,0.331,0.339,0.568,0.67,0.529
					c0.065-0.008,0.127-0.026,0.183-0.052l0.452,0.234c-0.251,0.554-0.433,1.139-0.539,1.744l0.747,0.132
					c0.23-1.306,0.85-2.507,1.792-3.473L385.104,465.465z"/>
				<path id="XMLID_345_" style="fill:#11212A;" d="M390.592,463.163c-0.171,0-0.341,0.006-0.51,0.017l-0.074-0.626
					c0.188-0.149,0.296-0.389,0.266-0.645c-0.046-0.393-0.402-0.674-0.795-0.628c-0.393,0.046-0.674,0.402-0.628,0.795
					c0.03,0.254,0.189,0.461,0.405,0.564l0.073,0.624c-0.714,0.116-1.403,0.332-2.06,0.646l0.327,0.684
					c0.934-0.447,1.942-0.673,2.995-0.673c0.496,0,0.993,0.053,1.475,0.158l0.161-0.741
					C391.692,463.222,391.142,463.163,390.592,463.163z"/>
				<path id="XMLID_344_" style="fill:#11212A;" d="M397.194,465.711c0.331-0.04,0.566-0.341,0.526-0.672
					c-0.04-0.331-0.341-0.566-0.672-0.526c-0.309,0.038-0.535,0.304-0.53,0.609l-0.416,0.363c-0.418-0.43-0.89-0.813-1.408-1.139
					l-0.404,0.641c1.134,0.715,2.021,1.726,2.563,2.925l0.691-0.313c-0.251-0.554-0.568-1.072-0.942-1.545l0.402-0.351
					C397.065,465.716,397.129,465.719,397.194,465.711z"/>
				<path id="XMLID_343_" style="fill:#11212A;" d="M390.044,473.372c-0.386,0.023-0.775,0.035-1.157,0.035
					c-0.88,0-1.733-0.061-2.478-0.179c-0.39-0.062-0.846-0.155-1.27-0.292c1.046,1.861,3.069,3.125,5.388,3.125
					c2.855,0,5.262-1.916,5.95-4.504c-0.682,0.449-1.505,0.825-2.459,1.123C392.839,473.047,391.464,473.286,390.044,473.372z"/>
				<path id="XMLID_339_" style="fill:#11212A;" d="M390.592,464.68c-3.352,0-6.08,2.666-6.08,5.943
					c0,0.426,0.046,0.849,0.137,1.261c0.673,0.483,2.706,0.89,5.348,0.731c2.879-0.173,5.297-0.957,6.672-2.159
					c-0.005-0.195-0.021-0.39-0.045-0.582C396.244,466.913,393.65,464.68,390.592,464.68z M388.432,471.194
					c-1.02,0-1.85-0.83-1.85-1.85c0-1.02,0.83-1.85,1.85-1.85c1.02,0,1.85,0.83,1.85,1.85
					C390.282,470.365,389.452,471.194,388.432,471.194z M393.17,470.286c-0.75,0-1.36-0.61-1.36-1.36s0.61-1.361,1.36-1.361
					c0.75,0,1.361,0.61,1.361,1.361S393.92,470.286,393.17,470.286z"/>
			</g>
			<path id="XMLID_336_" style="fill:#11212A;" d="M406.595,466.547c-0.295-0.116-0.805-0.309-1.382-0.237
				c-0.551,0.069-0.844,0.341-0.844,1.007v0.866h2.228v1.717h-2.228v5.455h-1.932v-5.455h-1.34v-1.717h1.34v-0.888
				c0-1.68,0.896-2.783,2.568-2.783c0.643,0,1.157,0.122,1.59,0.308L406.595,466.547z"/>
			<path id="XMLID_334_" style="fill:#11212A;" d="M411.298,469.879c-0.177-0.03-0.358-0.046-0.526-0.046
				c-0.896,0-1.51,0.548-1.51,1.614v3.908h-1.932v-7.172h1.873v0.785c0.451-0.673,1.14-0.977,2.021-0.977
				c0.414,0,0.848,0.128,1.094,0.337L411.298,469.879z"/>
			<path id="XMLID_331_" style="fill:#11212A;" d="M418.965,471.757c0,0.222-0.015,0.489-0.037,0.651h-5.085
				c0.207,1.036,0.933,1.488,1.843,1.488c0.622,0,1.295-0.252,1.813-0.688l1.132,1.243c-0.814,0.748-1.85,1.088-3.057,1.088
				c-2.198,0-3.723-1.495-3.723-3.753c0-2.258,1.48-3.797,3.627-3.797C417.544,467.99,418.958,469.522,418.965,471.757z
				 M413.851,471.091h3.175c-0.177-0.918-0.733-1.436-1.562-1.436C414.554,469.655,414.021,470.203,413.851,471.091z"/>
			<path id="XMLID_328_" style="fill:#11212A;" d="M426.618,471.757c0,0.222-0.015,0.489-0.037,0.651h-5.085
				c0.207,1.036,0.933,1.488,1.843,1.488c0.622,0,1.295-0.252,1.813-0.688l1.132,1.243c-0.814,0.748-1.85,1.088-3.057,1.088
				c-2.198,0-3.723-1.495-3.723-3.753c0-2.258,1.48-3.797,3.627-3.797C425.197,467.99,426.611,469.522,426.618,471.757z
				 M421.504,471.091h3.175c-0.178-0.918-0.733-1.436-1.562-1.436C422.207,469.655,421.674,470.203,421.504,471.091z"/>
			<path id="XMLID_325_" style="fill:#11212A;" d="M434.964,471.764c0,2.154-1.495,3.775-3.471,3.775
				c-0.962,0-1.643-0.378-2.109-0.933v3.708h-1.924v-10.133h1.887v0.792c0.466-0.585,1.155-0.984,2.139-0.984
				C433.469,467.99,434.964,469.61,434.964,471.764z M429.287,471.764c0,1.132,0.747,1.976,1.843,1.976
				c1.14,0,1.85-0.881,1.85-1.976c0-1.095-0.71-1.976-1.85-1.976C430.035,469.788,429.287,470.632,429.287,471.764z"/>
			<path id="XMLID_322_" style="fill:#11212A;" d="M438.068,465.836c0,0.696-0.54,1.229-1.236,1.229
				c-0.696,0-1.229-0.533-1.229-1.229c0-0.696,0.533-1.243,1.229-1.243C437.527,464.592,438.068,465.14,438.068,465.836z
				 M437.809,475.354h-1.932v-7.172h1.932V475.354z"/>
			<path id="XMLID_320_" style="fill:#11212A;" d="M441.032,470.736l2.701-2.554h2.368l-3.479,3.375l3.501,3.797h-2.376
				l-2.716-2.901v2.901H439.1v-10.658h1.932V470.736z"/>
		</g>
		<g>
			<path style="fill:#11212A;" d="M309.412,475.289v-1.055c-0.527,0.718-1.391,1.23-2.387,1.23c-1.846,0-3.149-1.406-3.149-3.706
				c0-2.256,1.289-3.721,3.149-3.721c0.952,0,1.816,0.469,2.387,1.245v-3.765h1.099v9.77H309.412z M309.412,473.37v-3.208
				c-0.395-0.615-1.245-1.143-2.124-1.143c-1.421,0-2.27,1.172-2.27,2.739c0,1.567,0.85,2.724,2.27,2.724
				C308.168,474.483,309.017,473.986,309.412,473.37z"/>
			<path style="fill:#11212A;" d="M311.932,471.744c0-2.051,1.465-3.706,3.486-3.706c2.139,0,3.398,1.67,3.398,3.794v0.279h-5.727
				c0.088,1.333,1.026,2.446,2.549,2.446c0.806,0,1.626-0.322,2.182-0.894l0.527,0.718c-0.703,0.703-1.655,1.084-2.812,1.084
				C313.44,475.465,311.932,473.956,311.932,471.744z M315.404,468.947c-1.509,0-2.256,1.274-2.315,2.358h4.643
				C317.718,470.25,317.015,468.947,315.404,468.947z"/>
			<path style="fill:#11212A;" d="M319.607,474.351l0.571-0.791c0.469,0.542,1.362,1.011,2.329,1.011c1.084,0,1.67-0.513,1.67-1.216
				c0-1.714-4.38-0.659-4.38-3.281c0-1.098,0.952-2.036,2.636-2.036c1.201,0,2.051,0.454,2.622,1.026l-0.513,0.762
				c-0.424-0.513-1.201-0.894-2.109-0.894c-0.967,0-1.567,0.483-1.567,1.113c0,1.552,4.38,0.527,4.38,3.281
				c0,1.187-0.952,2.138-2.783,2.138C321.306,475.465,320.325,475.113,319.607,474.351z"/>
			<path style="fill:#11212A;" d="M326.477,466.471c0-0.41,0.337-0.747,0.732-0.747c0.41,0,0.747,0.337,0.747,0.747
				c0,0.41-0.337,0.732-0.747,0.732C326.814,467.203,326.477,466.881,326.477,466.471z M326.667,475.289v-7.075h1.099v7.075H326.667
				z"/>
			<path style="fill:#11212A;" d="M329.582,477.105l0.556-0.82c0.586,0.703,1.289,0.967,2.3,0.967c1.172,0,2.27-0.571,2.27-2.124
				v-1.011c-0.513,0.718-1.377,1.26-2.373,1.26c-1.845,0-3.149-1.377-3.149-3.662c0-2.27,1.289-3.677,3.149-3.677
				c0.952,0,1.802,0.469,2.373,1.245v-1.069h1.099v6.87c0,2.344-1.641,3.076-3.369,3.076
				C331.237,478.16,330.417,477.926,329.582,477.105z M334.709,473.253v-3.091c-0.381-0.615-1.23-1.143-2.109-1.143
				c-1.421,0-2.27,1.128-2.27,2.695c0,1.553,0.849,2.695,2.27,2.695C333.478,474.41,334.328,473.868,334.709,473.253z"/>
			<path style="fill:#11212A;" d="M342.413,475.289v-4.629c0-1.245-0.63-1.641-1.582-1.641c-0.865,0-1.685,0.527-2.095,1.099v5.17
				h-1.099v-7.075h1.099v1.025c0.498-0.586,1.465-1.201,2.519-1.201c1.48,0,2.256,0.747,2.256,2.285v4.966H342.413z"/>
			<path style="fill:#11212A;" d="M344.932,471.744c0-2.051,1.465-3.706,3.486-3.706c2.138,0,3.398,1.67,3.398,3.794v0.279h-5.727
				c0.088,1.333,1.025,2.446,2.549,2.446c0.806,0,1.626-0.322,2.183-0.894l0.527,0.718c-0.703,0.703-1.655,1.084-2.812,1.084
				C346.441,475.465,344.932,473.956,344.932,471.744z M348.404,468.947c-1.509,0-2.256,1.274-2.314,2.358h4.643
				C350.718,470.25,350.015,468.947,348.404,468.947z"/>
			<path style="fill:#11212A;" d="M358.35,475.289v-1.055c-0.527,0.718-1.392,1.23-2.388,1.23c-1.846,0-3.149-1.406-3.149-3.706
				c0-2.256,1.289-3.721,3.149-3.721c0.952,0,1.817,0.469,2.388,1.245v-3.765h1.098v9.77H358.35z M358.35,473.37v-3.208
				c-0.396-0.615-1.245-1.143-2.124-1.143c-1.421,0-2.27,1.172-2.27,2.739c0,1.567,0.849,2.724,2.27,2.724
				C357.105,474.483,357.954,473.986,358.35,473.37z"/>
			<path style="fill:#11212A;" d="M364.692,475.289v-9.77h1.099v3.765c0.572-0.776,1.421-1.245,2.388-1.245
				c1.845,0,3.149,1.465,3.149,3.721c0,2.299-1.304,3.706-3.149,3.706c-0.996,0-1.86-0.513-2.388-1.23v1.055H364.692z
				 M367.9,474.483c1.436,0,2.286-1.157,2.286-2.724c0-1.568-0.85-2.739-2.286-2.739c-0.864,0-1.728,0.527-2.109,1.143v3.208
				C366.171,473.986,367.036,474.483,367.9,474.483z"/>
			<path style="fill:#11212A;" d="M372.529,477.061c0.161,0.073,0.425,0.117,0.601,0.117c0.483,0,0.806-0.161,1.055-0.747
				l0.469-1.069l-2.959-7.148h1.187l2.358,5.8l2.344-5.8h1.201l-3.545,8.51c-0.425,1.025-1.143,1.421-2.08,1.435
				c-0.234,0-0.601-0.044-0.806-0.103L372.529,477.061z"/>
		</g>
	</g>
</g>
</svg>
